%TF.GenerationSoftware,KiCad,Pcbnew,8.0.3*%
%TF.CreationDate,2024-08-17T22:20:40+01:00*%
%TF.ProjectId,TSSOP_Board,5453534f-505f-4426-9f61-72642e6b6963,rev?*%
%TF.SameCoordinates,Original*%
%TF.FileFunction,OtherDrawing,Comment*%
%FSLAX46Y46*%
G04 Gerber Fmt 4.6, Leading zero omitted, Abs format (unit mm)*
G04 Created by KiCad (PCBNEW 8.0.3) date 2024-08-17 22:20:40*
%MOMM*%
%LPD*%
G01*
G04 APERTURE LIST*
%ADD10C,0.150000*%
%ADD11C,0.100000*%
G04 APERTURE END LIST*
D10*
X114077381Y-40604819D02*
X113505953Y-40604819D01*
X113791667Y-40604819D02*
X113791667Y-39604819D01*
X113791667Y-39604819D02*
X113696429Y-39747676D01*
X113696429Y-39747676D02*
X113601191Y-39842914D01*
X113601191Y-39842914D02*
X113505953Y-39890533D01*
X114934524Y-39604819D02*
X114744048Y-39604819D01*
X114744048Y-39604819D02*
X114648810Y-39652438D01*
X114648810Y-39652438D02*
X114601191Y-39700057D01*
X114601191Y-39700057D02*
X114505953Y-39842914D01*
X114505953Y-39842914D02*
X114458334Y-40033390D01*
X114458334Y-40033390D02*
X114458334Y-40414342D01*
X114458334Y-40414342D02*
X114505953Y-40509580D01*
X114505953Y-40509580D02*
X114553572Y-40557200D01*
X114553572Y-40557200D02*
X114648810Y-40604819D01*
X114648810Y-40604819D02*
X114839286Y-40604819D01*
X114839286Y-40604819D02*
X114934524Y-40557200D01*
X114934524Y-40557200D02*
X114982143Y-40509580D01*
X114982143Y-40509580D02*
X115029762Y-40414342D01*
X115029762Y-40414342D02*
X115029762Y-40176247D01*
X115029762Y-40176247D02*
X114982143Y-40081009D01*
X114982143Y-40081009D02*
X114934524Y-40033390D01*
X114934524Y-40033390D02*
X114839286Y-39985771D01*
X114839286Y-39985771D02*
X114648810Y-39985771D01*
X114648810Y-39985771D02*
X114553572Y-40033390D01*
X114553572Y-40033390D02*
X114505953Y-40081009D01*
X114505953Y-40081009D02*
X114458334Y-40176247D01*
X115458334Y-40509580D02*
X115505953Y-40557200D01*
X115505953Y-40557200D02*
X115458334Y-40604819D01*
X115458334Y-40604819D02*
X115410715Y-40557200D01*
X115410715Y-40557200D02*
X115458334Y-40509580D01*
X115458334Y-40509580D02*
X115458334Y-40604819D01*
X115839286Y-39604819D02*
X116505952Y-39604819D01*
X116505952Y-39604819D02*
X116077381Y-40604819D01*
X117363095Y-39604819D02*
X116886905Y-39604819D01*
X116886905Y-39604819D02*
X116839286Y-40081009D01*
X116839286Y-40081009D02*
X116886905Y-40033390D01*
X116886905Y-40033390D02*
X116982143Y-39985771D01*
X116982143Y-39985771D02*
X117220238Y-39985771D01*
X117220238Y-39985771D02*
X117315476Y-40033390D01*
X117315476Y-40033390D02*
X117363095Y-40081009D01*
X117363095Y-40081009D02*
X117410714Y-40176247D01*
X117410714Y-40176247D02*
X117410714Y-40414342D01*
X117410714Y-40414342D02*
X117363095Y-40509580D01*
X117363095Y-40509580D02*
X117315476Y-40557200D01*
X117315476Y-40557200D02*
X117220238Y-40604819D01*
X117220238Y-40604819D02*
X116982143Y-40604819D01*
X116982143Y-40604819D02*
X116886905Y-40557200D01*
X116886905Y-40557200D02*
X116839286Y-40509580D01*
X118029762Y-39604819D02*
X118125000Y-39604819D01*
X118125000Y-39604819D02*
X118220238Y-39652438D01*
X118220238Y-39652438D02*
X118267857Y-39700057D01*
X118267857Y-39700057D02*
X118315476Y-39795295D01*
X118315476Y-39795295D02*
X118363095Y-39985771D01*
X118363095Y-39985771D02*
X118363095Y-40223866D01*
X118363095Y-40223866D02*
X118315476Y-40414342D01*
X118315476Y-40414342D02*
X118267857Y-40509580D01*
X118267857Y-40509580D02*
X118220238Y-40557200D01*
X118220238Y-40557200D02*
X118125000Y-40604819D01*
X118125000Y-40604819D02*
X118029762Y-40604819D01*
X118029762Y-40604819D02*
X117934524Y-40557200D01*
X117934524Y-40557200D02*
X117886905Y-40509580D01*
X117886905Y-40509580D02*
X117839286Y-40414342D01*
X117839286Y-40414342D02*
X117791667Y-40223866D01*
X117791667Y-40223866D02*
X117791667Y-39985771D01*
X117791667Y-39985771D02*
X117839286Y-39795295D01*
X117839286Y-39795295D02*
X117886905Y-39700057D01*
X117886905Y-39700057D02*
X117934524Y-39652438D01*
X117934524Y-39652438D02*
X118029762Y-39604819D01*
X118982143Y-39604819D02*
X119077381Y-39604819D01*
X119077381Y-39604819D02*
X119172619Y-39652438D01*
X119172619Y-39652438D02*
X119220238Y-39700057D01*
X119220238Y-39700057D02*
X119267857Y-39795295D01*
X119267857Y-39795295D02*
X119315476Y-39985771D01*
X119315476Y-39985771D02*
X119315476Y-40223866D01*
X119315476Y-40223866D02*
X119267857Y-40414342D01*
X119267857Y-40414342D02*
X119220238Y-40509580D01*
X119220238Y-40509580D02*
X119172619Y-40557200D01*
X119172619Y-40557200D02*
X119077381Y-40604819D01*
X119077381Y-40604819D02*
X118982143Y-40604819D01*
X118982143Y-40604819D02*
X118886905Y-40557200D01*
X118886905Y-40557200D02*
X118839286Y-40509580D01*
X118839286Y-40509580D02*
X118791667Y-40414342D01*
X118791667Y-40414342D02*
X118744048Y-40223866D01*
X118744048Y-40223866D02*
X118744048Y-39985771D01*
X118744048Y-39985771D02*
X118791667Y-39795295D01*
X118791667Y-39795295D02*
X118839286Y-39700057D01*
X118839286Y-39700057D02*
X118886905Y-39652438D01*
X118886905Y-39652438D02*
X118982143Y-39604819D01*
X120505953Y-40604819D02*
X120505953Y-39938152D01*
X120505953Y-40033390D02*
X120553572Y-39985771D01*
X120553572Y-39985771D02*
X120648810Y-39938152D01*
X120648810Y-39938152D02*
X120791667Y-39938152D01*
X120791667Y-39938152D02*
X120886905Y-39985771D01*
X120886905Y-39985771D02*
X120934524Y-40081009D01*
X120934524Y-40081009D02*
X120934524Y-40604819D01*
X120934524Y-40081009D02*
X120982143Y-39985771D01*
X120982143Y-39985771D02*
X121077381Y-39938152D01*
X121077381Y-39938152D02*
X121220238Y-39938152D01*
X121220238Y-39938152D02*
X121315477Y-39985771D01*
X121315477Y-39985771D02*
X121363096Y-40081009D01*
X121363096Y-40081009D02*
X121363096Y-40604819D01*
X121839286Y-40604819D02*
X121839286Y-39938152D01*
X121839286Y-40033390D02*
X121886905Y-39985771D01*
X121886905Y-39985771D02*
X121982143Y-39938152D01*
X121982143Y-39938152D02*
X122125000Y-39938152D01*
X122125000Y-39938152D02*
X122220238Y-39985771D01*
X122220238Y-39985771D02*
X122267857Y-40081009D01*
X122267857Y-40081009D02*
X122267857Y-40604819D01*
X122267857Y-40081009D02*
X122315476Y-39985771D01*
X122315476Y-39985771D02*
X122410714Y-39938152D01*
X122410714Y-39938152D02*
X122553571Y-39938152D01*
X122553571Y-39938152D02*
X122648810Y-39985771D01*
X122648810Y-39985771D02*
X122696429Y-40081009D01*
X122696429Y-40081009D02*
X122696429Y-40604819D01*
D11*
X109750000Y-45000000D02*
X109750000Y-40713580D01*
X126500000Y-45000000D02*
X126500000Y-40713580D01*
X109750000Y-41300000D02*
X126500000Y-41300000D01*
X109750000Y-41300000D02*
X126500000Y-41300000D01*
X109750000Y-41300000D02*
X110876504Y-40713579D01*
X109750000Y-41300000D02*
X110876504Y-41886421D01*
X126500000Y-41300000D02*
X125373496Y-41886421D01*
X126500000Y-41300000D02*
X125373496Y-40713579D01*
D10*
X106038153Y-70392856D02*
X106704820Y-70392856D01*
X105657201Y-70630951D02*
X106371486Y-70869046D01*
X106371486Y-70869046D02*
X106371486Y-70249999D01*
X106704820Y-69345237D02*
X106704820Y-69916665D01*
X106704820Y-69630951D02*
X105704820Y-69630951D01*
X105704820Y-69630951D02*
X105847677Y-69726189D01*
X105847677Y-69726189D02*
X105942915Y-69821427D01*
X105942915Y-69821427D02*
X105990534Y-69916665D01*
X106609581Y-68916665D02*
X106657201Y-68869046D01*
X106657201Y-68869046D02*
X106704820Y-68916665D01*
X106704820Y-68916665D02*
X106657201Y-68964284D01*
X106657201Y-68964284D02*
X106609581Y-68916665D01*
X106609581Y-68916665D02*
X106704820Y-68916665D01*
X105704820Y-67964285D02*
X105704820Y-68440475D01*
X105704820Y-68440475D02*
X106181010Y-68488094D01*
X106181010Y-68488094D02*
X106133391Y-68440475D01*
X106133391Y-68440475D02*
X106085772Y-68345237D01*
X106085772Y-68345237D02*
X106085772Y-68107142D01*
X106085772Y-68107142D02*
X106133391Y-68011904D01*
X106133391Y-68011904D02*
X106181010Y-67964285D01*
X106181010Y-67964285D02*
X106276248Y-67916666D01*
X106276248Y-67916666D02*
X106514343Y-67916666D01*
X106514343Y-67916666D02*
X106609581Y-67964285D01*
X106609581Y-67964285D02*
X106657201Y-68011904D01*
X106657201Y-68011904D02*
X106704820Y-68107142D01*
X106704820Y-68107142D02*
X106704820Y-68345237D01*
X106704820Y-68345237D02*
X106657201Y-68440475D01*
X106657201Y-68440475D02*
X106609581Y-68488094D01*
X105704820Y-67297618D02*
X105704820Y-67202380D01*
X105704820Y-67202380D02*
X105752439Y-67107142D01*
X105752439Y-67107142D02*
X105800058Y-67059523D01*
X105800058Y-67059523D02*
X105895296Y-67011904D01*
X105895296Y-67011904D02*
X106085772Y-66964285D01*
X106085772Y-66964285D02*
X106323867Y-66964285D01*
X106323867Y-66964285D02*
X106514343Y-67011904D01*
X106514343Y-67011904D02*
X106609581Y-67059523D01*
X106609581Y-67059523D02*
X106657201Y-67107142D01*
X106657201Y-67107142D02*
X106704820Y-67202380D01*
X106704820Y-67202380D02*
X106704820Y-67297618D01*
X106704820Y-67297618D02*
X106657201Y-67392856D01*
X106657201Y-67392856D02*
X106609581Y-67440475D01*
X106609581Y-67440475D02*
X106514343Y-67488094D01*
X106514343Y-67488094D02*
X106323867Y-67535713D01*
X106323867Y-67535713D02*
X106085772Y-67535713D01*
X106085772Y-67535713D02*
X105895296Y-67488094D01*
X105895296Y-67488094D02*
X105800058Y-67440475D01*
X105800058Y-67440475D02*
X105752439Y-67392856D01*
X105752439Y-67392856D02*
X105704820Y-67297618D01*
X105704820Y-66345237D02*
X105704820Y-66249999D01*
X105704820Y-66249999D02*
X105752439Y-66154761D01*
X105752439Y-66154761D02*
X105800058Y-66107142D01*
X105800058Y-66107142D02*
X105895296Y-66059523D01*
X105895296Y-66059523D02*
X106085772Y-66011904D01*
X106085772Y-66011904D02*
X106323867Y-66011904D01*
X106323867Y-66011904D02*
X106514343Y-66059523D01*
X106514343Y-66059523D02*
X106609581Y-66107142D01*
X106609581Y-66107142D02*
X106657201Y-66154761D01*
X106657201Y-66154761D02*
X106704820Y-66249999D01*
X106704820Y-66249999D02*
X106704820Y-66345237D01*
X106704820Y-66345237D02*
X106657201Y-66440475D01*
X106657201Y-66440475D02*
X106609581Y-66488094D01*
X106609581Y-66488094D02*
X106514343Y-66535713D01*
X106514343Y-66535713D02*
X106323867Y-66583332D01*
X106323867Y-66583332D02*
X106085772Y-66583332D01*
X106085772Y-66583332D02*
X105895296Y-66535713D01*
X105895296Y-66535713D02*
X105800058Y-66488094D01*
X105800058Y-66488094D02*
X105752439Y-66440475D01*
X105752439Y-66440475D02*
X105704820Y-66345237D01*
X105704820Y-65392856D02*
X105704820Y-65297618D01*
X105704820Y-65297618D02*
X105752439Y-65202380D01*
X105752439Y-65202380D02*
X105800058Y-65154761D01*
X105800058Y-65154761D02*
X105895296Y-65107142D01*
X105895296Y-65107142D02*
X106085772Y-65059523D01*
X106085772Y-65059523D02*
X106323867Y-65059523D01*
X106323867Y-65059523D02*
X106514343Y-65107142D01*
X106514343Y-65107142D02*
X106609581Y-65154761D01*
X106609581Y-65154761D02*
X106657201Y-65202380D01*
X106657201Y-65202380D02*
X106704820Y-65297618D01*
X106704820Y-65297618D02*
X106704820Y-65392856D01*
X106704820Y-65392856D02*
X106657201Y-65488094D01*
X106657201Y-65488094D02*
X106609581Y-65535713D01*
X106609581Y-65535713D02*
X106514343Y-65583332D01*
X106514343Y-65583332D02*
X106323867Y-65630951D01*
X106323867Y-65630951D02*
X106085772Y-65630951D01*
X106085772Y-65630951D02*
X105895296Y-65583332D01*
X105895296Y-65583332D02*
X105800058Y-65535713D01*
X105800058Y-65535713D02*
X105752439Y-65488094D01*
X105752439Y-65488094D02*
X105704820Y-65392856D01*
X106704820Y-63869046D02*
X106038153Y-63869046D01*
X106133391Y-63869046D02*
X106085772Y-63821427D01*
X106085772Y-63821427D02*
X106038153Y-63726189D01*
X106038153Y-63726189D02*
X106038153Y-63583332D01*
X106038153Y-63583332D02*
X106085772Y-63488094D01*
X106085772Y-63488094D02*
X106181010Y-63440475D01*
X106181010Y-63440475D02*
X106704820Y-63440475D01*
X106181010Y-63440475D02*
X106085772Y-63392856D01*
X106085772Y-63392856D02*
X106038153Y-63297618D01*
X106038153Y-63297618D02*
X106038153Y-63154761D01*
X106038153Y-63154761D02*
X106085772Y-63059522D01*
X106085772Y-63059522D02*
X106181010Y-63011903D01*
X106181010Y-63011903D02*
X106704820Y-63011903D01*
X106704820Y-62535713D02*
X106038153Y-62535713D01*
X106133391Y-62535713D02*
X106085772Y-62488094D01*
X106085772Y-62488094D02*
X106038153Y-62392856D01*
X106038153Y-62392856D02*
X106038153Y-62249999D01*
X106038153Y-62249999D02*
X106085772Y-62154761D01*
X106085772Y-62154761D02*
X106181010Y-62107142D01*
X106181010Y-62107142D02*
X106704820Y-62107142D01*
X106181010Y-62107142D02*
X106085772Y-62059523D01*
X106085772Y-62059523D02*
X106038153Y-61964285D01*
X106038153Y-61964285D02*
X106038153Y-61821428D01*
X106038153Y-61821428D02*
X106085772Y-61726189D01*
X106085772Y-61726189D02*
X106181010Y-61678570D01*
X106181010Y-61678570D02*
X106704820Y-61678570D01*
D11*
X109250000Y-45500000D02*
X106813581Y-45500000D01*
X109250000Y-87000000D02*
X106813581Y-87000000D01*
X107400001Y-45500000D02*
X107400001Y-87000000D01*
X107400001Y-45500000D02*
X107400001Y-87000000D01*
X107400001Y-45500000D02*
X107986422Y-46626504D01*
X107400001Y-45500000D02*
X106813580Y-46626504D01*
X107400001Y-87000000D02*
X106813580Y-85873496D01*
X107400001Y-87000000D02*
X107986422Y-85873496D01*
M02*
