%TF.GenerationSoftware,KiCad,Pcbnew,8.0.3*%
%TF.CreationDate,2024-08-17T22:20:39+01:00*%
%TF.ProjectId,TSSOP_Board,5453534f-505f-4426-9f61-72642e6b6963,rev?*%
%TF.SameCoordinates,Original*%
%TF.FileFunction,Copper,L1,Top*%
%TF.FilePolarity,Positive*%
%FSLAX46Y46*%
G04 Gerber Fmt 4.6, Leading zero omitted, Abs format (unit mm)*
G04 Created by KiCad (PCBNEW 8.0.3) date 2024-08-17 22:20:39*
%MOMM*%
%LPD*%
G01*
G04 APERTURE LIST*
G04 Aperture macros list*
%AMRoundRect*
0 Rectangle with rounded corners*
0 $1 Rounding radius*
0 $2 $3 $4 $5 $6 $7 $8 $9 X,Y pos of 4 corners*
0 Add a 4 corners polygon primitive as box body*
4,1,4,$2,$3,$4,$5,$6,$7,$8,$9,$2,$3,0*
0 Add four circle primitives for the rounded corners*
1,1,$1+$1,$2,$3*
1,1,$1+$1,$4,$5*
1,1,$1+$1,$6,$7*
1,1,$1+$1,$8,$9*
0 Add four rect primitives between the rounded corners*
20,1,$1+$1,$2,$3,$4,$5,0*
20,1,$1+$1,$4,$5,$6,$7,0*
20,1,$1+$1,$6,$7,$8,$9,0*
20,1,$1+$1,$8,$9,$2,$3,0*%
G04 Aperture macros list end*
%TA.AperFunction,SMDPad,CuDef*%
%ADD10RoundRect,0.150000X0.512500X0.150000X-0.512500X0.150000X-0.512500X-0.150000X0.512500X-0.150000X0*%
%TD*%
%TA.AperFunction,SMDPad,CuDef*%
%ADD11RoundRect,0.250000X0.250000X0.475000X-0.250000X0.475000X-0.250000X-0.475000X0.250000X-0.475000X0*%
%TD*%
%TA.AperFunction,SMDPad,CuDef*%
%ADD12RoundRect,0.200000X-0.200000X-0.800000X0.200000X-0.800000X0.200000X0.800000X-0.200000X0.800000X0*%
%TD*%
%TA.AperFunction,SMDPad,CuDef*%
%ADD13RoundRect,0.250000X-0.450000X0.262500X-0.450000X-0.262500X0.450000X-0.262500X0.450000X0.262500X0*%
%TD*%
%TA.AperFunction,SMDPad,CuDef*%
%ADD14RoundRect,0.250000X0.450000X-0.262500X0.450000X0.262500X-0.450000X0.262500X-0.450000X-0.262500X0*%
%TD*%
%TA.AperFunction,SMDPad,CuDef*%
%ADD15R,0.600000X1.240000*%
%TD*%
%TA.AperFunction,SMDPad,CuDef*%
%ADD16R,0.300000X1.240000*%
%TD*%
%TA.AperFunction,ComponentPad*%
%ADD17O,1.000000X2.100000*%
%TD*%
%TA.AperFunction,ComponentPad*%
%ADD18O,1.000000X1.800000*%
%TD*%
%TA.AperFunction,SMDPad,CuDef*%
%ADD19RoundRect,0.250000X-0.475000X0.250000X-0.475000X-0.250000X0.475000X-0.250000X0.475000X0.250000X0*%
%TD*%
%TA.AperFunction,ComponentPad*%
%ADD20C,1.700000*%
%TD*%
%TA.AperFunction,ComponentPad*%
%ADD21O,1.700000X1.700000*%
%TD*%
%TA.AperFunction,SMDPad,CuDef*%
%ADD22RoundRect,0.250000X0.475000X-0.250000X0.475000X0.250000X-0.475000X0.250000X-0.475000X-0.250000X0*%
%TD*%
%TA.AperFunction,SMDPad,CuDef*%
%ADD23RoundRect,0.100000X-0.637500X-0.100000X0.637500X-0.100000X0.637500X0.100000X-0.637500X0.100000X0*%
%TD*%
%TA.AperFunction,ViaPad*%
%ADD24C,0.700000*%
%TD*%
%TA.AperFunction,Conductor*%
%ADD25C,0.600000*%
%TD*%
%TA.AperFunction,Conductor*%
%ADD26C,0.400000*%
%TD*%
%TA.AperFunction,Conductor*%
%ADD27C,0.250000*%
%TD*%
G04 APERTURE END LIST*
D10*
%TO.P,U1,1,VIN*%
%TO.N,/5V_IN*%
X119247500Y-57083999D03*
%TO.P,U1,2,GND*%
%TO.N,GND*%
X119247500Y-56134000D03*
%TO.P,U1,3,EN*%
%TO.N,/5V_IN*%
X119247500Y-55184001D03*
%TO.P,U1,4,NC*%
%TO.N,unconnected-(U1-NC-Pad4)*%
X116972500Y-55184001D03*
%TO.P,U1,5,VOUT*%
%TO.N,/MCU_VCC*%
X116972500Y-57083999D03*
%TD*%
D11*
%TO.P,C3,1*%
%TO.N,/MCU_VCC*%
X116949999Y-78300000D03*
%TO.P,C3,2*%
%TO.N,GND*%
X115050001Y-78300000D03*
%TD*%
D12*
%TO.P,SW1,1,1*%
%TO.N,/NRST*%
X116010000Y-68072000D03*
%TO.P,SW1,2,2*%
%TO.N,GND*%
X120210000Y-68072000D03*
%TD*%
D13*
%TO.P,R3,1*%
%TO.N,/PD3*%
X121412000Y-60405000D03*
%TO.P,R3,2*%
%TO.N,/PD2*%
X121412000Y-62230000D03*
%TD*%
D14*
%TO.P,R1,1*%
%TO.N,Net-(J1-CC1)*%
X124600000Y-49215000D03*
%TO.P,R1,2*%
%TO.N,GND*%
X124600000Y-47390000D03*
%TD*%
%TO.P,R2,1*%
%TO.N,Net-(J1-CC2)*%
X111600000Y-49215000D03*
%TO.P,R2,2*%
%TO.N,GND*%
X111600000Y-47390000D03*
%TD*%
D15*
%TO.P,J1,A1,GND*%
%TO.N,GND*%
X121310000Y-52400000D03*
%TO.P,J1,A4,VBUS*%
%TO.N,/5V_IN*%
X120510000Y-52400000D03*
D16*
%TO.P,J1,A5,CC1*%
%TO.N,Net-(J1-CC1)*%
X119360000Y-52400000D03*
%TO.P,J1,A6,D+*%
%TO.N,Net-(JP3-A)*%
X118360000Y-52400000D03*
%TO.P,J1,A7,D-*%
%TO.N,Net-(JP2-A)*%
X117860000Y-52400000D03*
%TO.P,J1,A8,SBU1*%
%TO.N,unconnected-(J1-SBU1-PadA8)*%
X116860000Y-52400000D03*
D15*
%TO.P,J1,A9,VBUS*%
%TO.N,/5V_IN*%
X115710000Y-52400000D03*
%TO.P,J1,A12,GND*%
%TO.N,GND*%
X114910000Y-52400000D03*
%TO.P,J1,B1,GND*%
X114910000Y-52400000D03*
%TO.P,J1,B4,VBUS*%
%TO.N,/5V_IN*%
X115710000Y-52400000D03*
D16*
%TO.P,J1,B5,CC2*%
%TO.N,Net-(J1-CC2)*%
X116360000Y-52400000D03*
%TO.P,J1,B6,D+*%
%TO.N,Net-(JP3-A)*%
X117360000Y-52400000D03*
%TO.P,J1,B7,D-*%
%TO.N,Net-(JP2-A)*%
X118860000Y-52400000D03*
%TO.P,J1,B8,SBU2*%
%TO.N,unconnected-(J1-SBU2-PadB8)*%
X119860000Y-52400000D03*
D15*
%TO.P,J1,B9,VBUS*%
%TO.N,/5V_IN*%
X120510000Y-52400000D03*
%TO.P,J1,B12,GND*%
%TO.N,GND*%
X121310000Y-52400000D03*
D17*
%TO.P,J1,S1,SHIELD*%
X122430000Y-51800000D03*
D18*
X122430000Y-47600000D03*
D17*
X113790000Y-51800000D03*
D18*
X113790000Y-47600000D03*
%TD*%
D19*
%TO.P,C1,1*%
%TO.N,/5V_IN*%
X121210000Y-55184001D03*
%TO.P,C1,2*%
%TO.N,GND*%
X121210000Y-57083999D03*
%TD*%
D20*
%TO.P,J3,1,Pin_1*%
%TO.N,/5V_IN*%
X124460000Y-55880000D03*
D21*
%TO.P,J3,2,Pin_2*%
%TO.N,/PD3*%
X124460000Y-58420000D03*
%TO.P,J3,3,Pin_3*%
%TO.N,/PD2*%
X124460000Y-60960000D03*
%TO.P,J3,4,Pin_4*%
%TO.N,/PD1*%
X124460000Y-63500000D03*
%TO.P,J3,5,Pin_5*%
%TO.N,/MISO*%
X124460000Y-66040000D03*
%TO.P,J3,6,Pin_6*%
%TO.N,/MOSI*%
X124460000Y-68580000D03*
%TO.P,J3,7,Pin_7*%
%TO.N,/PC5*%
X124460000Y-71120000D03*
%TO.P,J3,8,Pin_8*%
%TO.N,/MCO*%
X124460000Y-73660000D03*
%TO.P,J3,9,Pin_9*%
%TO.N,/PC3*%
X124460000Y-76200000D03*
%TO.P,J3,10,Pin_10*%
%TO.N,/PC2*%
X124460000Y-78740000D03*
%TO.P,J3,11,Pin_11*%
%TO.N,/PC1*%
X124460000Y-81280000D03*
%TD*%
D20*
%TO.P,J4,1,Pin_1*%
%TO.N,GND*%
X120635000Y-85115000D03*
D21*
%TO.P,J4,2,Pin_2*%
%TO.N,/PD1*%
X118095000Y-85115000D03*
%TO.P,J4,3,Pin_3*%
%TO.N,/MCU_VCC*%
X115555001Y-85115000D03*
%TD*%
D22*
%TO.P,C2,1*%
%TO.N,/MCU_VCC*%
X115010000Y-57083999D03*
%TO.P,C2,2*%
%TO.N,GND*%
X115010000Y-55184001D03*
%TD*%
D21*
%TO.P,J2,11,Pin_11*%
%TO.N,GND*%
X111760000Y-81280000D03*
%TO.P,J2,10,Pin_10*%
%TO.N,/PC0*%
X111760000Y-78740000D03*
%TO.P,J2,9,Pin_9*%
%TO.N,/PD0*%
X111760000Y-76200000D03*
%TO.P,J2,8,Pin_8*%
%TO.N,/OSCO*%
X111760000Y-73660000D03*
%TO.P,J2,7,Pin_7*%
%TO.N,/OSCI*%
X111760000Y-71120000D03*
%TO.P,J2,6,Pin_6*%
%TO.N,/NRST*%
X111760000Y-68580000D03*
%TO.P,J2,5,Pin_5*%
%TO.N,/PD6*%
X111760000Y-66040000D03*
%TO.P,J2,4,Pin_4*%
%TO.N,/PD5*%
X111760000Y-63500000D03*
%TO.P,J2,3,Pin_3*%
%TO.N,/PD4*%
X111760000Y-60960000D03*
%TO.P,J2,2,Pin_2*%
%TO.N,GND*%
X111760000Y-58420000D03*
D20*
%TO.P,J2,1,Pin_1*%
%TO.N,/MCU_VCC*%
X111760000Y-55880000D03*
%TD*%
D23*
%TO.P,U2,1,PD4*%
%TO.N,/PD4*%
X115247500Y-70735000D03*
%TO.P,U2,2,PD5*%
%TO.N,/PD5*%
X115247500Y-71385000D03*
%TO.P,U2,3,PD6*%
%TO.N,/PD6*%
X115247500Y-72035000D03*
%TO.P,U2,4,PD7*%
%TO.N,/NRST*%
X115247500Y-72685000D03*
%TO.P,U2,5,PA1*%
%TO.N,/OSCI*%
X115247500Y-73335000D03*
%TO.P,U2,6,PA2*%
%TO.N,/OSCO*%
X115247500Y-73985000D03*
%TO.P,U2,7,VSS*%
%TO.N,GND*%
X115247500Y-74635000D03*
%TO.P,U2,8,PD0*%
%TO.N,/PD0*%
X115247500Y-75285000D03*
%TO.P,U2,9,VDD*%
%TO.N,/MCU_VCC*%
X115247500Y-75935000D03*
%TO.P,U2,10,PC0*%
%TO.N,/PC0*%
X115247500Y-76585000D03*
%TO.P,U2,11,PC1*%
%TO.N,/PC1*%
X120972500Y-76585000D03*
%TO.P,U2,12,PC2*%
%TO.N,/PC2*%
X120972500Y-75935000D03*
%TO.P,U2,13,PC3*%
%TO.N,/PC3*%
X120972500Y-75285000D03*
%TO.P,U2,14,PC4*%
%TO.N,/MCO*%
X120972500Y-74635000D03*
%TO.P,U2,15,PC5*%
%TO.N,/PC5*%
X120972500Y-73985000D03*
%TO.P,U2,16,PC6*%
%TO.N,/MOSI*%
X120972500Y-73335000D03*
%TO.P,U2,17,PC7*%
%TO.N,/MISO*%
X120972500Y-72685000D03*
%TO.P,U2,18,PD1*%
%TO.N,/PD1*%
X120972500Y-72035000D03*
%TO.P,U2,19,PD2*%
%TO.N,/PD2*%
X120972500Y-71385000D03*
%TO.P,U2,20,PD3*%
%TO.N,/PD3*%
X120972500Y-70735000D03*
%TD*%
D24*
%TO.N,GND*%
X123190000Y-57150000D03*
X123190000Y-62230000D03*
X119380000Y-83312000D03*
X116840000Y-83312000D03*
X119380000Y-75946000D03*
%TO.N,/5V_IN*%
X117094000Y-54102000D03*
%TO.N,GND*%
X124600000Y-46815000D03*
X111600000Y-46815000D03*
X114200000Y-78300000D03*
X120010000Y-56134000D03*
X121600000Y-53015000D03*
X113300000Y-74400000D03*
X116332000Y-74635000D03*
X114600000Y-53015000D03*
%TO.N,/NRST*%
X116010000Y-69810000D03*
%TO.N,/MOSI*%
X119700000Y-74300000D03*
%TO.N,/MISO*%
X118950000Y-73350000D03*
%TO.N,Net-(JP2-A)*%
X119400000Y-48765001D03*
%TO.N,Net-(JP3-A)*%
X116800000Y-48765001D03*
%TD*%
D25*
%TO.N,/MCU_VCC*%
X117300000Y-57083999D02*
X117300000Y-76000000D01*
X117300000Y-76000000D02*
X117300000Y-77492893D01*
D26*
X115247500Y-75935000D02*
X117235000Y-75935000D01*
D25*
X117096445Y-77903555D02*
G75*
G03*
X116950005Y-78257108I353555J-353545D01*
G01*
X117300000Y-77492893D02*
G75*
G02*
X117153556Y-77846450I-500000J-7D01*
G01*
X117153553Y-77846447D02*
X117096445Y-77903555D01*
X116949999Y-78257108D02*
X116949999Y-78300000D01*
D26*
%TO.N,GND*%
X116332000Y-74635000D02*
X115247500Y-74635000D01*
%TO.N,/PD1*%
X122299670Y-71703736D02*
X122410191Y-71593213D01*
D25*
%TO.N,/MCU_VCC*%
X113810683Y-57083999D02*
G75*
G02*
X112365307Y-56485299I17J2044099D01*
G01*
X115010000Y-57083999D02*
X113810683Y-57083999D01*
X112365303Y-56485303D02*
X111760000Y-55880000D01*
D26*
%TO.N,/PD4*%
X113715841Y-62915841D02*
G75*
G02*
X114700001Y-65291811I-2375941J-2375959D01*
G01*
%TO.N,/PD6*%
X113300000Y-68423617D02*
G75*
G03*
X112703487Y-66983459I-2036700J17D01*
G01*
X113300000Y-70683890D02*
G75*
G03*
X113582499Y-71365907I964500J-10D01*
G01*
X114536495Y-72035000D02*
G75*
G02*
X114050144Y-71833540I5J687800D01*
G01*
%TO.N,/PD5*%
X113545819Y-65285819D02*
G75*
G02*
X113999985Y-66382309I-1096519J-1096481D01*
G01*
X114146446Y-71081324D02*
G75*
G02*
X114000020Y-70727771I353554J353524D01*
G01*
X114303675Y-71238553D02*
G75*
G03*
X114657229Y-71384980I353525J353553D01*
G01*
%TO.N,/NRST*%
X116191469Y-72538409D02*
G75*
G02*
X115837567Y-72684975I-353869J353909D01*
G01*
X116500000Y-71952631D02*
G75*
G02*
X116303934Y-72425900I-669300J31D01*
G01*
X116500000Y-70742371D02*
G75*
G03*
X116187188Y-69987208I-1068000J-29D01*
G01*
%TO.N,GND*%
X113388553Y-74488553D02*
G75*
G03*
X113742107Y-74634995I353547J353553D01*
G01*
%TO.N,/OSCO*%
X113719158Y-73743422D02*
G75*
G03*
X114302378Y-73985015I583242J583222D01*
G01*
X112475107Y-73152000D02*
G75*
G03*
X112121550Y-73298444I-7J-500000D01*
G01*
X112850506Y-73152000D02*
G75*
G02*
X113323767Y-73348033I-6J-669300D01*
G01*
%TO.N,/OSCI*%
X111906446Y-71706446D02*
G75*
G02*
X111760005Y-71352893I353554J353546D01*
G01*
X112381062Y-72181062D02*
G75*
G03*
X112909626Y-72399983I528538J528562D01*
G01*
X113377734Y-72553470D02*
G75*
G03*
X113007225Y-72399989I-370534J-370530D01*
G01*
X114529388Y-73335000D02*
G75*
G02*
X113897544Y-73073286I12J893600D01*
G01*
%TO.N,/OSCO*%
X115247500Y-73985000D02*
X114302378Y-73985000D01*
X113719158Y-73743422D02*
X113323768Y-73348032D01*
X112850506Y-73152000D02*
X112475107Y-73152000D01*
X112121553Y-73298447D02*
X111760000Y-73660000D01*
%TO.N,/PD0*%
X113115253Y-75285000D02*
G75*
G03*
X112363710Y-75596322I47J-1062900D01*
G01*
%TO.N,/PC0*%
X114509455Y-76585000D02*
G75*
G03*
X113494688Y-77005374I45J-1435100D01*
G01*
%TO.N,/MCU_VCC*%
X115555001Y-81098568D02*
G75*
G02*
X115875742Y-80324296I1094999J-32D01*
G01*
X116949999Y-78753506D02*
G75*
G02*
X116598911Y-79601063I-1198599J6D01*
G01*
%TO.N,/PC1*%
X121620764Y-76634414D02*
G75*
G03*
X121501468Y-76585020I-119264J-119286D01*
G01*
X123000000Y-79396002D02*
G75*
G03*
X123299817Y-80119807I1023600J2D01*
G01*
X123000000Y-78587047D02*
G75*
G03*
X122594570Y-77608174I-1384300J47D01*
G01*
%TO.N,/PC2*%
X121509035Y-75935000D02*
G75*
G02*
X121954298Y-76119468I-35J-629700D01*
G01*
%TO.N,/MISO*%
X119822107Y-72685000D02*
G75*
G03*
X119468551Y-72831443I-7J-500000D01*
G01*
%TO.N,/MOSI*%
X120018554Y-73481446D02*
G75*
G02*
X120372107Y-73335005I353546J-353554D01*
G01*
X119846447Y-73653553D02*
G75*
G03*
X119700005Y-74007107I353553J-353547D01*
G01*
%TO.N,/MCO*%
X123157893Y-74635000D02*
G75*
G03*
X123511450Y-74488556I7J500000D01*
G01*
%TO.N,/PC3*%
X123177893Y-75285000D02*
G75*
G02*
X123531450Y-75431444I7J-500000D01*
G01*
%TO.N,/PC5*%
X122800000Y-73061198D02*
G75*
G02*
X122560424Y-73639562I-817900J-2D01*
G01*
X121890738Y-73985000D02*
G75*
G03*
X122444261Y-73755685I-38J782800D01*
G01*
X123183312Y-72016688D02*
G75*
G03*
X122799987Y-72942084I925388J-925412D01*
G01*
%TO.N,/PD2*%
X122110000Y-70837771D02*
G75*
G02*
X121963568Y-71191338I-500000J-29D01*
G01*
X121562771Y-71385000D02*
G75*
G03*
X121916339Y-71238567I29J500000D01*
G01*
%TO.N,/PD1*%
X122700000Y-66099440D02*
G75*
G02*
X123293550Y-64666404I2026600J40D01*
G01*
X119637753Y-72035000D02*
G75*
G03*
X118897884Y-72341483I47J-1046400D01*
G01*
X118095000Y-73613445D02*
G75*
G02*
X118426690Y-72812613I1132500J45D01*
G01*
X122410191Y-71593213D02*
G75*
G03*
X122710011Y-70869401I-723791J723813D01*
G01*
X122299670Y-71703736D02*
G75*
G02*
X121499945Y-72035022I-799770J799736D01*
G01*
%TO.N,/PD2*%
X121751644Y-62569644D02*
G75*
G02*
X122100024Y-63410650I-841044J-841056D01*
G01*
X123441256Y-60960000D02*
G75*
G03*
X122585588Y-61314472I44J-1210100D01*
G01*
%TO.N,/PD3*%
X123433554Y-58566446D02*
G75*
G02*
X123787107Y-58420005I353546J-353554D01*
G01*
X120458172Y-61141828D02*
G75*
G03*
X120200021Y-61765110I623328J-623272D01*
G01*
X121402107Y-60405000D02*
G75*
G03*
X121048551Y-60551443I-7J-500000D01*
G01*
X120695536Y-63319536D02*
G75*
G02*
X120200006Y-62123206I1196364J1196336D01*
G01*
X120867243Y-63491243D02*
G75*
G02*
X121500023Y-65018854I-1527643J-1527657D01*
G01*
D25*
%TO.N,/5V_IN*%
X118085000Y-56293578D02*
G75*
G03*
X118290354Y-56789360I701100J-22D01*
G01*
X118271096Y-55524510D02*
G75*
G03*
X118084998Y-55973785I449304J-449290D01*
G01*
X118818712Y-55184001D02*
G75*
G03*
X118465152Y-55330442I-12J-499999D01*
G01*
X118792108Y-57083999D02*
G75*
G02*
X118438551Y-56937557I-8J499999D01*
G01*
X116097785Y-53907785D02*
G75*
G03*
X116566662Y-54102025I468915J468885D01*
G01*
X115710000Y-53261999D02*
G75*
G03*
X115892428Y-53702442I622900J-1D01*
G01*
X117094000Y-54102000D02*
X116566662Y-54102000D01*
X116097785Y-53907785D02*
X115892435Y-53702435D01*
X117094000Y-54102000D02*
X120508000Y-54102000D01*
X115710000Y-53261999D02*
X115710000Y-52400000D01*
D27*
%TO.N,Net-(JP3-A)*%
X118254427Y-51529427D02*
G75*
G02*
X118360012Y-51784304I-254827J-254873D01*
G01*
X118254427Y-51529427D02*
G75*
G03*
X117978163Y-51415024I-276227J-276273D01*
G01*
%TO.N,Net-(JP2-A)*%
X118705545Y-53309455D02*
G75*
G02*
X118450736Y-53415012I-254845J254855D01*
G01*
X117996027Y-53311027D02*
G75*
G03*
X118247040Y-53414968I250973J251027D01*
G01*
X117918579Y-53233579D02*
G75*
G02*
X117860030Y-53092157I141421J141379D01*
G01*
X118860000Y-53072157D02*
G75*
G02*
X118801443Y-53213599I-200000J-43D01*
G01*
%TO.N,Net-(JP3-A)*%
X116800000Y-48765001D02*
G75*
G02*
X117360004Y-50116903I-1351800J-1351899D01*
G01*
%TO.N,Net-(J1-CC2)*%
X115812803Y-49927805D02*
G75*
G02*
X116359975Y-51248831I-1321003J-1320995D01*
G01*
X115812803Y-49927805D02*
G75*
G03*
X114091887Y-49215011I-1720903J-1720995D01*
G01*
%TO.N,Net-(J1-CC1)*%
X121440153Y-49215000D02*
G75*
G03*
X120005947Y-49809103I47J-2028300D01*
G01*
X119360000Y-51368392D02*
G75*
G02*
X120005931Y-49809087I2205100J-8D01*
G01*
%TO.N,Net-(JP2-A)*%
X119400000Y-48765001D02*
G75*
G03*
X118860003Y-50068595I1303500J-1303599D01*
G01*
D25*
%TO.N,/5V_IN*%
X120510000Y-55200000D02*
X120510000Y-52400000D01*
X119247500Y-55184001D02*
X118818712Y-55184001D01*
X118465158Y-55330448D02*
X118271096Y-55524510D01*
X118085000Y-55973785D02*
X118085000Y-56293578D01*
X118290358Y-56789356D02*
X118438555Y-56937553D01*
X118792108Y-57083999D02*
X119247500Y-57083999D01*
X119247500Y-55184001D02*
X123764001Y-55184001D01*
X123764001Y-55184001D02*
X124460000Y-55880000D01*
D26*
%TO.N,GND*%
X121310000Y-52400000D02*
X121310000Y-52725000D01*
X115247500Y-74635000D02*
X113742107Y-74635000D01*
X113388553Y-74488553D02*
X113300000Y-74400000D01*
X114910000Y-52400000D02*
X114910000Y-52705000D01*
X120010000Y-56134000D02*
X120959999Y-57083999D01*
D27*
X124600000Y-47390000D02*
X124600000Y-46815000D01*
D26*
X121310000Y-52725000D02*
X121600000Y-53015000D01*
X119247500Y-56134000D02*
X120010000Y-56134000D01*
X114910000Y-52705000D02*
X114600000Y-53015000D01*
X120959999Y-57083999D02*
X121210000Y-57083999D01*
D27*
X111600000Y-47390000D02*
X111600000Y-46815000D01*
D26*
X115050001Y-78300000D02*
X114200000Y-78300000D01*
%TO.N,/PC0*%
X115247500Y-76585000D02*
X114509455Y-76585000D01*
X113494657Y-77005343D02*
X111760000Y-78740000D01*
%TO.N,/PD0*%
X115247500Y-75285000D02*
X113115253Y-75285000D01*
X112363694Y-75596306D02*
X111760000Y-76200000D01*
%TO.N,/OSCI*%
X115247500Y-73335000D02*
X114529388Y-73335000D01*
X113897547Y-73073283D02*
X113377734Y-72553470D01*
X112381062Y-72181062D02*
X111906446Y-71706446D01*
X111760000Y-71352893D02*
X111760000Y-71120000D01*
X113007225Y-72400000D02*
X112909626Y-72400000D01*
%TO.N,/NRST*%
X116500000Y-70742371D02*
X116500000Y-71952631D01*
X116010000Y-69810000D02*
X116010000Y-68072000D01*
X116303956Y-72425922D02*
X116191469Y-72538409D01*
X116010000Y-69810000D02*
X116187198Y-69987198D01*
X115837567Y-72685000D02*
X115247500Y-72685000D01*
%TO.N,/PD6*%
X115247500Y-72035000D02*
X114536495Y-72035000D01*
X113300000Y-70683890D02*
X113300000Y-68423617D01*
X112703473Y-66983473D02*
X111760000Y-66040000D01*
X114050139Y-71833545D02*
X113582500Y-71365906D01*
%TO.N,/PD5*%
X114303675Y-71238553D02*
X114146446Y-71081324D01*
X115247500Y-71385000D02*
X114657229Y-71385000D01*
X113545819Y-65285819D02*
X111760000Y-63500000D01*
X114000000Y-70727771D02*
X114000000Y-66382309D01*
%TO.N,/PC3*%
X120972500Y-75285000D02*
X123177893Y-75285000D01*
X123531447Y-75431447D02*
X124300000Y-76200000D01*
X124300000Y-76200000D02*
X124460000Y-76200000D01*
%TO.N,/PD1*%
X122710000Y-70869401D02*
X122710000Y-70176594D01*
X120972500Y-72035000D02*
X121499945Y-72035000D01*
X118095000Y-73613445D02*
X118095000Y-85115000D01*
X120972500Y-72035000D02*
X119637753Y-72035000D01*
X122710000Y-70176594D02*
X122700000Y-70166594D01*
X122700000Y-70166594D02*
X122700000Y-66099440D01*
X118897870Y-72341469D02*
X118426708Y-72812631D01*
X123293573Y-64666427D02*
X124460000Y-63500000D01*
%TO.N,/MOSI*%
X119846447Y-73653553D02*
X120018554Y-73481446D01*
X119700000Y-74300000D02*
X119700000Y-74007107D01*
X120372107Y-73335000D02*
X120972500Y-73335000D01*
%TO.N,/MCO*%
X120972500Y-74635000D02*
X123157893Y-74635000D01*
X124340000Y-73660000D02*
X124460000Y-73660000D01*
X123511447Y-74488553D02*
X124340000Y-73660000D01*
%TO.N,/PC5*%
X123183312Y-72016688D02*
X124080000Y-71120000D01*
X120972500Y-73985000D02*
X121890738Y-73985000D01*
X124080000Y-71120000D02*
X124460000Y-71120000D01*
X122800000Y-73061198D02*
X122800000Y-72942084D01*
X122444288Y-73755712D02*
X122560431Y-73639569D01*
%TO.N,/PD3*%
X120867243Y-63491243D02*
X120695536Y-63319536D01*
X121595000Y-60405000D02*
X123433554Y-58566446D01*
X123787107Y-58420000D02*
X124460000Y-58420000D01*
X121402107Y-60405000D02*
X121412000Y-60405000D01*
X120972500Y-70735000D02*
X121465000Y-70735000D01*
X121500000Y-70700000D02*
X121500000Y-65018854D01*
X120458172Y-61141828D02*
X121048554Y-60551446D01*
X121465000Y-70735000D02*
X121500000Y-70700000D01*
X120200000Y-62123206D02*
X120200000Y-61765110D01*
X121412000Y-60405000D02*
X121595000Y-60405000D01*
%TO.N,/PC2*%
X120972500Y-75935000D02*
X121509035Y-75935000D01*
X124460000Y-78625122D02*
X124460000Y-78740000D01*
X121954322Y-76119444D02*
X124460000Y-78625122D01*
%TO.N,/MISO*%
X119822107Y-72685000D02*
X120972500Y-72685000D01*
X118950000Y-73350000D02*
X119468554Y-72831446D01*
%TO.N,/PC1*%
X123000000Y-78587047D02*
X123000000Y-79396002D01*
X123299812Y-80119812D02*
X124460000Y-81280000D01*
X121620764Y-76634414D02*
X122594547Y-77608197D01*
X120972500Y-76585000D02*
X121501468Y-76585000D01*
%TO.N,/PD2*%
X120972500Y-71385000D02*
X121562771Y-71385000D01*
X122110000Y-70837771D02*
X122110000Y-70425122D01*
X124460000Y-60960000D02*
X123441256Y-60960000D01*
X121670000Y-62230000D02*
X121412000Y-62230000D01*
X121751644Y-62569644D02*
X121412000Y-62230000D01*
X122110000Y-70425122D02*
X122100000Y-70415122D01*
X121916325Y-71238553D02*
X121963554Y-71191324D01*
X124102500Y-60602500D02*
X124460000Y-60960000D01*
X122100000Y-70415122D02*
X122100000Y-63410650D01*
X122585558Y-61314442D02*
X121670000Y-62230000D01*
X124460000Y-60960000D02*
X123952000Y-60960000D01*
%TO.N,/5V_IN*%
X121209999Y-55184000D02*
X121210000Y-55184001D01*
%TO.N,/MCU_VCC*%
X115010001Y-57084000D02*
X115010000Y-57083999D01*
X116949999Y-78300000D02*
X116949999Y-78753506D01*
D27*
X115010001Y-56783999D02*
X115010000Y-56783998D01*
D26*
X115555001Y-81098568D02*
X115555001Y-85115000D01*
D27*
X115010001Y-57084000D02*
X115010001Y-56783999D01*
D25*
X116972500Y-57083999D02*
X115010001Y-57084000D01*
D26*
X116598924Y-79601076D02*
X115875723Y-80324277D01*
D27*
%TO.N,Net-(JP2-A)*%
X118860000Y-53072157D02*
X118860000Y-52400000D01*
X117918579Y-53233579D02*
X117996027Y-53311027D01*
X118705545Y-53309455D02*
X118801422Y-53213578D01*
X118860000Y-52400000D02*
X118860000Y-50068595D01*
X118247040Y-53415000D02*
X118450736Y-53415000D01*
X117860000Y-52400000D02*
X117860000Y-53092157D01*
%TO.N,Net-(J1-CC1)*%
X119360000Y-52400000D02*
X119360000Y-51368392D01*
X121440153Y-49215000D02*
X124600000Y-49215000D01*
%TO.N,Net-(J1-CC2)*%
X116360000Y-51248831D02*
X116360000Y-52400000D01*
X111600000Y-49215000D02*
X114091887Y-49215000D01*
%TO.N,Net-(JP3-A)*%
X117360000Y-52400000D02*
X117360000Y-51415000D01*
X117360000Y-51415000D02*
X117978163Y-51415000D01*
X118360000Y-51784304D02*
X118360000Y-52400000D01*
X117360000Y-51415000D02*
X117360000Y-50116903D01*
D26*
%TO.N,/PD4*%
X113715841Y-62915841D02*
X111760000Y-60960000D01*
X115247500Y-70735000D02*
X114735000Y-70735000D01*
X114700000Y-70700000D02*
X114700000Y-65291811D01*
X114735000Y-70735000D02*
X114700000Y-70700000D01*
%TD*%
%TA.AperFunction,Conductor*%
%TO.N,GND*%
G36*
X125506922Y-45901279D02*
G01*
X125619518Y-45913966D01*
X125646583Y-45920143D01*
X125746927Y-45955255D01*
X125771941Y-45967301D01*
X125861955Y-46023860D01*
X125883662Y-46041172D01*
X125958827Y-46116337D01*
X125976140Y-46138046D01*
X126032697Y-46228056D01*
X126044745Y-46253074D01*
X126079855Y-46353414D01*
X126086033Y-46380484D01*
X126098720Y-46493077D01*
X126099500Y-46506961D01*
X126099500Y-85993038D01*
X126098720Y-86006922D01*
X126086033Y-86119515D01*
X126079855Y-86146585D01*
X126044745Y-86246925D01*
X126032697Y-86271943D01*
X125976140Y-86361953D01*
X125958827Y-86383662D01*
X125883662Y-86458827D01*
X125861953Y-86476140D01*
X125771943Y-86532697D01*
X125746925Y-86544745D01*
X125646585Y-86579855D01*
X125619516Y-86586033D01*
X125534855Y-86595572D01*
X125506921Y-86598720D01*
X125493039Y-86599500D01*
X110756961Y-86599500D01*
X110743077Y-86598720D01*
X110630484Y-86586033D01*
X110603414Y-86579855D01*
X110503074Y-86544745D01*
X110478056Y-86532697D01*
X110388046Y-86476140D01*
X110366337Y-86458827D01*
X110291172Y-86383662D01*
X110273859Y-86361953D01*
X110217302Y-86271943D01*
X110205254Y-86246925D01*
X110170144Y-86146585D01*
X110163966Y-86119514D01*
X110162206Y-86103897D01*
X110151280Y-86006921D01*
X110150500Y-85993038D01*
X110150500Y-81129999D01*
X110669186Y-81129999D01*
X110669187Y-81130000D01*
X111282555Y-81130000D01*
X111260000Y-81214174D01*
X111260000Y-81345826D01*
X111282555Y-81430000D01*
X110669187Y-81430000D01*
X110674097Y-81482991D01*
X110729883Y-81679063D01*
X110729886Y-81679069D01*
X110820754Y-81861556D01*
X110943608Y-82024242D01*
X111094260Y-82161578D01*
X111267584Y-82268897D01*
X111457678Y-82342539D01*
X111610000Y-82371013D01*
X111610000Y-81757445D01*
X111694174Y-81780000D01*
X111825826Y-81780000D01*
X111910000Y-81757445D01*
X111910000Y-82371013D01*
X112062321Y-82342539D01*
X112252415Y-82268897D01*
X112425739Y-82161578D01*
X112576391Y-82024242D01*
X112699245Y-81861556D01*
X112790113Y-81679069D01*
X112790116Y-81679063D01*
X112845902Y-81482991D01*
X112850813Y-81430000D01*
X112237445Y-81430000D01*
X112260000Y-81345826D01*
X112260000Y-81214174D01*
X112237445Y-81130000D01*
X112850813Y-81130000D01*
X112850813Y-81129999D01*
X112845902Y-81077008D01*
X112790116Y-80880936D01*
X112790113Y-80880930D01*
X112699245Y-80698443D01*
X112576391Y-80535757D01*
X112425739Y-80398421D01*
X112252415Y-80291102D01*
X112062322Y-80217460D01*
X111910000Y-80188985D01*
X111910000Y-80802554D01*
X111825826Y-80780000D01*
X111694174Y-80780000D01*
X111610000Y-80802554D01*
X111610000Y-80188985D01*
X111457677Y-80217460D01*
X111267584Y-80291102D01*
X111094260Y-80398421D01*
X110943608Y-80535757D01*
X110820754Y-80698443D01*
X110729886Y-80880930D01*
X110729883Y-80880936D01*
X110674097Y-81077008D01*
X110669186Y-81129999D01*
X110150500Y-81129999D01*
X110150500Y-58269999D01*
X110669186Y-58269999D01*
X110669187Y-58270000D01*
X111282555Y-58270000D01*
X111260000Y-58354174D01*
X111260000Y-58485826D01*
X111282555Y-58570000D01*
X110669187Y-58570000D01*
X110674097Y-58622991D01*
X110729883Y-58819063D01*
X110729886Y-58819069D01*
X110820754Y-59001556D01*
X110943608Y-59164242D01*
X111094260Y-59301578D01*
X111267584Y-59408897D01*
X111457678Y-59482539D01*
X111610000Y-59511013D01*
X111610000Y-58897445D01*
X111694174Y-58920000D01*
X111825826Y-58920000D01*
X111910000Y-58897445D01*
X111910000Y-59511013D01*
X112062321Y-59482539D01*
X112252415Y-59408897D01*
X112425739Y-59301578D01*
X112576391Y-59164242D01*
X112699245Y-59001556D01*
X112790113Y-58819069D01*
X112790116Y-58819063D01*
X112845902Y-58622991D01*
X112850813Y-58570000D01*
X112237445Y-58570000D01*
X112260000Y-58485826D01*
X112260000Y-58354174D01*
X112237445Y-58270000D01*
X112850813Y-58270000D01*
X112850813Y-58269999D01*
X112845902Y-58217008D01*
X112790116Y-58020936D01*
X112790113Y-58020930D01*
X112699245Y-57838443D01*
X112576391Y-57675757D01*
X112425739Y-57538421D01*
X112252415Y-57431102D01*
X112062322Y-57357460D01*
X111910000Y-57328985D01*
X111910000Y-57942554D01*
X111825826Y-57920000D01*
X111694174Y-57920000D01*
X111610000Y-57942554D01*
X111610000Y-57328985D01*
X111457677Y-57357460D01*
X111267584Y-57431102D01*
X111094260Y-57538421D01*
X110943608Y-57675757D01*
X110820754Y-57838443D01*
X110729886Y-58020930D01*
X110729883Y-58020936D01*
X110674097Y-58217008D01*
X110669186Y-58269999D01*
X110150500Y-58269999D01*
X110150500Y-48898230D01*
X110699500Y-48898230D01*
X110699500Y-49531769D01*
X110702353Y-49562199D01*
X110702353Y-49562201D01*
X110740110Y-49670100D01*
X110747207Y-49690382D01*
X110827850Y-49799650D01*
X110937118Y-49880293D01*
X110958735Y-49887857D01*
X111065299Y-49925146D01*
X111095730Y-49928000D01*
X111095734Y-49928000D01*
X112104270Y-49928000D01*
X112134699Y-49925146D01*
X112134701Y-49925146D01*
X112201901Y-49901631D01*
X112262882Y-49880293D01*
X112372150Y-49799650D01*
X112452793Y-49690382D01*
X112476181Y-49623544D01*
X112516903Y-49566768D01*
X112581856Y-49541022D01*
X112593222Y-49540500D01*
X114040335Y-49540500D01*
X114088410Y-49540500D01*
X114095361Y-49540694D01*
X114320999Y-49553365D01*
X114334792Y-49554919D01*
X114554155Y-49592188D01*
X114567702Y-49595279D01*
X114781507Y-49656873D01*
X114794627Y-49661464D01*
X114881940Y-49697628D01*
X114987968Y-49741544D01*
X115000190Y-49746606D01*
X115012712Y-49752635D01*
X115097780Y-49799649D01*
X115207452Y-49860260D01*
X115219226Y-49867658D01*
X115393419Y-49991249D01*
X115400681Y-49996401D01*
X115411552Y-50005069D01*
X115565125Y-50142304D01*
X115576963Y-50152882D01*
X115587556Y-50163575D01*
X115710331Y-50303574D01*
X115720202Y-50316438D01*
X115823285Y-50470714D01*
X115831395Y-50484761D01*
X115913456Y-50651169D01*
X115919663Y-50666155D01*
X115979300Y-50841847D01*
X115983498Y-50857514D01*
X116019693Y-51039491D01*
X116021810Y-51055573D01*
X116025650Y-51114176D01*
X116010391Y-51182359D01*
X115960691Y-51231469D01*
X115892331Y-51245913D01*
X115827013Y-51221106D01*
X115785477Y-51164923D01*
X115782146Y-51154397D01*
X115756281Y-51057865D01*
X115680515Y-50926635D01*
X115573365Y-50819485D01*
X115490944Y-50771899D01*
X115442136Y-50743719D01*
X115368950Y-50724109D01*
X115295766Y-50704500D01*
X115144234Y-50704500D01*
X114997863Y-50743719D01*
X114866635Y-50819485D01*
X114866632Y-50819487D01*
X114759487Y-50926632D01*
X114759485Y-50926635D01*
X114715401Y-51002990D01*
X114664833Y-51051205D01*
X114596226Y-51064427D01*
X114531361Y-51038459D01*
X114493453Y-50988442D01*
X114454642Y-50894744D01*
X114454637Y-50894735D01*
X114372563Y-50771903D01*
X114372560Y-50771899D01*
X114268100Y-50667439D01*
X114268096Y-50667436D01*
X114145264Y-50585362D01*
X114145254Y-50585357D01*
X114008767Y-50528822D01*
X114008761Y-50528820D01*
X113940000Y-50515142D01*
X113940000Y-50990191D01*
X113905796Y-50970444D01*
X113829496Y-50950000D01*
X113750504Y-50950000D01*
X113674204Y-50970444D01*
X113640000Y-50990191D01*
X113640000Y-50515143D01*
X113639999Y-50515142D01*
X113571238Y-50528820D01*
X113571232Y-50528822D01*
X113434745Y-50585357D01*
X113434735Y-50585362D01*
X113311903Y-50667436D01*
X113311899Y-50667439D01*
X113207439Y-50771899D01*
X113207436Y-50771903D01*
X113125362Y-50894735D01*
X113125357Y-50894745D01*
X113068822Y-51031232D01*
X113068820Y-51031240D01*
X113040000Y-51176126D01*
X113040000Y-51650000D01*
X113490000Y-51650000D01*
X113490000Y-51950000D01*
X113040000Y-51950000D01*
X113040000Y-52423873D01*
X113068820Y-52568759D01*
X113068822Y-52568767D01*
X113125357Y-52705254D01*
X113125362Y-52705264D01*
X113207436Y-52828096D01*
X113207439Y-52828100D01*
X113311899Y-52932560D01*
X113311903Y-52932563D01*
X113434735Y-53014637D01*
X113434745Y-53014642D01*
X113571230Y-53071176D01*
X113571240Y-53071179D01*
X113639999Y-53084856D01*
X113640000Y-53084856D01*
X113640000Y-52609808D01*
X113674204Y-52629556D01*
X113750504Y-52650000D01*
X113829496Y-52650000D01*
X113905796Y-52629556D01*
X113940000Y-52609808D01*
X113940000Y-53084856D01*
X114008759Y-53071179D01*
X114008769Y-53071176D01*
X114145254Y-53014642D01*
X114145260Y-53014639D01*
X114175237Y-52994609D01*
X114241914Y-52973730D01*
X114309295Y-52992213D01*
X114355986Y-53044191D01*
X114365747Y-53073519D01*
X114374503Y-53117540D01*
X114374505Y-53117544D01*
X114429760Y-53200239D01*
X114512455Y-53255494D01*
X114512459Y-53255496D01*
X114585371Y-53269999D01*
X114585374Y-53270000D01*
X114760000Y-53270000D01*
X114760000Y-52550000D01*
X114441000Y-52550000D01*
X114373961Y-52530315D01*
X114328206Y-52477511D01*
X114317000Y-52426000D01*
X114317000Y-52374000D01*
X114336685Y-52306961D01*
X114389489Y-52261206D01*
X114441000Y-52250000D01*
X114760000Y-52250000D01*
X114760000Y-51893723D01*
X114779685Y-51826684D01*
X114832489Y-51780929D01*
X114901647Y-51770985D01*
X114945997Y-51786335D01*
X114997865Y-51816281D01*
X114997868Y-51816281D01*
X114998000Y-51816358D01*
X115046215Y-51866925D01*
X115060000Y-51923745D01*
X115060000Y-53270000D01*
X115090867Y-53270000D01*
X115157906Y-53289685D01*
X115203661Y-53342489D01*
X115213340Y-53374602D01*
X115237168Y-53525051D01*
X115291805Y-53693213D01*
X115372079Y-53850767D01*
X115372081Y-53850769D01*
X115475997Y-53993806D01*
X115476004Y-53993814D01*
X115486948Y-54004759D01*
X115486975Y-54004789D01*
X115491935Y-54009749D01*
X115538516Y-54056330D01*
X115585107Y-54102924D01*
X115590942Y-54108759D01*
X115590965Y-54108779D01*
X115715981Y-54233795D01*
X115749466Y-54295118D01*
X115744482Y-54364810D01*
X115702610Y-54420743D01*
X115637146Y-54445160D01*
X115599794Y-54442155D01*
X115592376Y-54440402D01*
X115532844Y-54434001D01*
X115160000Y-54434001D01*
X115160000Y-55934001D01*
X115532828Y-55934001D01*
X115532844Y-55934000D01*
X115592372Y-55927599D01*
X115592379Y-55927597D01*
X115727086Y-55877355D01*
X115727093Y-55877351D01*
X115842187Y-55791191D01*
X115842190Y-55791188D01*
X115928350Y-55676094D01*
X115928355Y-55676085D01*
X115963625Y-55581520D01*
X116005495Y-55525586D01*
X116070959Y-55501168D01*
X116139232Y-55516019D01*
X116167488Y-55537171D01*
X116253514Y-55623197D01*
X116253515Y-55623197D01*
X116253517Y-55623199D01*
X116358607Y-55674574D01*
X116392673Y-55679537D01*
X116426739Y-55684501D01*
X117470975Y-55684501D01*
X117538014Y-55704186D01*
X117583769Y-55756990D01*
X117593713Y-55826148D01*
X117593448Y-55827900D01*
X117584501Y-55884380D01*
X117584501Y-55902760D01*
X117584500Y-55902789D01*
X117584500Y-55973776D01*
X117584498Y-56048288D01*
X117584500Y-56048317D01*
X117584500Y-56365991D01*
X117584503Y-56366048D01*
X117584503Y-56388135D01*
X117585415Y-56393897D01*
X117592733Y-56440103D01*
X117583777Y-56509397D01*
X117538779Y-56562848D01*
X117472027Y-56583486D01*
X117470259Y-56583499D01*
X115922628Y-56583499D01*
X115855589Y-56563814D01*
X115822858Y-56533133D01*
X115820671Y-56530170D01*
X115807150Y-56511849D01*
X115697882Y-56431206D01*
X115697880Y-56431205D01*
X115569700Y-56386352D01*
X115539270Y-56383499D01*
X115539266Y-56383499D01*
X114480734Y-56383499D01*
X114480730Y-56383499D01*
X114450300Y-56386352D01*
X114450298Y-56386352D01*
X114322119Y-56431205D01*
X114322117Y-56431206D01*
X114212850Y-56511849D01*
X114197142Y-56533133D01*
X114141494Y-56575384D01*
X114097372Y-56583499D01*
X113814740Y-56583499D01*
X113806629Y-56583233D01*
X113617321Y-56570823D01*
X113601240Y-56568706D01*
X113419151Y-56532485D01*
X113403484Y-56528287D01*
X113227682Y-56468610D01*
X113212697Y-56462403D01*
X113046188Y-56380289D01*
X113032142Y-56372179D01*
X112877775Y-56269035D01*
X112864906Y-56259161D01*
X112828530Y-56227260D01*
X112791106Y-56168258D01*
X112791522Y-56098390D01*
X112791629Y-56098034D01*
X112795300Y-56085934D01*
X112815583Y-55880000D01*
X112795300Y-55674066D01*
X112736991Y-55481845D01*
X114035000Y-55481845D01*
X114041401Y-55541373D01*
X114041403Y-55541380D01*
X114091645Y-55676087D01*
X114091649Y-55676094D01*
X114177809Y-55791188D01*
X114177812Y-55791191D01*
X114292906Y-55877351D01*
X114292913Y-55877355D01*
X114427620Y-55927597D01*
X114427627Y-55927599D01*
X114487155Y-55934000D01*
X114487172Y-55934001D01*
X114860000Y-55934001D01*
X114860000Y-55334001D01*
X114035000Y-55334001D01*
X114035000Y-55481845D01*
X112736991Y-55481845D01*
X112735232Y-55476046D01*
X112637685Y-55293550D01*
X112585702Y-55230209D01*
X112506410Y-55133589D01*
X112385060Y-55034001D01*
X112346450Y-55002315D01*
X112163954Y-54904768D01*
X112102598Y-54886156D01*
X114035000Y-54886156D01*
X114035000Y-55034001D01*
X114860000Y-55034001D01*
X114860000Y-54434001D01*
X114487155Y-54434001D01*
X114427627Y-54440402D01*
X114427620Y-54440404D01*
X114292913Y-54490646D01*
X114292906Y-54490650D01*
X114177812Y-54576810D01*
X114177809Y-54576813D01*
X114091649Y-54691907D01*
X114091645Y-54691914D01*
X114041403Y-54826621D01*
X114041401Y-54826628D01*
X114035000Y-54886156D01*
X112102598Y-54886156D01*
X111965934Y-54844700D01*
X111965932Y-54844699D01*
X111965934Y-54844699D01*
X111760000Y-54824417D01*
X111554067Y-54844699D01*
X111356043Y-54904769D01*
X111303963Y-54932607D01*
X111173550Y-55002315D01*
X111173548Y-55002316D01*
X111173547Y-55002317D01*
X111013589Y-55133589D01*
X110882317Y-55293547D01*
X110784769Y-55476043D01*
X110724699Y-55674067D01*
X110704417Y-55880000D01*
X110724699Y-56085932D01*
X110754734Y-56184944D01*
X110784768Y-56283954D01*
X110882315Y-56466450D01*
X110882317Y-56466452D01*
X111013589Y-56626410D01*
X111110209Y-56705702D01*
X111173550Y-56757685D01*
X111356046Y-56855232D01*
X111554066Y-56915300D01*
X111554065Y-56915300D01*
X111572529Y-56917118D01*
X111760000Y-56935583D01*
X111965934Y-56915300D01*
X111988076Y-56908582D01*
X112057940Y-56907956D01*
X112109561Y-56938272D01*
X112109683Y-56938136D01*
X112109726Y-56938083D01*
X112109729Y-56938085D01*
X112109859Y-56937940D01*
X112111514Y-56939419D01*
X112111755Y-56939561D01*
X112112446Y-56940252D01*
X112335893Y-57118445D01*
X112488464Y-57214311D01*
X112572730Y-57267259D01*
X112577887Y-57270499D01*
X112835383Y-57394504D01*
X113105144Y-57488898D01*
X113383777Y-57552496D01*
X113383782Y-57552496D01*
X113383784Y-57552497D01*
X113476385Y-57562931D01*
X113667774Y-57584496D01*
X113667775Y-57584497D01*
X113667779Y-57584497D01*
X113737186Y-57584497D01*
X113737196Y-57584499D01*
X113810679Y-57584499D01*
X113876571Y-57584500D01*
X113876575Y-57584499D01*
X114097372Y-57584499D01*
X114164411Y-57604184D01*
X114197141Y-57634864D01*
X114212850Y-57656149D01*
X114322118Y-57736792D01*
X114364845Y-57751743D01*
X114450299Y-57781645D01*
X114480730Y-57784499D01*
X114480734Y-57784499D01*
X115539270Y-57784499D01*
X115569699Y-57781645D01*
X115569701Y-57781645D01*
X115633790Y-57759218D01*
X115697882Y-57736792D01*
X115807150Y-57656149D01*
X115822857Y-57634866D01*
X115878503Y-57592615D01*
X115922628Y-57584499D01*
X116675500Y-57584499D01*
X116742539Y-57604184D01*
X116788294Y-57656988D01*
X116799500Y-57708499D01*
X116799500Y-67030286D01*
X116779815Y-67097325D01*
X116727011Y-67143080D01*
X116657853Y-67153024D01*
X116594297Y-67123999D01*
X116565017Y-67086583D01*
X116538050Y-67033658D01*
X116538046Y-67033654D01*
X116538045Y-67033652D01*
X116448347Y-66943954D01*
X116448344Y-66943952D01*
X116448342Y-66943950D01*
X116371517Y-66904805D01*
X116335301Y-66886352D01*
X116241524Y-66871500D01*
X115778482Y-66871500D01*
X115697519Y-66884323D01*
X115684696Y-66886354D01*
X115571658Y-66943950D01*
X115571657Y-66943951D01*
X115571652Y-66943954D01*
X115481954Y-67033652D01*
X115481951Y-67033657D01*
X115481950Y-67033658D01*
X115468857Y-67059354D01*
X115424352Y-67146698D01*
X115409500Y-67240475D01*
X115409500Y-68903517D01*
X115420292Y-68971657D01*
X115424354Y-68997304D01*
X115481950Y-69110342D01*
X115571658Y-69200050D01*
X115571660Y-69200051D01*
X115573181Y-69201572D01*
X115606666Y-69262895D01*
X115609500Y-69289254D01*
X115609500Y-69385553D01*
X115589815Y-69452592D01*
X115583876Y-69461039D01*
X115529139Y-69532374D01*
X115529138Y-69532376D01*
X115473671Y-69666287D01*
X115473670Y-69666291D01*
X115454750Y-69809999D01*
X115454750Y-69810000D01*
X115473670Y-69953708D01*
X115473671Y-69953712D01*
X115529137Y-70087622D01*
X115529138Y-70087624D01*
X115529139Y-70087625D01*
X115565502Y-70135014D01*
X115590696Y-70200182D01*
X115576658Y-70268627D01*
X115527844Y-70318617D01*
X115467126Y-70334500D01*
X115224500Y-70334500D01*
X115157461Y-70314815D01*
X115111706Y-70262011D01*
X115100500Y-70210500D01*
X115100500Y-65212071D01*
X115100501Y-65127619D01*
X115071881Y-64800483D01*
X115014858Y-64477087D01*
X114953013Y-64246280D01*
X114929869Y-64159900D01*
X114929867Y-64159896D01*
X114929866Y-64159890D01*
X114817551Y-63851309D01*
X114810682Y-63836579D01*
X114678773Y-63553699D01*
X114678765Y-63553683D01*
X114596175Y-63410633D01*
X114514576Y-63269300D01*
X114326221Y-63000303D01*
X114326220Y-63000302D01*
X114326216Y-63000296D01*
X114115151Y-62748760D01*
X114115146Y-62748754D01*
X114115138Y-62748745D01*
X114115129Y-62748736D01*
X112786649Y-61420256D01*
X112753164Y-61358933D01*
X112755669Y-61296580D01*
X112795300Y-61165934D01*
X112815583Y-60960000D01*
X112795300Y-60754066D01*
X112735232Y-60556046D01*
X112637685Y-60373550D01*
X112539486Y-60253893D01*
X112506410Y-60213589D01*
X112346452Y-60082317D01*
X112346453Y-60082317D01*
X112346450Y-60082315D01*
X112163954Y-59984768D01*
X111965934Y-59924700D01*
X111965932Y-59924699D01*
X111965934Y-59924699D01*
X111760000Y-59904417D01*
X111554067Y-59924699D01*
X111356043Y-59984769D01*
X111245898Y-60043643D01*
X111173550Y-60082315D01*
X111173548Y-60082316D01*
X111173547Y-60082317D01*
X111013589Y-60213589D01*
X110882317Y-60373547D01*
X110784769Y-60556043D01*
X110724699Y-60754067D01*
X110704417Y-60960000D01*
X110724699Y-61165932D01*
X110753127Y-61259647D01*
X110784768Y-61363954D01*
X110882315Y-61546450D01*
X110882317Y-61546452D01*
X111013589Y-61706410D01*
X111110209Y-61785702D01*
X111173550Y-61837685D01*
X111356046Y-61935232D01*
X111554066Y-61995300D01*
X111554065Y-61995300D01*
X111572529Y-61997118D01*
X111760000Y-62015583D01*
X111965934Y-61995300D01*
X112096581Y-61955668D01*
X112166447Y-61955046D01*
X112220256Y-61986649D01*
X113430480Y-63196873D01*
X113434677Y-63201281D01*
X113623611Y-63409737D01*
X113631330Y-63419143D01*
X113797083Y-63642633D01*
X113803844Y-63652751D01*
X113946898Y-63891421D01*
X113952635Y-63902153D01*
X113980116Y-63960256D01*
X114068065Y-64146209D01*
X114071609Y-64153701D01*
X114076266Y-64164944D01*
X114170010Y-64426943D01*
X114173542Y-64438588D01*
X114241152Y-64708505D01*
X114243526Y-64720440D01*
X114284354Y-64995687D01*
X114285547Y-65007797D01*
X114295582Y-65212071D01*
X114279210Y-65279995D01*
X114228715Y-65328286D01*
X114160127Y-65341611D01*
X114095224Y-65315739D01*
X114073354Y-65293639D01*
X113919454Y-65093064D01*
X113919444Y-65093053D01*
X113873372Y-65046981D01*
X113873360Y-65046967D01*
X112786649Y-63960256D01*
X112753164Y-63898933D01*
X112755669Y-63836580D01*
X112795300Y-63705934D01*
X112815583Y-63500000D01*
X112795300Y-63294066D01*
X112735232Y-63096046D01*
X112637685Y-62913550D01*
X112585702Y-62850209D01*
X112506410Y-62753589D01*
X112346452Y-62622317D01*
X112346453Y-62622317D01*
X112346450Y-62622315D01*
X112163954Y-62524768D01*
X111965934Y-62464700D01*
X111965932Y-62464699D01*
X111965934Y-62464699D01*
X111760000Y-62444417D01*
X111554067Y-62464699D01*
X111356043Y-62524769D01*
X111314885Y-62546769D01*
X111173550Y-62622315D01*
X111173548Y-62622316D01*
X111173547Y-62622317D01*
X111013589Y-62753589D01*
X110882317Y-62913547D01*
X110784769Y-63096043D01*
X110724699Y-63294067D01*
X110704417Y-63500000D01*
X110724699Y-63705932D01*
X110724700Y-63705934D01*
X110784768Y-63903954D01*
X110882315Y-64086450D01*
X110882317Y-64086452D01*
X111013589Y-64246410D01*
X111110209Y-64325702D01*
X111173550Y-64377685D01*
X111356046Y-64475232D01*
X111554066Y-64535300D01*
X111554065Y-64535300D01*
X111572529Y-64537118D01*
X111760000Y-64555583D01*
X111965934Y-64535300D01*
X112096581Y-64495668D01*
X112166447Y-64495046D01*
X112220256Y-64526649D01*
X113259171Y-65565564D01*
X113265782Y-65572715D01*
X113373494Y-65698834D01*
X113384930Y-65714576D01*
X113469026Y-65851813D01*
X113477859Y-65869149D01*
X113539461Y-66017872D01*
X113545473Y-66036377D01*
X113549530Y-66053274D01*
X113583047Y-66192889D01*
X113586091Y-66212106D01*
X113599118Y-66377650D01*
X113599500Y-66387365D01*
X113599500Y-67130341D01*
X113579815Y-67197380D01*
X113527011Y-67243135D01*
X113457853Y-67253079D01*
X113394297Y-67224054D01*
X113370505Y-67196312D01*
X113254120Y-67011081D01*
X113083452Y-66797063D01*
X113031024Y-66744634D01*
X113031007Y-66744614D01*
X112983751Y-66697358D01*
X112941639Y-66655244D01*
X112941616Y-66655223D01*
X112786649Y-66500256D01*
X112753164Y-66438933D01*
X112755669Y-66376580D01*
X112795300Y-66245934D01*
X112815583Y-66040000D01*
X112795300Y-65834066D01*
X112735232Y-65636046D01*
X112637685Y-65453550D01*
X112545820Y-65341611D01*
X112506410Y-65293589D01*
X112346452Y-65162317D01*
X112346453Y-65162317D01*
X112346450Y-65162315D01*
X112163954Y-65064768D01*
X111965934Y-65004700D01*
X111965932Y-65004699D01*
X111965934Y-65004699D01*
X111760000Y-64984417D01*
X111554067Y-65004699D01*
X111356043Y-65064769D01*
X111303108Y-65093064D01*
X111173550Y-65162315D01*
X111173548Y-65162316D01*
X111173547Y-65162317D01*
X111013589Y-65293589D01*
X110882317Y-65453547D01*
X110784769Y-65636043D01*
X110724699Y-65834067D01*
X110704417Y-66040000D01*
X110724699Y-66245932D01*
X110724700Y-66245934D01*
X110784768Y-66443954D01*
X110882315Y-66626450D01*
X110909488Y-66659561D01*
X111013589Y-66786410D01*
X111110209Y-66865702D01*
X111173550Y-66917685D01*
X111356046Y-67015232D01*
X111554066Y-67075300D01*
X111554065Y-67075300D01*
X111572529Y-67077118D01*
X111760000Y-67095583D01*
X111965934Y-67075300D01*
X112096581Y-67035668D01*
X112166447Y-67035046D01*
X112220256Y-67066649D01*
X112417396Y-67263789D01*
X112422945Y-67269713D01*
X112556026Y-67421468D01*
X112565899Y-67434336D01*
X112675767Y-67598770D01*
X112683876Y-67612815D01*
X112747136Y-67741097D01*
X112759131Y-67809929D01*
X112732009Y-67874319D01*
X112674380Y-67913825D01*
X112604541Y-67915902D01*
X112544666Y-67879892D01*
X112540070Y-67874604D01*
X112506410Y-67833590D01*
X112477579Y-67809929D01*
X112346450Y-67702315D01*
X112163954Y-67604768D01*
X111965934Y-67544700D01*
X111965932Y-67544699D01*
X111965934Y-67544699D01*
X111760000Y-67524417D01*
X111554067Y-67544699D01*
X111356043Y-67604769D01*
X111245898Y-67663643D01*
X111173550Y-67702315D01*
X111173548Y-67702316D01*
X111173547Y-67702317D01*
X111013589Y-67833589D01*
X110882317Y-67993547D01*
X110784769Y-68176043D01*
X110724699Y-68374067D01*
X110704417Y-68580000D01*
X110724699Y-68785932D01*
X110724700Y-68785934D01*
X110784768Y-68983954D01*
X110882315Y-69166450D01*
X110882317Y-69166452D01*
X111013589Y-69326410D01*
X111110209Y-69405702D01*
X111173550Y-69457685D01*
X111356046Y-69555232D01*
X111554066Y-69615300D01*
X111554065Y-69615300D01*
X111572529Y-69617118D01*
X111760000Y-69635583D01*
X111965934Y-69615300D01*
X112163954Y-69555232D01*
X112346450Y-69457685D01*
X112506410Y-69326410D01*
X112637685Y-69166450D01*
X112666143Y-69113208D01*
X112715105Y-69063366D01*
X112783242Y-69047906D01*
X112848922Y-69071738D01*
X112891291Y-69127296D01*
X112899500Y-69171664D01*
X112899500Y-70528335D01*
X112879815Y-70595374D01*
X112827011Y-70641129D01*
X112757853Y-70651073D01*
X112694297Y-70622048D01*
X112666142Y-70586789D01*
X112654500Y-70565009D01*
X112637685Y-70533550D01*
X112579158Y-70462234D01*
X112506410Y-70373589D01*
X112346452Y-70242317D01*
X112346453Y-70242317D01*
X112346450Y-70242315D01*
X112163954Y-70144768D01*
X111965934Y-70084700D01*
X111965932Y-70084699D01*
X111965934Y-70084699D01*
X111760000Y-70064417D01*
X111554067Y-70084699D01*
X111356043Y-70144769D01*
X111252375Y-70200182D01*
X111173550Y-70242315D01*
X111173548Y-70242316D01*
X111173547Y-70242317D01*
X111013589Y-70373589D01*
X110882317Y-70533547D01*
X110882315Y-70533550D01*
X110849269Y-70595374D01*
X110784769Y-70716043D01*
X110724699Y-70914067D01*
X110704417Y-71120000D01*
X110724699Y-71325932D01*
X110724700Y-71325934D01*
X110784768Y-71523954D01*
X110882315Y-71706450D01*
X110885315Y-71710105D01*
X111013589Y-71866410D01*
X111058052Y-71902899D01*
X111173550Y-71997685D01*
X111356046Y-72095232D01*
X111554066Y-72155300D01*
X111554065Y-72155300D01*
X111634416Y-72163213D01*
X111760000Y-72175583D01*
X111760000Y-72175582D01*
X111766063Y-72176180D01*
X111765888Y-72177949D01*
X111824867Y-72195268D01*
X111845509Y-72211902D01*
X112045196Y-72411589D01*
X112078681Y-72472912D01*
X112073697Y-72542604D01*
X112031825Y-72598537D01*
X111966361Y-72622954D01*
X111945361Y-72622673D01*
X111760000Y-72604417D01*
X111554067Y-72624699D01*
X111356043Y-72684769D01*
X111286684Y-72721843D01*
X111173550Y-72782315D01*
X111173548Y-72782316D01*
X111173547Y-72782317D01*
X111013589Y-72913589D01*
X110887475Y-73067262D01*
X110882315Y-73073550D01*
X110860349Y-73114646D01*
X110784769Y-73256043D01*
X110724699Y-73454067D01*
X110704417Y-73660000D01*
X110724699Y-73865932D01*
X110730887Y-73886330D01*
X110784768Y-74063954D01*
X110882315Y-74246450D01*
X110882317Y-74246452D01*
X111013589Y-74406410D01*
X111109353Y-74485000D01*
X111173550Y-74537685D01*
X111356046Y-74635232D01*
X111554066Y-74695300D01*
X111554065Y-74695300D01*
X111572529Y-74697118D01*
X111760000Y-74715583D01*
X111965934Y-74695300D01*
X112163954Y-74635232D01*
X112346450Y-74537685D01*
X112506410Y-74406410D01*
X112637685Y-74246450D01*
X112735232Y-74063954D01*
X112795300Y-73865934D01*
X112812156Y-73694791D01*
X112838316Y-73630008D01*
X112895350Y-73589649D01*
X112965150Y-73586532D01*
X113011042Y-73608572D01*
X113034144Y-73626299D01*
X113046329Y-73636986D01*
X113478958Y-74069616D01*
X113479123Y-74069760D01*
X113504154Y-74094792D01*
X113660182Y-74208158D01*
X113685710Y-74221166D01*
X113832027Y-74295722D01*
X114015445Y-74355322D01*
X114037455Y-74358808D01*
X114154381Y-74377331D01*
X114217513Y-74407261D01*
X114254443Y-74466573D01*
X114255070Y-74476473D01*
X114262445Y-74485000D01*
X116232553Y-74485000D01*
X116225087Y-74433751D01*
X116173785Y-74328810D01*
X116172857Y-74327510D01*
X116172137Y-74325439D01*
X116169273Y-74319580D01*
X116169980Y-74319233D01*
X116149922Y-74261512D01*
X116160338Y-74205373D01*
X116182585Y-74154991D01*
X116185500Y-74129865D01*
X116185499Y-73840136D01*
X116185497Y-73840117D01*
X116182586Y-73815012D01*
X116182585Y-73815008D01*
X116136257Y-73710086D01*
X116127185Y-73640808D01*
X116136257Y-73609913D01*
X116137204Y-73607766D01*
X116137206Y-73607765D01*
X116182585Y-73504991D01*
X116185500Y-73479865D01*
X116185499Y-73190136D01*
X116185497Y-73190117D01*
X116182586Y-73165013D01*
X116182585Y-73165011D01*
X116182585Y-73165009D01*
X116177665Y-73153867D01*
X116168595Y-73084592D01*
X116198419Y-73021407D01*
X116234813Y-72993296D01*
X116239697Y-72990808D01*
X116309768Y-72955110D01*
X116424506Y-72871758D01*
X116430962Y-72865301D01*
X116431001Y-72865269D01*
X116437379Y-72858890D01*
X116437382Y-72858889D01*
X116482596Y-72813674D01*
X116482602Y-72813671D01*
X116482601Y-72813670D01*
X116486532Y-72809739D01*
X116515369Y-72780906D01*
X116515369Y-72780904D01*
X116522420Y-72773855D01*
X116522449Y-72773821D01*
X116582614Y-72713656D01*
X116587836Y-72708436D01*
X116649165Y-72674963D01*
X116718856Y-72679961D01*
X116774781Y-72721843D01*
X116799186Y-72787312D01*
X116799500Y-72796134D01*
X116799500Y-75410500D01*
X116779815Y-75477539D01*
X116727011Y-75523294D01*
X116675500Y-75534500D01*
X116309500Y-75534500D01*
X116242461Y-75514815D01*
X116196706Y-75462011D01*
X116185500Y-75410500D01*
X116185499Y-75140143D01*
X116185499Y-75140136D01*
X116184151Y-75128512D01*
X116182586Y-75115012D01*
X116182585Y-75115011D01*
X116182585Y-75115009D01*
X116160339Y-75064628D01*
X116151268Y-74995352D01*
X116169561Y-74950560D01*
X116169274Y-74950420D01*
X116171369Y-74946134D01*
X116172860Y-74942484D01*
X116173791Y-74941179D01*
X116225087Y-74836251D01*
X116225088Y-74836248D01*
X116232555Y-74785000D01*
X114262446Y-74785000D01*
X114247868Y-74801854D01*
X114246457Y-74811804D01*
X114200799Y-74864692D01*
X114133796Y-74884500D01*
X113181470Y-74884500D01*
X113181442Y-74884498D01*
X113166616Y-74884498D01*
X113166541Y-74884476D01*
X113019326Y-74884481D01*
X113019319Y-74884482D01*
X112829140Y-74909527D01*
X112643850Y-74959181D01*
X112466627Y-75032594D01*
X112466623Y-75032596D01*
X112431200Y-75053049D01*
X112300501Y-75128512D01*
X112300500Y-75128513D01*
X112300491Y-75128519D01*
X112222443Y-75188408D01*
X112157274Y-75213602D01*
X112110962Y-75208693D01*
X112031391Y-75184556D01*
X111965934Y-75164700D01*
X111965932Y-75164699D01*
X111965934Y-75164699D01*
X111760000Y-75144417D01*
X111554067Y-75164699D01*
X111356043Y-75224769D01*
X111248595Y-75282202D01*
X111173550Y-75322315D01*
X111173548Y-75322316D01*
X111173547Y-75322317D01*
X111013589Y-75453589D01*
X110882317Y-75613547D01*
X110784769Y-75796043D01*
X110724699Y-75994067D01*
X110704417Y-76200000D01*
X110724699Y-76405932D01*
X110735075Y-76440136D01*
X110784768Y-76603954D01*
X110882315Y-76786450D01*
X110882317Y-76786452D01*
X111013589Y-76946410D01*
X111061688Y-76985883D01*
X111173550Y-77077685D01*
X111356046Y-77175232D01*
X111554066Y-77235300D01*
X111554065Y-77235300D01*
X111572529Y-77237118D01*
X111760000Y-77255583D01*
X111965934Y-77235300D01*
X112163954Y-77175232D01*
X112346450Y-77077685D01*
X112506410Y-76946410D01*
X112637685Y-76786450D01*
X112735232Y-76603954D01*
X112795300Y-76405934D01*
X112815583Y-76200000D01*
X112795300Y-75994066D01*
X112766730Y-75899886D01*
X112766108Y-75830020D01*
X112803356Y-75770907D01*
X112826927Y-75754541D01*
X112851022Y-75741661D01*
X112873462Y-75732365D01*
X112974365Y-75701754D01*
X112998198Y-75697013D01*
X113108979Y-75686098D01*
X113121138Y-75685500D01*
X114185500Y-75685500D01*
X114252539Y-75705185D01*
X114298294Y-75757989D01*
X114309500Y-75809500D01*
X114309501Y-76083444D01*
X114308432Y-76083444D01*
X114293662Y-76147104D01*
X114243581Y-76195824D01*
X114201849Y-76209122D01*
X114150559Y-76215876D01*
X114150556Y-76215876D01*
X114150554Y-76215877D01*
X114067196Y-76238215D01*
X113918117Y-76278167D01*
X113695817Y-76370256D01*
X113695805Y-76370262D01*
X113487425Y-76490581D01*
X113487420Y-76490585D01*
X113296526Y-76637075D01*
X113296522Y-76637078D01*
X113296522Y-76637079D01*
X113223602Y-76710004D01*
X112220255Y-77713350D01*
X112158932Y-77746835D01*
X112096579Y-77744330D01*
X112024961Y-77722605D01*
X111965934Y-77704700D01*
X111965932Y-77704699D01*
X111965934Y-77704699D01*
X111760000Y-77684417D01*
X111554067Y-77704699D01*
X111356043Y-77764769D01*
X111245898Y-77823643D01*
X111173550Y-77862315D01*
X111173548Y-77862316D01*
X111173547Y-77862317D01*
X111013589Y-77993589D01*
X110882317Y-78153547D01*
X110784769Y-78336043D01*
X110724699Y-78534067D01*
X110704417Y-78740000D01*
X110724699Y-78945932D01*
X110754734Y-79044944D01*
X110784768Y-79143954D01*
X110882315Y-79326450D01*
X110897238Y-79344634D01*
X111013589Y-79486410D01*
X111065793Y-79529252D01*
X111173550Y-79617685D01*
X111356046Y-79715232D01*
X111554066Y-79775300D01*
X111554065Y-79775300D01*
X111572529Y-79777118D01*
X111760000Y-79795583D01*
X111965934Y-79775300D01*
X112163954Y-79715232D01*
X112346450Y-79617685D01*
X112506410Y-79486410D01*
X112637685Y-79326450D01*
X112735232Y-79143954D01*
X112795300Y-78945934D01*
X112807423Y-78822844D01*
X114300001Y-78822844D01*
X114306402Y-78882372D01*
X114306404Y-78882379D01*
X114356646Y-79017086D01*
X114356650Y-79017093D01*
X114442810Y-79132187D01*
X114442813Y-79132190D01*
X114557907Y-79218350D01*
X114557914Y-79218354D01*
X114692621Y-79268596D01*
X114692628Y-79268598D01*
X114752156Y-79274999D01*
X114752173Y-79275000D01*
X114900001Y-79275000D01*
X115200001Y-79275000D01*
X115347829Y-79275000D01*
X115347845Y-79274999D01*
X115407373Y-79268598D01*
X115407380Y-79268596D01*
X115542087Y-79218354D01*
X115542094Y-79218350D01*
X115657188Y-79132190D01*
X115657191Y-79132187D01*
X115743351Y-79017093D01*
X115743355Y-79017086D01*
X115793597Y-78882379D01*
X115793599Y-78882372D01*
X115800000Y-78822844D01*
X115800001Y-78822827D01*
X115800001Y-78450000D01*
X115200001Y-78450000D01*
X115200001Y-79275000D01*
X114900001Y-79275000D01*
X114900001Y-78450000D01*
X114300001Y-78450000D01*
X114300001Y-78822844D01*
X112807423Y-78822844D01*
X112815583Y-78740000D01*
X112795325Y-78534320D01*
X112795300Y-78534065D01*
X112795299Y-78534063D01*
X112767635Y-78442866D01*
X112755668Y-78403418D01*
X112755045Y-78333553D01*
X112786646Y-78279745D01*
X113289236Y-77777155D01*
X114300001Y-77777155D01*
X114300001Y-78150000D01*
X114900001Y-78150000D01*
X115200001Y-78150000D01*
X115800001Y-78150000D01*
X115800001Y-77777172D01*
X115800000Y-77777155D01*
X115793599Y-77717627D01*
X115793597Y-77717620D01*
X115743355Y-77582913D01*
X115743351Y-77582906D01*
X115657191Y-77467812D01*
X115657188Y-77467809D01*
X115542094Y-77381649D01*
X115542087Y-77381645D01*
X115407380Y-77331403D01*
X115407373Y-77331401D01*
X115347845Y-77325000D01*
X115200001Y-77325000D01*
X115200001Y-78150000D01*
X114900001Y-78150000D01*
X114900001Y-77325000D01*
X114752156Y-77325000D01*
X114692628Y-77331401D01*
X114692621Y-77331403D01*
X114557914Y-77381645D01*
X114557907Y-77381649D01*
X114442813Y-77467809D01*
X114442810Y-77467812D01*
X114356650Y-77582906D01*
X114356646Y-77582913D01*
X114306404Y-77717620D01*
X114306402Y-77717627D01*
X114300001Y-77777155D01*
X113289236Y-77777155D01*
X113728239Y-77338152D01*
X113728251Y-77338143D01*
X113737146Y-77329246D01*
X113737149Y-77329246D01*
X113766692Y-77299701D01*
X113774415Y-77291976D01*
X113781540Y-77285389D01*
X113893910Y-77189408D01*
X113909626Y-77177989D01*
X114031441Y-77103334D01*
X114048752Y-77094513D01*
X114180737Y-77039837D01*
X114199217Y-77033832D01*
X114338136Y-77000476D01*
X114357332Y-76997435D01*
X114504058Y-76985883D01*
X114513791Y-76985500D01*
X115314661Y-76985500D01*
X115314669Y-76985499D01*
X115929856Y-76985499D01*
X115929864Y-76985499D01*
X115929879Y-76985497D01*
X115929882Y-76985497D01*
X115954987Y-76982586D01*
X115954988Y-76982585D01*
X115954991Y-76982585D01*
X116057765Y-76937206D01*
X116137206Y-76857765D01*
X116182585Y-76754991D01*
X116185500Y-76729865D01*
X116185499Y-76459499D01*
X116205183Y-76392461D01*
X116257987Y-76346706D01*
X116309499Y-76335500D01*
X116675500Y-76335500D01*
X116742539Y-76355185D01*
X116788294Y-76407989D01*
X116799500Y-76459500D01*
X116799500Y-77250500D01*
X116779815Y-77317539D01*
X116727011Y-77363294D01*
X116675500Y-77374500D01*
X116645729Y-77374500D01*
X116615299Y-77377353D01*
X116615297Y-77377353D01*
X116487118Y-77422206D01*
X116487116Y-77422207D01*
X116377849Y-77502850D01*
X116297206Y-77612117D01*
X116297205Y-77612119D01*
X116252352Y-77740298D01*
X116252352Y-77740300D01*
X116249499Y-77770730D01*
X116249499Y-78829269D01*
X116252352Y-78859699D01*
X116252352Y-78859701D01*
X116297205Y-78987880D01*
X116297208Y-78987886D01*
X116377937Y-79097270D01*
X116401908Y-79162899D01*
X116386592Y-79231069D01*
X116372455Y-79251437D01*
X116318743Y-79314322D01*
X116312137Y-79321468D01*
X116271908Y-79361698D01*
X116271907Y-79361699D01*
X115549730Y-80083875D01*
X115549476Y-80084164D01*
X115523248Y-80110391D01*
X115523240Y-80110400D01*
X115403894Y-80265924D01*
X115403894Y-80265925D01*
X115305868Y-80435701D01*
X115230841Y-80616815D01*
X115180098Y-80806170D01*
X115154503Y-81000536D01*
X115154502Y-81041429D01*
X115154501Y-81041463D01*
X115154501Y-81045841D01*
X115154501Y-81098556D01*
X115154501Y-81130000D01*
X115154500Y-81166126D01*
X115154501Y-81166139D01*
X115154501Y-84063599D01*
X115134816Y-84130638D01*
X115088954Y-84172957D01*
X114968551Y-84237315D01*
X114968549Y-84237316D01*
X114968548Y-84237317D01*
X114808590Y-84368589D01*
X114677318Y-84528547D01*
X114677316Y-84528550D01*
X114674701Y-84533443D01*
X114579770Y-84711043D01*
X114579769Y-84711045D01*
X114579769Y-84711046D01*
X114578286Y-84715936D01*
X114519700Y-84909067D01*
X114499418Y-85115000D01*
X114519700Y-85320932D01*
X114519701Y-85320934D01*
X114579769Y-85518954D01*
X114677316Y-85701450D01*
X114677318Y-85701452D01*
X114808590Y-85861410D01*
X114905210Y-85940702D01*
X114968551Y-85992685D01*
X115151047Y-86090232D01*
X115349067Y-86150300D01*
X115349066Y-86150300D01*
X115367530Y-86152118D01*
X115555001Y-86170583D01*
X115760935Y-86150300D01*
X115958955Y-86090232D01*
X116141451Y-85992685D01*
X116301411Y-85861410D01*
X116432686Y-85701450D01*
X116530233Y-85518954D01*
X116590301Y-85320934D01*
X116610584Y-85115000D01*
X116590301Y-84909066D01*
X116530233Y-84711046D01*
X116432686Y-84528550D01*
X116380703Y-84465209D01*
X116301411Y-84368589D01*
X116141453Y-84237317D01*
X116141454Y-84237317D01*
X116141451Y-84237315D01*
X116021047Y-84172957D01*
X115971203Y-84123994D01*
X115955501Y-84063599D01*
X115955501Y-81104678D01*
X115956098Y-81092521D01*
X115961128Y-81041463D01*
X115967653Y-80975236D01*
X115972393Y-80951409D01*
X116004832Y-80844483D01*
X116014125Y-80822048D01*
X116066804Y-80723501D01*
X116080305Y-80703299D01*
X116155244Y-80611990D01*
X116163397Y-80602995D01*
X116199629Y-80566765D01*
X116199629Y-80566764D01*
X116209831Y-80556563D01*
X116209838Y-80556553D01*
X116869389Y-79897002D01*
X116882112Y-79884281D01*
X116882111Y-79884280D01*
X116918405Y-79847993D01*
X116918435Y-79847957D01*
X116925426Y-79840966D01*
X116925582Y-79840785D01*
X116956216Y-79810156D01*
X117083833Y-79643850D01*
X117188651Y-79462310D01*
X117267242Y-79272583D01*
X117311084Y-79218182D01*
X117340839Y-79203001D01*
X117412881Y-79177793D01*
X117496867Y-79115808D01*
X117562495Y-79091838D01*
X117630666Y-79107153D01*
X117679734Y-79156894D01*
X117694500Y-79215579D01*
X117694500Y-84063599D01*
X117674815Y-84130638D01*
X117628953Y-84172957D01*
X117508550Y-84237315D01*
X117508548Y-84237316D01*
X117508547Y-84237317D01*
X117348589Y-84368589D01*
X117217317Y-84528547D01*
X117217315Y-84528550D01*
X117214700Y-84533443D01*
X117119769Y-84711043D01*
X117119768Y-84711045D01*
X117119768Y-84711046D01*
X117118285Y-84715936D01*
X117059699Y-84909067D01*
X117039417Y-85115000D01*
X117059699Y-85320932D01*
X117059700Y-85320934D01*
X117119768Y-85518954D01*
X117217315Y-85701450D01*
X117217317Y-85701452D01*
X117348589Y-85861410D01*
X117445209Y-85940702D01*
X117508550Y-85992685D01*
X117691046Y-86090232D01*
X117889066Y-86150300D01*
X117889065Y-86150300D01*
X117907529Y-86152118D01*
X118095000Y-86170583D01*
X118300934Y-86150300D01*
X118498954Y-86090232D01*
X118681450Y-85992685D01*
X118841410Y-85861410D01*
X118972685Y-85701450D01*
X119070232Y-85518954D01*
X119130300Y-85320934D01*
X119150583Y-85115000D01*
X119150583Y-85114999D01*
X119530287Y-85114999D01*
X119530287Y-85115000D01*
X119549096Y-85317989D01*
X119549097Y-85317992D01*
X119604883Y-85514063D01*
X119604886Y-85514069D01*
X119695750Y-85696549D01*
X119695755Y-85696556D01*
X119758380Y-85779487D01*
X120191329Y-85346538D01*
X120234901Y-85422007D01*
X120327993Y-85515099D01*
X120403460Y-85558670D01*
X119967321Y-85994809D01*
X119969261Y-85996579D01*
X120142585Y-86103897D01*
X120332678Y-86177539D01*
X120533072Y-86215000D01*
X120736928Y-86215000D01*
X120937321Y-86177539D01*
X121127415Y-86103897D01*
X121300735Y-85996581D01*
X121302677Y-85994808D01*
X120866539Y-85558670D01*
X120942007Y-85515099D01*
X121035099Y-85422007D01*
X121078670Y-85346539D01*
X121511618Y-85779487D01*
X121574245Y-85696556D01*
X121665113Y-85514069D01*
X121665116Y-85514063D01*
X121720902Y-85317992D01*
X121720903Y-85317989D01*
X121739713Y-85115000D01*
X121739713Y-85114999D01*
X121720903Y-84912010D01*
X121720902Y-84912007D01*
X121665116Y-84715936D01*
X121665113Y-84715930D01*
X121574244Y-84533440D01*
X121511619Y-84450511D01*
X121511618Y-84450511D01*
X121078670Y-84883460D01*
X121035099Y-84807993D01*
X120942007Y-84714901D01*
X120866539Y-84671329D01*
X121302678Y-84235190D01*
X121302677Y-84235189D01*
X121300737Y-84233420D01*
X121127415Y-84126102D01*
X120937321Y-84052460D01*
X120736928Y-84015000D01*
X120533072Y-84015000D01*
X120332678Y-84052460D01*
X120142584Y-84126102D01*
X119969261Y-84233420D01*
X119967321Y-84235188D01*
X119967321Y-84235189D01*
X120403461Y-84671329D01*
X120327993Y-84714901D01*
X120234901Y-84807993D01*
X120191329Y-84883460D01*
X119758380Y-84450511D01*
X119695754Y-84533443D01*
X119604886Y-84715930D01*
X119604883Y-84715936D01*
X119549097Y-84912007D01*
X119549096Y-84912010D01*
X119530287Y-85114999D01*
X119150583Y-85114999D01*
X119130300Y-84909066D01*
X119070232Y-84711046D01*
X118972685Y-84528550D01*
X118920702Y-84465209D01*
X118841410Y-84368589D01*
X118681452Y-84237317D01*
X118681453Y-84237317D01*
X118681450Y-84237315D01*
X118561046Y-84172957D01*
X118511202Y-84123994D01*
X118495500Y-84063599D01*
X118495500Y-73943176D01*
X118515185Y-73876137D01*
X118567989Y-73830382D01*
X118637147Y-73820438D01*
X118666952Y-73828615D01*
X118694721Y-73840117D01*
X118806291Y-73886330D01*
X118933280Y-73903048D01*
X118949999Y-73905250D01*
X118950000Y-73905250D01*
X118950001Y-73905250D01*
X118978371Y-73901514D01*
X119073039Y-73889051D01*
X119142073Y-73899816D01*
X119194329Y-73946196D01*
X119213215Y-74013465D01*
X119203785Y-74059442D01*
X119163671Y-74156287D01*
X119163670Y-74156291D01*
X119153747Y-74231666D01*
X119144750Y-74300000D01*
X119158871Y-74407261D01*
X119163670Y-74443708D01*
X119163671Y-74443712D01*
X119219137Y-74577622D01*
X119219138Y-74577624D01*
X119219139Y-74577625D01*
X119307379Y-74692621D01*
X119422375Y-74780861D01*
X119422376Y-74780861D01*
X119422377Y-74780862D01*
X119467013Y-74799350D01*
X119556291Y-74836330D01*
X119678444Y-74852412D01*
X119699999Y-74855250D01*
X119700000Y-74855250D01*
X119700001Y-74855250D01*
X119721556Y-74852412D01*
X119843709Y-74836330D01*
X119907221Y-74810022D01*
X119976687Y-74802554D01*
X120039166Y-74833829D01*
X120068103Y-74874495D01*
X120082794Y-74907765D01*
X120082795Y-74907766D01*
X120083743Y-74909913D01*
X120092814Y-74979192D01*
X120083743Y-75010085D01*
X120037415Y-75115009D01*
X120034500Y-75140131D01*
X120034500Y-75429856D01*
X120034502Y-75429882D01*
X120037413Y-75454986D01*
X120037414Y-75454990D01*
X120037415Y-75454991D01*
X120082794Y-75557765D01*
X120082795Y-75557766D01*
X120083743Y-75559913D01*
X120092814Y-75629191D01*
X120083743Y-75660085D01*
X120037415Y-75765009D01*
X120034500Y-75790131D01*
X120034500Y-76079856D01*
X120034502Y-76079882D01*
X120037413Y-76104986D01*
X120037414Y-76104990D01*
X120037415Y-76104991D01*
X120082794Y-76207765D01*
X120082795Y-76207766D01*
X120083743Y-76209913D01*
X120092814Y-76279191D01*
X120083743Y-76310085D01*
X120037415Y-76415009D01*
X120034500Y-76440131D01*
X120034500Y-76729856D01*
X120034502Y-76729882D01*
X120037413Y-76754987D01*
X120037415Y-76754991D01*
X120082793Y-76857764D01*
X120082794Y-76857765D01*
X120162235Y-76937206D01*
X120265009Y-76982585D01*
X120290135Y-76985500D01*
X120905330Y-76985499D01*
X120905340Y-76985500D01*
X120919773Y-76985500D01*
X121354095Y-76985500D01*
X121421134Y-77005185D01*
X121441776Y-77021819D01*
X122307898Y-77887941D01*
X122314509Y-77895093D01*
X122405259Y-78001353D01*
X122416696Y-78017095D01*
X122487157Y-78132084D01*
X122495990Y-78149421D01*
X122547593Y-78274013D01*
X122553604Y-78292512D01*
X122585082Y-78423647D01*
X122588125Y-78442866D01*
X122599117Y-78582598D01*
X122599499Y-78592324D01*
X122599498Y-78654597D01*
X122599500Y-78654622D01*
X122599500Y-79344634D01*
X122599493Y-79344657D01*
X122599493Y-79489352D01*
X122623860Y-79674430D01*
X122672178Y-79854752D01*
X122672179Y-79854756D01*
X122672180Y-79854757D01*
X122743623Y-80027231D01*
X122773194Y-80078448D01*
X122836966Y-80188902D01*
X122836970Y-80188908D01*
X122950610Y-80337003D01*
X122950617Y-80337011D01*
X122979317Y-80365711D01*
X122979332Y-80365725D01*
X123433351Y-80819744D01*
X123466836Y-80881067D01*
X123464331Y-80943418D01*
X123458364Y-80963090D01*
X123424699Y-81074067D01*
X123404417Y-81280000D01*
X123424699Y-81485932D01*
X123424700Y-81485934D01*
X123484768Y-81683954D01*
X123582315Y-81866450D01*
X123582317Y-81866452D01*
X123713589Y-82026410D01*
X123810209Y-82105702D01*
X123873550Y-82157685D01*
X124056046Y-82255232D01*
X124254066Y-82315300D01*
X124254065Y-82315300D01*
X124272529Y-82317118D01*
X124460000Y-82335583D01*
X124665934Y-82315300D01*
X124863954Y-82255232D01*
X125046450Y-82157685D01*
X125206410Y-82026410D01*
X125337685Y-81866450D01*
X125435232Y-81683954D01*
X125495300Y-81485934D01*
X125515583Y-81280000D01*
X125495300Y-81074066D01*
X125435232Y-80876046D01*
X125337685Y-80693550D01*
X125233636Y-80566765D01*
X125206410Y-80533589D01*
X125046452Y-80402317D01*
X125046453Y-80402317D01*
X125046450Y-80402315D01*
X124863954Y-80304768D01*
X124665934Y-80244700D01*
X124665932Y-80244699D01*
X124665934Y-80244699D01*
X124460000Y-80224417D01*
X124254067Y-80244699D01*
X124184092Y-80265926D01*
X124123418Y-80284331D01*
X124053553Y-80284954D01*
X123999744Y-80253351D01*
X123587316Y-79840923D01*
X123579145Y-79831908D01*
X123549332Y-79795582D01*
X123513255Y-79751623D01*
X123499756Y-79731421D01*
X123453682Y-79645226D01*
X123444382Y-79622773D01*
X123416012Y-79529252D01*
X123411270Y-79505416D01*
X123407979Y-79472003D01*
X123420998Y-79403359D01*
X123469063Y-79352649D01*
X123536914Y-79335974D01*
X123603009Y-79358630D01*
X123627236Y-79381187D01*
X123713589Y-79486410D01*
X123765793Y-79529252D01*
X123873550Y-79617685D01*
X124056046Y-79715232D01*
X124254066Y-79775300D01*
X124254065Y-79775300D01*
X124272529Y-79777118D01*
X124460000Y-79795583D01*
X124665934Y-79775300D01*
X124863954Y-79715232D01*
X125046450Y-79617685D01*
X125206410Y-79486410D01*
X125337685Y-79326450D01*
X125435232Y-79143954D01*
X125495300Y-78945934D01*
X125515583Y-78740000D01*
X125495300Y-78534066D01*
X125435232Y-78336046D01*
X125337685Y-78153550D01*
X125231728Y-78024440D01*
X125206410Y-77993589D01*
X125086390Y-77895093D01*
X125046450Y-77862315D01*
X124863954Y-77764768D01*
X124665934Y-77704700D01*
X124665932Y-77704699D01*
X124665934Y-77704699D01*
X124460000Y-77684417D01*
X124254068Y-77704699D01*
X124211557Y-77717594D01*
X124141690Y-77718215D01*
X124087884Y-77686613D01*
X122298452Y-75897181D01*
X122264967Y-75835858D01*
X122269951Y-75766166D01*
X122311823Y-75710233D01*
X122377287Y-75685816D01*
X122386133Y-75685500D01*
X123120315Y-75685500D01*
X123167745Y-75685500D01*
X123234784Y-75705185D01*
X123255426Y-75721819D01*
X123396112Y-75862505D01*
X123429597Y-75923828D01*
X123427093Y-75986178D01*
X123424699Y-75994068D01*
X123404417Y-76200000D01*
X123424699Y-76405932D01*
X123435075Y-76440136D01*
X123484768Y-76603954D01*
X123582315Y-76786450D01*
X123582317Y-76786452D01*
X123713589Y-76946410D01*
X123761688Y-76985883D01*
X123873550Y-77077685D01*
X124056046Y-77175232D01*
X124254066Y-77235300D01*
X124254065Y-77235300D01*
X124272529Y-77237118D01*
X124460000Y-77255583D01*
X124665934Y-77235300D01*
X124863954Y-77175232D01*
X125046450Y-77077685D01*
X125206410Y-76946410D01*
X125337685Y-76786450D01*
X125435232Y-76603954D01*
X125495300Y-76405934D01*
X125515583Y-76200000D01*
X125495300Y-75994066D01*
X125435232Y-75796046D01*
X125337685Y-75613550D01*
X125256656Y-75514815D01*
X125206410Y-75453589D01*
X125046452Y-75322317D01*
X125046453Y-75322317D01*
X125046450Y-75322315D01*
X124863954Y-75224768D01*
X124665934Y-75164700D01*
X124665932Y-75164699D01*
X124665934Y-75164699D01*
X124460000Y-75144417D01*
X124254067Y-75164699D01*
X124175910Y-75188408D01*
X124056046Y-75224768D01*
X124056043Y-75224769D01*
X124056041Y-75224770D01*
X124056040Y-75224770D01*
X124029696Y-75238851D01*
X123961293Y-75253091D01*
X123896050Y-75228089D01*
X123883565Y-75217172D01*
X123850963Y-75184570D01*
X123850955Y-75184556D01*
X123764526Y-75098127D01*
X123702480Y-75053049D01*
X123659814Y-74997719D01*
X123653835Y-74928106D01*
X123686440Y-74866311D01*
X123702475Y-74852417D01*
X123744527Y-74821865D01*
X123757358Y-74809034D01*
X123757360Y-74809033D01*
X123909636Y-74656756D01*
X123970954Y-74623274D01*
X124040646Y-74628258D01*
X124055772Y-74635085D01*
X124056046Y-74635232D01*
X124254066Y-74695300D01*
X124254065Y-74695300D01*
X124272529Y-74697118D01*
X124460000Y-74715583D01*
X124665934Y-74695300D01*
X124863954Y-74635232D01*
X125046450Y-74537685D01*
X125206410Y-74406410D01*
X125337685Y-74246450D01*
X125435232Y-74063954D01*
X125495300Y-73865934D01*
X125515583Y-73660000D01*
X125495300Y-73454066D01*
X125435232Y-73256046D01*
X125337685Y-73073550D01*
X125269781Y-72990808D01*
X125206410Y-72913589D01*
X125079866Y-72809739D01*
X125046450Y-72782315D01*
X124863954Y-72684768D01*
X124665934Y-72624700D01*
X124665932Y-72624699D01*
X124665934Y-72624699D01*
X124460000Y-72604417D01*
X124254067Y-72624699D01*
X124056043Y-72684769D01*
X123986684Y-72721843D01*
X123873550Y-72782315D01*
X123873548Y-72782316D01*
X123873547Y-72782317D01*
X123713589Y-72913589D01*
X123587475Y-73067262D01*
X123582315Y-73073550D01*
X123560349Y-73114646D01*
X123484769Y-73256043D01*
X123424699Y-73454067D01*
X123404417Y-73659999D01*
X123424699Y-73865933D01*
X123424700Y-73865935D01*
X123436401Y-73904510D01*
X123437024Y-73974377D01*
X123405421Y-74028184D01*
X123235424Y-74198182D01*
X123174104Y-74231666D01*
X123147745Y-74234500D01*
X122831255Y-74234500D01*
X122764216Y-74214815D01*
X122718461Y-74162011D01*
X122708517Y-74092853D01*
X122737542Y-74029297D01*
X122743574Y-74022819D01*
X122792016Y-73974377D01*
X122880911Y-73885482D01*
X122880912Y-73885479D01*
X122887045Y-73879347D01*
X122887115Y-73879264D01*
X122911421Y-73854962D01*
X123024155Y-73699804D01*
X123111229Y-73528921D01*
X123170497Y-73346519D01*
X123200500Y-73157092D01*
X123200500Y-73061197D01*
X123200500Y-73037206D01*
X123200500Y-72946965D01*
X123200882Y-72937235D01*
X123210918Y-72809731D01*
X123213957Y-72790540D01*
X123242681Y-72670904D01*
X123248682Y-72652438D01*
X123295764Y-72538778D01*
X123304581Y-72521472D01*
X123368870Y-72416565D01*
X123380284Y-72400857D01*
X123463466Y-72303464D01*
X123470057Y-72296335D01*
X123507222Y-72259171D01*
X123740200Y-72026191D01*
X123801519Y-71992709D01*
X123871211Y-71997693D01*
X123886329Y-72004516D01*
X124056046Y-72095232D01*
X124254066Y-72155300D01*
X124254065Y-72155300D01*
X124272529Y-72157118D01*
X124460000Y-72175583D01*
X124665934Y-72155300D01*
X124863954Y-72095232D01*
X125046450Y-71997685D01*
X125206410Y-71866410D01*
X125337685Y-71706450D01*
X125435232Y-71523954D01*
X125495300Y-71325934D01*
X125515583Y-71120000D01*
X125495300Y-70914066D01*
X125435232Y-70716046D01*
X125337685Y-70533550D01*
X125279158Y-70462234D01*
X125206410Y-70373589D01*
X125046452Y-70242317D01*
X125046453Y-70242317D01*
X125046450Y-70242315D01*
X124863954Y-70144768D01*
X124665934Y-70084700D01*
X124665932Y-70084699D01*
X124665934Y-70084699D01*
X124460000Y-70064417D01*
X124254067Y-70084699D01*
X124056043Y-70144769D01*
X123952375Y-70200182D01*
X123873550Y-70242315D01*
X123873548Y-70242316D01*
X123873547Y-70242317D01*
X123713589Y-70373589D01*
X123582317Y-70533547D01*
X123582315Y-70533550D01*
X123549269Y-70595374D01*
X123484769Y-70716043D01*
X123424699Y-70914067D01*
X123404417Y-71120000D01*
X123404417Y-71120001D01*
X123408458Y-71161035D01*
X123395438Y-71229681D01*
X123372736Y-71260869D01*
X123267082Y-71366523D01*
X123205759Y-71400008D01*
X123136067Y-71395024D01*
X123080134Y-71353152D01*
X123055717Y-71287688D01*
X123059625Y-71246753D01*
X123086132Y-71147831D01*
X123110500Y-70962744D01*
X123110500Y-70869401D01*
X123110500Y-70811818D01*
X123110500Y-70811817D01*
X123110500Y-70123867D01*
X123104725Y-70102313D01*
X123100500Y-70070221D01*
X123100500Y-68580000D01*
X123404417Y-68580000D01*
X123424699Y-68785932D01*
X123424700Y-68785934D01*
X123484768Y-68983954D01*
X123582315Y-69166450D01*
X123582317Y-69166452D01*
X123713589Y-69326410D01*
X123810209Y-69405702D01*
X123873550Y-69457685D01*
X124056046Y-69555232D01*
X124254066Y-69615300D01*
X124254065Y-69615300D01*
X124272529Y-69617118D01*
X124460000Y-69635583D01*
X124665934Y-69615300D01*
X124863954Y-69555232D01*
X125046450Y-69457685D01*
X125206410Y-69326410D01*
X125337685Y-69166450D01*
X125435232Y-68983954D01*
X125495300Y-68785934D01*
X125515583Y-68580000D01*
X125495300Y-68374066D01*
X125435232Y-68176046D01*
X125337685Y-67993550D01*
X125244409Y-67879892D01*
X125206410Y-67833589D01*
X125046452Y-67702317D01*
X125046453Y-67702317D01*
X125046450Y-67702315D01*
X124863954Y-67604768D01*
X124665934Y-67544700D01*
X124665932Y-67544699D01*
X124665934Y-67544699D01*
X124460000Y-67524417D01*
X124254067Y-67544699D01*
X124056043Y-67604769D01*
X123945898Y-67663643D01*
X123873550Y-67702315D01*
X123873548Y-67702316D01*
X123873547Y-67702317D01*
X123713589Y-67833589D01*
X123582317Y-67993547D01*
X123484769Y-68176043D01*
X123424699Y-68374067D01*
X123404417Y-68580000D01*
X123100500Y-68580000D01*
X123100500Y-66157018D01*
X123100501Y-66157015D01*
X123100500Y-66103492D01*
X123100765Y-66095386D01*
X123104394Y-66040000D01*
X123404417Y-66040000D01*
X123424699Y-66245932D01*
X123424700Y-66245934D01*
X123484768Y-66443954D01*
X123582315Y-66626450D01*
X123609488Y-66659561D01*
X123713589Y-66786410D01*
X123810209Y-66865702D01*
X123873550Y-66917685D01*
X124056046Y-67015232D01*
X124254066Y-67075300D01*
X124254065Y-67075300D01*
X124272529Y-67077118D01*
X124460000Y-67095583D01*
X124665934Y-67075300D01*
X124863954Y-67015232D01*
X125046450Y-66917685D01*
X125206410Y-66786410D01*
X125337685Y-66626450D01*
X125435232Y-66443954D01*
X125495300Y-66245934D01*
X125515583Y-66040000D01*
X125495300Y-65834066D01*
X125435232Y-65636046D01*
X125337685Y-65453550D01*
X125245820Y-65341611D01*
X125206410Y-65293589D01*
X125046452Y-65162317D01*
X125046453Y-65162317D01*
X125046450Y-65162315D01*
X124863954Y-65064768D01*
X124665934Y-65004700D01*
X124665932Y-65004699D01*
X124665934Y-65004699D01*
X124460000Y-64984417D01*
X124254067Y-65004699D01*
X124056043Y-65064769D01*
X124003108Y-65093064D01*
X123873550Y-65162315D01*
X123873548Y-65162316D01*
X123873547Y-65162317D01*
X123713589Y-65293589D01*
X123582317Y-65453547D01*
X123484769Y-65636043D01*
X123424699Y-65834067D01*
X123404417Y-66040000D01*
X123104394Y-66040000D01*
X123105844Y-66017872D01*
X123113876Y-65895281D01*
X123115990Y-65879221D01*
X123154315Y-65686529D01*
X123158513Y-65670867D01*
X123170333Y-65636043D01*
X123221656Y-65484838D01*
X123227856Y-65469868D01*
X123314748Y-65293662D01*
X123322848Y-65279630D01*
X123432000Y-65116266D01*
X123441864Y-65103411D01*
X123573766Y-64952998D01*
X123579285Y-64947106D01*
X123999745Y-64526646D01*
X124061066Y-64493163D01*
X124123418Y-64495668D01*
X124254063Y-64535299D01*
X124254065Y-64535300D01*
X124272529Y-64537118D01*
X124460000Y-64555583D01*
X124665934Y-64535300D01*
X124863954Y-64475232D01*
X125046450Y-64377685D01*
X125206410Y-64246410D01*
X125337685Y-64086450D01*
X125435232Y-63903954D01*
X125495300Y-63705934D01*
X125515583Y-63500000D01*
X125495300Y-63294066D01*
X125435232Y-63096046D01*
X125337685Y-62913550D01*
X125285702Y-62850209D01*
X125206410Y-62753589D01*
X125046452Y-62622317D01*
X125046453Y-62622317D01*
X125046450Y-62622315D01*
X124863954Y-62524768D01*
X124665934Y-62464700D01*
X124665932Y-62464699D01*
X124665934Y-62464699D01*
X124460000Y-62444417D01*
X124254067Y-62464699D01*
X124056043Y-62524769D01*
X124014885Y-62546769D01*
X123873550Y-62622315D01*
X123873548Y-62622316D01*
X123873547Y-62622317D01*
X123713589Y-62753589D01*
X123582317Y-62913547D01*
X123484769Y-63096043D01*
X123424699Y-63294067D01*
X123404417Y-63500000D01*
X123424699Y-63705932D01*
X123464330Y-63836579D01*
X123464953Y-63906446D01*
X123433350Y-63960255D01*
X123051090Y-64342516D01*
X123051074Y-64342528D01*
X123051076Y-64342530D01*
X123047270Y-64346335D01*
X123047170Y-64346389D01*
X122913970Y-64479595D01*
X122744007Y-64692731D01*
X122744002Y-64692738D01*
X122729494Y-64715829D01*
X122677160Y-64762121D01*
X122608107Y-64772770D01*
X122544258Y-64744395D01*
X122505886Y-64686005D01*
X122500500Y-64649858D01*
X122500500Y-63478221D01*
X122500501Y-63478196D01*
X122500501Y-63468219D01*
X122500502Y-63468216D01*
X122500501Y-63462020D01*
X122500525Y-63461937D01*
X122500523Y-63410633D01*
X122500524Y-63410633D01*
X122500519Y-63306429D01*
X122473309Y-63099804D01*
X122419363Y-62898498D01*
X122339603Y-62705955D01*
X122321340Y-62674324D01*
X122304867Y-62606427D01*
X122309080Y-62584801D01*
X122308036Y-62584573D01*
X122309646Y-62577199D01*
X122312500Y-62546769D01*
X122312500Y-62205253D01*
X122332185Y-62138214D01*
X122348815Y-62117576D01*
X122819678Y-61646712D01*
X122819702Y-61646693D01*
X122828050Y-61638343D01*
X122828052Y-61638343D01*
X122865322Y-61601069D01*
X122872446Y-61594483D01*
X122957957Y-61521443D01*
X122973687Y-61510012D01*
X123065383Y-61453815D01*
X123082703Y-61444989D01*
X123182066Y-61403826D01*
X123200554Y-61397818D01*
X123305136Y-61372706D01*
X123324338Y-61369665D01*
X123400361Y-61363679D01*
X123468738Y-61378040D01*
X123518496Y-61427090D01*
X123519451Y-61428842D01*
X123538738Y-61464924D01*
X123582315Y-61546450D01*
X123582317Y-61546452D01*
X123713589Y-61706410D01*
X123810209Y-61785702D01*
X123873550Y-61837685D01*
X124056046Y-61935232D01*
X124254066Y-61995300D01*
X124254065Y-61995300D01*
X124272529Y-61997118D01*
X124460000Y-62015583D01*
X124665934Y-61995300D01*
X124863954Y-61935232D01*
X125046450Y-61837685D01*
X125206410Y-61706410D01*
X125337685Y-61546450D01*
X125435232Y-61363954D01*
X125495300Y-61165934D01*
X125515583Y-60960000D01*
X125495300Y-60754066D01*
X125435232Y-60556046D01*
X125337685Y-60373550D01*
X125239486Y-60253893D01*
X125206410Y-60213589D01*
X125046452Y-60082317D01*
X125046453Y-60082317D01*
X125046450Y-60082315D01*
X124863954Y-59984768D01*
X124665934Y-59924700D01*
X124665932Y-59924699D01*
X124665934Y-59924699D01*
X124460000Y-59904417D01*
X124254067Y-59924699D01*
X124056043Y-59984769D01*
X123945898Y-60043643D01*
X123873550Y-60082315D01*
X123873548Y-60082316D01*
X123873547Y-60082317D01*
X123713589Y-60213589D01*
X123582317Y-60373547D01*
X123517979Y-60493913D01*
X123469016Y-60543757D01*
X123408626Y-60559459D01*
X123335674Y-60559461D01*
X123126347Y-60587028D01*
X122922401Y-60641683D01*
X122755921Y-60710650D01*
X122727339Y-60722491D01*
X122727332Y-60722494D01*
X122727332Y-60722495D01*
X122544487Y-60828071D01*
X122509254Y-60855110D01*
X122444086Y-60880307D01*
X122375641Y-60866271D01*
X122325649Y-60817459D01*
X122309983Y-60749368D01*
X122310306Y-60745157D01*
X122312500Y-60721766D01*
X122312500Y-60305254D01*
X122332185Y-60238215D01*
X122348814Y-60217578D01*
X123475490Y-59090901D01*
X123536811Y-59057418D01*
X123606503Y-59062402D01*
X123659021Y-59099918D01*
X123713590Y-59166410D01*
X123873550Y-59297685D01*
X124056046Y-59395232D01*
X124254066Y-59455300D01*
X124254065Y-59455300D01*
X124272529Y-59457118D01*
X124460000Y-59475583D01*
X124665934Y-59455300D01*
X124863954Y-59395232D01*
X125046450Y-59297685D01*
X125206410Y-59166410D01*
X125337685Y-59006450D01*
X125435232Y-58823954D01*
X125495300Y-58625934D01*
X125515583Y-58420000D01*
X125495300Y-58214066D01*
X125435232Y-58016046D01*
X125337685Y-57833550D01*
X125285702Y-57770209D01*
X125206410Y-57673589D01*
X125087599Y-57576085D01*
X125046450Y-57542315D01*
X124863954Y-57444768D01*
X124665934Y-57384700D01*
X124665932Y-57384699D01*
X124665934Y-57384699D01*
X124460000Y-57364417D01*
X124254067Y-57384699D01*
X124101097Y-57431102D01*
X124067222Y-57441378D01*
X124056043Y-57444769D01*
X123987294Y-57481517D01*
X123873550Y-57542315D01*
X123873548Y-57542316D01*
X123873547Y-57542317D01*
X123713589Y-57673589D01*
X123582317Y-57833547D01*
X123484768Y-58016044D01*
X123483103Y-58021535D01*
X123444804Y-58079973D01*
X123420736Y-58096023D01*
X123315147Y-58149821D01*
X123200478Y-58233131D01*
X123200468Y-58233140D01*
X123190752Y-58242854D01*
X121777926Y-59655681D01*
X121716603Y-59689166D01*
X121690245Y-59692000D01*
X120907730Y-59692000D01*
X120877300Y-59694853D01*
X120877298Y-59694853D01*
X120749119Y-59739706D01*
X120749117Y-59739707D01*
X120639850Y-59820350D01*
X120559207Y-59929617D01*
X120559206Y-59929619D01*
X120514353Y-60057798D01*
X120514353Y-60057800D01*
X120511500Y-60088230D01*
X120511500Y-60470744D01*
X120491815Y-60537783D01*
X120475181Y-60558425D01*
X120220018Y-60813587D01*
X120219996Y-60813607D01*
X120210411Y-60823193D01*
X120210347Y-60823227D01*
X120103612Y-60929973D01*
X119985009Y-61093228D01*
X119893411Y-61273011D01*
X119893408Y-61273019D01*
X119831061Y-61464924D01*
X119799499Y-61664222D01*
X119799500Y-61718028D01*
X119799500Y-62184154D01*
X119799506Y-62184243D01*
X119799506Y-62240715D01*
X119825817Y-62474229D01*
X119825819Y-62474245D01*
X119878112Y-62703355D01*
X119955732Y-62925181D01*
X120057692Y-63136907D01*
X120057697Y-63136916D01*
X120182722Y-63335896D01*
X120182728Y-63335905D01*
X120329249Y-63519639D01*
X120369668Y-63560059D01*
X120369693Y-63560087D01*
X120581167Y-63771560D01*
X120586714Y-63777481D01*
X120730477Y-63941409D01*
X120740348Y-63954273D01*
X120859215Y-64132168D01*
X120867322Y-64146209D01*
X120961954Y-64338098D01*
X120968161Y-64353083D01*
X121036935Y-64555677D01*
X121041133Y-64571344D01*
X121082876Y-64781183D01*
X121084993Y-64797263D01*
X121093274Y-64923557D01*
X121098797Y-65007797D01*
X121099234Y-65014454D01*
X121099500Y-65022567D01*
X121099500Y-67150183D01*
X121079815Y-67217222D01*
X121027011Y-67262977D01*
X120957853Y-67272921D01*
X120894297Y-67243896D01*
X120858458Y-67191137D01*
X120812346Y-67059354D01*
X120731792Y-66950207D01*
X120622645Y-66869653D01*
X120494602Y-66824850D01*
X120464207Y-66822000D01*
X120360000Y-66822000D01*
X120360000Y-69321999D01*
X120464196Y-69321999D01*
X120494606Y-69319148D01*
X120622645Y-69274346D01*
X120731792Y-69193792D01*
X120812346Y-69084645D01*
X120858458Y-68952863D01*
X120899180Y-68896087D01*
X120964132Y-68870339D01*
X121032694Y-68883795D01*
X121083097Y-68932182D01*
X121099500Y-68993817D01*
X121099500Y-70210500D01*
X121079815Y-70277539D01*
X121027011Y-70323294D01*
X120975500Y-70334500D01*
X120290143Y-70334500D01*
X120290117Y-70334502D01*
X120265012Y-70337413D01*
X120265008Y-70337415D01*
X120162235Y-70382793D01*
X120082794Y-70462234D01*
X120037415Y-70565006D01*
X120037415Y-70565008D01*
X120034500Y-70590131D01*
X120034500Y-70879856D01*
X120034502Y-70879882D01*
X120037413Y-70904986D01*
X120037414Y-70904990D01*
X120037415Y-70904991D01*
X120082794Y-71007765D01*
X120082795Y-71007766D01*
X120083743Y-71009913D01*
X120092814Y-71079191D01*
X120083743Y-71110085D01*
X120037415Y-71215009D01*
X120034500Y-71240131D01*
X120034500Y-71240136D01*
X120034501Y-71510500D01*
X120014817Y-71577539D01*
X119962013Y-71623294D01*
X119910501Y-71634500D01*
X119703970Y-71634500D01*
X119703942Y-71634498D01*
X119689113Y-71634498D01*
X119689048Y-71634479D01*
X119542904Y-71634484D01*
X119354867Y-71659246D01*
X119171668Y-71708341D01*
X118996454Y-71780921D01*
X118996437Y-71780929D01*
X118832208Y-71875750D01*
X118832185Y-71875765D01*
X118681732Y-71991214D01*
X118681723Y-71991221D01*
X118647525Y-72025421D01*
X118647524Y-72025422D01*
X118179843Y-72493102D01*
X118179765Y-72493144D01*
X118072436Y-72600477D01*
X118072433Y-72600480D01*
X118022877Y-72665067D01*
X117966450Y-72706271D01*
X117896704Y-72710428D01*
X117835783Y-72676217D01*
X117803029Y-72614500D01*
X117800500Y-72589583D01*
X117800500Y-68926196D01*
X119560001Y-68926196D01*
X119562851Y-68956606D01*
X119607653Y-69084645D01*
X119688207Y-69193792D01*
X119797354Y-69274346D01*
X119925397Y-69319149D01*
X119955778Y-69321998D01*
X119955806Y-69321999D01*
X120059999Y-69321999D01*
X120060000Y-69321998D01*
X120060000Y-68222000D01*
X119560001Y-68222000D01*
X119560001Y-68926196D01*
X117800500Y-68926196D01*
X117800500Y-67217793D01*
X119560000Y-67217793D01*
X119560000Y-67922000D01*
X120060000Y-67922000D01*
X120060000Y-66822000D01*
X119955804Y-66822000D01*
X119925393Y-66824851D01*
X119797354Y-66869653D01*
X119688207Y-66950207D01*
X119607653Y-67059354D01*
X119562850Y-67187395D01*
X119562850Y-67187399D01*
X119560000Y-67217793D01*
X117800500Y-67217793D01*
X117800500Y-57415367D01*
X117813100Y-57360906D01*
X117825572Y-57335394D01*
X117825571Y-57335394D01*
X117825573Y-57335392D01*
X117828475Y-57315473D01*
X117857618Y-57251975D01*
X117916467Y-57214311D01*
X117986337Y-57214442D01*
X118038857Y-57245670D01*
X118048329Y-57255142D01*
X118048339Y-57255160D01*
X118084648Y-57291468D01*
X118140327Y-57347146D01*
X118188062Y-57381826D01*
X118267733Y-57439709D01*
X118267735Y-57439710D01*
X118408054Y-57511204D01*
X118408056Y-57511204D01*
X118408059Y-57511206D01*
X118444963Y-57523196D01*
X118557830Y-57559867D01*
X118607058Y-57567662D01*
X118623998Y-57573039D01*
X118624404Y-57571729D01*
X118633600Y-57574570D01*
X118633604Y-57574570D01*
X118633607Y-57574572D01*
X118701740Y-57584499D01*
X118713369Y-57584499D01*
X118713375Y-57584500D01*
X118792116Y-57584499D01*
X119313392Y-57584499D01*
X119793260Y-57584499D01*
X119793261Y-57584499D01*
X119815971Y-57581190D01*
X119861393Y-57574572D01*
X119966483Y-57523197D01*
X120049198Y-57440482D01*
X120049198Y-57440480D01*
X120052510Y-57437169D01*
X120113833Y-57403684D01*
X120183525Y-57408668D01*
X120239459Y-57450539D01*
X120256374Y-57481517D01*
X120291645Y-57576085D01*
X120291649Y-57576092D01*
X120377809Y-57691186D01*
X120377812Y-57691189D01*
X120492906Y-57777349D01*
X120492913Y-57777353D01*
X120627620Y-57827595D01*
X120627627Y-57827597D01*
X120687155Y-57833998D01*
X120687172Y-57833999D01*
X121060000Y-57833999D01*
X121360000Y-57833999D01*
X121732828Y-57833999D01*
X121732844Y-57833998D01*
X121792372Y-57827597D01*
X121792379Y-57827595D01*
X121927086Y-57777353D01*
X121927093Y-57777349D01*
X122042187Y-57691189D01*
X122042190Y-57691186D01*
X122128350Y-57576092D01*
X122128354Y-57576085D01*
X122178596Y-57441378D01*
X122178598Y-57441371D01*
X122184999Y-57381843D01*
X122185000Y-57381826D01*
X122185000Y-57233999D01*
X121360000Y-57233999D01*
X121360000Y-57833999D01*
X121060000Y-57833999D01*
X121060000Y-56933999D01*
X121360000Y-56933999D01*
X122185000Y-56933999D01*
X122185000Y-56786171D01*
X122184999Y-56786154D01*
X122178598Y-56726626D01*
X122178596Y-56726619D01*
X122128354Y-56591912D01*
X122128350Y-56591905D01*
X122042190Y-56476811D01*
X122042187Y-56476808D01*
X121927093Y-56390648D01*
X121927086Y-56390644D01*
X121792379Y-56340402D01*
X121792372Y-56340400D01*
X121732844Y-56333999D01*
X121360000Y-56333999D01*
X121360000Y-56933999D01*
X121060000Y-56933999D01*
X121060000Y-56333999D01*
X120687155Y-56333999D01*
X120627627Y-56340400D01*
X120627620Y-56340402D01*
X120492913Y-56390644D01*
X120492906Y-56390648D01*
X120377813Y-56476808D01*
X120369209Y-56488301D01*
X120313274Y-56530170D01*
X120243582Y-56535152D01*
X120182260Y-56501665D01*
X120148777Y-56440341D01*
X120147471Y-56394589D01*
X120160000Y-56315486D01*
X120160000Y-56284000D01*
X119221500Y-56284000D01*
X119154461Y-56264315D01*
X119108706Y-56211511D01*
X119097500Y-56160000D01*
X119097500Y-56108000D01*
X119117185Y-56040961D01*
X119169989Y-55995206D01*
X119221500Y-55984000D01*
X120159999Y-55984000D01*
X120159999Y-55952520D01*
X120145164Y-55858850D01*
X120142148Y-55849566D01*
X120145149Y-55848590D01*
X120135299Y-55796119D01*
X120161579Y-55731380D01*
X120218688Y-55691127D01*
X120258679Y-55684501D01*
X120297372Y-55684501D01*
X120364411Y-55704186D01*
X120397141Y-55734866D01*
X120412850Y-55756151D01*
X120522118Y-55836794D01*
X120564845Y-55851745D01*
X120650299Y-55881647D01*
X120680730Y-55884501D01*
X120680734Y-55884501D01*
X121739270Y-55884501D01*
X121769699Y-55881647D01*
X121769701Y-55881647D01*
X121834849Y-55858850D01*
X121897882Y-55836794D01*
X122007150Y-55756151D01*
X122022858Y-55734866D01*
X122078506Y-55692616D01*
X122122628Y-55684501D01*
X123286859Y-55684501D01*
X123353898Y-55704186D01*
X123399653Y-55756990D01*
X123410262Y-55820655D01*
X123404417Y-55879999D01*
X123424699Y-56085932D01*
X123454734Y-56184944D01*
X123484768Y-56283954D01*
X123582315Y-56466450D01*
X123582317Y-56466452D01*
X123713589Y-56626410D01*
X123810209Y-56705702D01*
X123873550Y-56757685D01*
X124056046Y-56855232D01*
X124254066Y-56915300D01*
X124254065Y-56915300D01*
X124272529Y-56917118D01*
X124460000Y-56935583D01*
X124665934Y-56915300D01*
X124863954Y-56855232D01*
X125046450Y-56757685D01*
X125206410Y-56626410D01*
X125337685Y-56466450D01*
X125435232Y-56283954D01*
X125495300Y-56085934D01*
X125515583Y-55880000D01*
X125495300Y-55674066D01*
X125435232Y-55476046D01*
X125337685Y-55293550D01*
X125285702Y-55230209D01*
X125206410Y-55133589D01*
X125085060Y-55034001D01*
X125046450Y-55002315D01*
X124863954Y-54904768D01*
X124665934Y-54844700D01*
X124665932Y-54844699D01*
X124665934Y-54844699D01*
X124460000Y-54824417D01*
X124254066Y-54844699D01*
X124254063Y-54844700D01*
X124231924Y-54851416D01*
X124162057Y-54852039D01*
X124108250Y-54820436D01*
X124071317Y-54783503D01*
X124071315Y-54783501D01*
X124003152Y-54744147D01*
X123957188Y-54717609D01*
X123861291Y-54691914D01*
X123829893Y-54683501D01*
X123829892Y-54683501D01*
X122122628Y-54683501D01*
X122055589Y-54663816D01*
X122022858Y-54633135D01*
X122018502Y-54627233D01*
X122007150Y-54611851D01*
X121897882Y-54531208D01*
X121897880Y-54531207D01*
X121769700Y-54486354D01*
X121739270Y-54483501D01*
X121739266Y-54483501D01*
X121134500Y-54483501D01*
X121067461Y-54463816D01*
X121021706Y-54411012D01*
X121010500Y-54359501D01*
X121010500Y-53394000D01*
X121030185Y-53326961D01*
X121082989Y-53281206D01*
X121134500Y-53270000D01*
X121160000Y-53270000D01*
X121160000Y-52550000D01*
X121134500Y-52550000D01*
X121067461Y-52530315D01*
X121021706Y-52477511D01*
X121010500Y-52426000D01*
X121010500Y-52374000D01*
X121030185Y-52306961D01*
X121082989Y-52261206D01*
X121134500Y-52250000D01*
X121160000Y-52250000D01*
X121160000Y-51923745D01*
X121179685Y-51856706D01*
X121222000Y-51816358D01*
X121222131Y-51816281D01*
X121222135Y-51816281D01*
X121274001Y-51786335D01*
X121341901Y-51769863D01*
X121407927Y-51792716D01*
X121451118Y-51847637D01*
X121460000Y-51893723D01*
X121460000Y-53270000D01*
X121634626Y-53270000D01*
X121634628Y-53269999D01*
X121707540Y-53255496D01*
X121707544Y-53255494D01*
X121790239Y-53200239D01*
X121845494Y-53117544D01*
X121845495Y-53117544D01*
X121854251Y-53073521D01*
X121886635Y-53011609D01*
X121947350Y-52977034D01*
X122017120Y-52980773D01*
X122044760Y-52994608D01*
X122074736Y-53014637D01*
X122074745Y-53014642D01*
X122211230Y-53071176D01*
X122211240Y-53071179D01*
X122279999Y-53084856D01*
X122280000Y-53084856D01*
X122280000Y-52609808D01*
X122314204Y-52629556D01*
X122390504Y-52650000D01*
X122469496Y-52650000D01*
X122545796Y-52629556D01*
X122580000Y-52609808D01*
X122580000Y-53084856D01*
X122648759Y-53071179D01*
X122648769Y-53071176D01*
X122785254Y-53014642D01*
X122785264Y-53014637D01*
X122908096Y-52932563D01*
X122908100Y-52932560D01*
X123012560Y-52828100D01*
X123012563Y-52828096D01*
X123094637Y-52705264D01*
X123094642Y-52705254D01*
X123151177Y-52568767D01*
X123151179Y-52568759D01*
X123179999Y-52423873D01*
X123180000Y-52423871D01*
X123180000Y-51950000D01*
X122730000Y-51950000D01*
X122730000Y-51650000D01*
X123180000Y-51650000D01*
X123180000Y-51176128D01*
X123179999Y-51176126D01*
X123151179Y-51031240D01*
X123151177Y-51031232D01*
X123094642Y-50894745D01*
X123094637Y-50894735D01*
X123012563Y-50771903D01*
X123012560Y-50771899D01*
X122908100Y-50667439D01*
X122908096Y-50667436D01*
X122785264Y-50585362D01*
X122785254Y-50585357D01*
X122648767Y-50528822D01*
X122648761Y-50528820D01*
X122580000Y-50515142D01*
X122580000Y-50990191D01*
X122545796Y-50970444D01*
X122469496Y-50950000D01*
X122390504Y-50950000D01*
X122314204Y-50970444D01*
X122280000Y-50990191D01*
X122280000Y-50515143D01*
X122279999Y-50515142D01*
X122211238Y-50528820D01*
X122211232Y-50528822D01*
X122074745Y-50585357D01*
X122074735Y-50585362D01*
X121951903Y-50667436D01*
X121951899Y-50667439D01*
X121847439Y-50771899D01*
X121847436Y-50771903D01*
X121765362Y-50894735D01*
X121765359Y-50894741D01*
X121726546Y-50988443D01*
X121682704Y-51042846D01*
X121616410Y-51064910D01*
X121548711Y-51047630D01*
X121504598Y-51002989D01*
X121485808Y-50970444D01*
X121460515Y-50926635D01*
X121353365Y-50819485D01*
X121270944Y-50771899D01*
X121222136Y-50743719D01*
X121148950Y-50724109D01*
X121075766Y-50704500D01*
X120924234Y-50704500D01*
X120777863Y-50743719D01*
X120646635Y-50819485D01*
X120646632Y-50819487D01*
X120539487Y-50926632D01*
X120539485Y-50926635D01*
X120463719Y-51057863D01*
X120446255Y-51123043D01*
X120424500Y-51204234D01*
X120424500Y-51355766D01*
X120442624Y-51423409D01*
X120440962Y-51493256D01*
X120401800Y-51551119D01*
X120337572Y-51578623D01*
X120322850Y-51579500D01*
X120190252Y-51579500D01*
X120134190Y-51590651D01*
X120085810Y-51590651D01*
X120029748Y-51579500D01*
X119809500Y-51579500D01*
X119742461Y-51559815D01*
X119696706Y-51507011D01*
X119685500Y-51455500D01*
X119685500Y-51372444D01*
X119685766Y-51364333D01*
X119696672Y-51197961D01*
X119701051Y-51131153D01*
X119703168Y-51115075D01*
X119703347Y-51114176D01*
X119747970Y-50889848D01*
X119752161Y-50874208D01*
X119825982Y-50656757D01*
X119832186Y-50641781D01*
X119860014Y-50585357D01*
X119933756Y-50435832D01*
X119941866Y-50421788D01*
X119951066Y-50408020D01*
X120069445Y-50230866D01*
X120079315Y-50218006D01*
X120230804Y-50045279D01*
X120242252Y-50033831D01*
X120397450Y-49897723D01*
X120410297Y-49887863D01*
X120582011Y-49773122D01*
X120596034Y-49765027D01*
X120781236Y-49673691D01*
X120796209Y-49667489D01*
X120991741Y-49601109D01*
X121007399Y-49596913D01*
X121209930Y-49556622D01*
X121226009Y-49554506D01*
X121435570Y-49540765D01*
X121443683Y-49540500D01*
X123606778Y-49540500D01*
X123673817Y-49560185D01*
X123719572Y-49612989D01*
X123723819Y-49623544D01*
X123740110Y-49670100D01*
X123747207Y-49690382D01*
X123827850Y-49799650D01*
X123937118Y-49880293D01*
X123958735Y-49887857D01*
X124065299Y-49925146D01*
X124095730Y-49928000D01*
X124095734Y-49928000D01*
X125104270Y-49928000D01*
X125134699Y-49925146D01*
X125134701Y-49925146D01*
X125201901Y-49901631D01*
X125262882Y-49880293D01*
X125372150Y-49799650D01*
X125452793Y-49690382D01*
X125476181Y-49623544D01*
X125497646Y-49562201D01*
X125497646Y-49562199D01*
X125500500Y-49531769D01*
X125500500Y-48898230D01*
X125497646Y-48867800D01*
X125497646Y-48867798D01*
X125464006Y-48771663D01*
X125452793Y-48739618D01*
X125372150Y-48630350D01*
X125262882Y-48549707D01*
X125262880Y-48549706D01*
X125134700Y-48504853D01*
X125104270Y-48502000D01*
X125104266Y-48502000D01*
X124095734Y-48502000D01*
X124095730Y-48502000D01*
X124065300Y-48504853D01*
X124065298Y-48504853D01*
X123937119Y-48549706D01*
X123937117Y-48549707D01*
X123827850Y-48630350D01*
X123747207Y-48739617D01*
X123723819Y-48806456D01*
X123683097Y-48863232D01*
X123618144Y-48888978D01*
X123606778Y-48889500D01*
X122857507Y-48889500D01*
X122790468Y-48869815D01*
X122744713Y-48817011D01*
X122734769Y-48747853D01*
X122763794Y-48684297D01*
X122788616Y-48662398D01*
X122908096Y-48582563D01*
X122908100Y-48582560D01*
X123012560Y-48478100D01*
X123012563Y-48478096D01*
X123094637Y-48355264D01*
X123094642Y-48355254D01*
X123151177Y-48218767D01*
X123151179Y-48218759D01*
X123179999Y-48073873D01*
X123180000Y-48073871D01*
X123180000Y-47750000D01*
X122730000Y-47750000D01*
X122730000Y-47700344D01*
X123650000Y-47700344D01*
X123656401Y-47759872D01*
X123656403Y-47759879D01*
X123706645Y-47894586D01*
X123706649Y-47894593D01*
X123792809Y-48009687D01*
X123792812Y-48009690D01*
X123907906Y-48095850D01*
X123907913Y-48095854D01*
X124042620Y-48146096D01*
X124042627Y-48146098D01*
X124102155Y-48152499D01*
X124102172Y-48152500D01*
X124450000Y-48152500D01*
X124750000Y-48152500D01*
X125097828Y-48152500D01*
X125097844Y-48152499D01*
X125157372Y-48146098D01*
X125157379Y-48146096D01*
X125292086Y-48095854D01*
X125292093Y-48095850D01*
X125407187Y-48009690D01*
X125407190Y-48009687D01*
X125493350Y-47894593D01*
X125493354Y-47894586D01*
X125543596Y-47759879D01*
X125543598Y-47759872D01*
X125549999Y-47700344D01*
X125550000Y-47700327D01*
X125550000Y-47540000D01*
X124750000Y-47540000D01*
X124750000Y-48152500D01*
X124450000Y-48152500D01*
X124450000Y-47540000D01*
X123650000Y-47540000D01*
X123650000Y-47700344D01*
X122730000Y-47700344D01*
X122730000Y-47450000D01*
X123180000Y-47450000D01*
X123180000Y-47126128D01*
X123179999Y-47126126D01*
X123170755Y-47079655D01*
X123650000Y-47079655D01*
X123650000Y-47240000D01*
X124450000Y-47240000D01*
X124750000Y-47240000D01*
X125550000Y-47240000D01*
X125550000Y-47079672D01*
X125549999Y-47079655D01*
X125543598Y-47020127D01*
X125543596Y-47020120D01*
X125493354Y-46885413D01*
X125493350Y-46885406D01*
X125407190Y-46770312D01*
X125407187Y-46770309D01*
X125292093Y-46684149D01*
X125292086Y-46684145D01*
X125157379Y-46633903D01*
X125157372Y-46633901D01*
X125097844Y-46627500D01*
X124750000Y-46627500D01*
X124750000Y-47240000D01*
X124450000Y-47240000D01*
X124450000Y-46627500D01*
X124102155Y-46627500D01*
X124042627Y-46633901D01*
X124042620Y-46633903D01*
X123907913Y-46684145D01*
X123907906Y-46684149D01*
X123792812Y-46770309D01*
X123792809Y-46770312D01*
X123706649Y-46885406D01*
X123706645Y-46885413D01*
X123656403Y-47020120D01*
X123656401Y-47020127D01*
X123650000Y-47079655D01*
X123170755Y-47079655D01*
X123151179Y-46981240D01*
X123151177Y-46981232D01*
X123094642Y-46844745D01*
X123094637Y-46844735D01*
X123012563Y-46721903D01*
X123012560Y-46721899D01*
X122908100Y-46617439D01*
X122908096Y-46617436D01*
X122785264Y-46535362D01*
X122785254Y-46535357D01*
X122648767Y-46478822D01*
X122648761Y-46478820D01*
X122580000Y-46465142D01*
X122580000Y-46940191D01*
X122545796Y-46920444D01*
X122469496Y-46900000D01*
X122390504Y-46900000D01*
X122314204Y-46920444D01*
X122280000Y-46940191D01*
X122280000Y-46465143D01*
X122279999Y-46465142D01*
X122211238Y-46478820D01*
X122211232Y-46478822D01*
X122074745Y-46535357D01*
X122074735Y-46535362D01*
X121951903Y-46617436D01*
X121951899Y-46617439D01*
X121847439Y-46721899D01*
X121847436Y-46721903D01*
X121765362Y-46844735D01*
X121765357Y-46844745D01*
X121708822Y-46981232D01*
X121708820Y-46981240D01*
X121680000Y-47126126D01*
X121680000Y-47450000D01*
X122130000Y-47450000D01*
X122130000Y-47750000D01*
X121680000Y-47750000D01*
X121680000Y-48073873D01*
X121708820Y-48218759D01*
X121708822Y-48218767D01*
X121765357Y-48355254D01*
X121765362Y-48355264D01*
X121847436Y-48478096D01*
X121847439Y-48478100D01*
X121951899Y-48582560D01*
X121951903Y-48582563D01*
X122071384Y-48662398D01*
X122116189Y-48716010D01*
X122124896Y-48785335D01*
X122094742Y-48848362D01*
X122035299Y-48885082D01*
X122002493Y-48889500D01*
X121501700Y-48889500D01*
X121501688Y-48889499D01*
X121491540Y-48889499D01*
X121491420Y-48889464D01*
X121307956Y-48889467D01*
X121045236Y-48919076D01*
X121045234Y-48919076D01*
X120787508Y-48977906D01*
X120787487Y-48977912D01*
X120537964Y-49065231D01*
X120537950Y-49065237D01*
X120299766Y-49179947D01*
X120299763Y-49179949D01*
X120075923Y-49320603D01*
X120075906Y-49320615D01*
X119869225Y-49485445D01*
X119812072Y-49542600D01*
X119786880Y-49567794D01*
X119775769Y-49578904D01*
X119775754Y-49578919D01*
X119774304Y-49580369D01*
X119774303Y-49580368D01*
X119774298Y-49580374D01*
X119732943Y-49621731D01*
X119732867Y-49621818D01*
X119675272Y-49679411D01*
X119498047Y-49901626D01*
X119422103Y-50022480D01*
X119369766Y-50068768D01*
X119300712Y-50079414D01*
X119236865Y-50051036D01*
X119198496Y-49992644D01*
X119193378Y-49948396D01*
X119197956Y-49878555D01*
X119200073Y-49862480D01*
X119215536Y-49784746D01*
X119235644Y-49683661D01*
X119239838Y-49668006D01*
X119298456Y-49495334D01*
X119304652Y-49480378D01*
X119353171Y-49381995D01*
X119400476Y-49330579D01*
X119448192Y-49313906D01*
X119543709Y-49301331D01*
X119677625Y-49245862D01*
X119792621Y-49157622D01*
X119880861Y-49042626D01*
X119936330Y-48908710D01*
X119955250Y-48765001D01*
X119936330Y-48621292D01*
X119880861Y-48487376D01*
X119792621Y-48372380D01*
X119677625Y-48284140D01*
X119677624Y-48284139D01*
X119677622Y-48284138D01*
X119543712Y-48228672D01*
X119543710Y-48228671D01*
X119543709Y-48228671D01*
X119468421Y-48218759D01*
X119400001Y-48209751D01*
X119399999Y-48209751D01*
X119256291Y-48228671D01*
X119256287Y-48228672D01*
X119122377Y-48284138D01*
X119007379Y-48372380D01*
X118919137Y-48487378D01*
X118863671Y-48621288D01*
X118863670Y-48621292D01*
X118844750Y-48765000D01*
X118844750Y-48765003D01*
X118859048Y-48873606D01*
X118848282Y-48942641D01*
X118841102Y-48955765D01*
X118802176Y-49017711D01*
X118696462Y-49237213D01*
X118615997Y-49467158D01*
X118615995Y-49467164D01*
X118615995Y-49467166D01*
X118604502Y-49517516D01*
X118561779Y-49704687D01*
X118561778Y-49704693D01*
X118534500Y-49946776D01*
X118534500Y-51084058D01*
X118514815Y-51151097D01*
X118462011Y-51196852D01*
X118392853Y-51206796D01*
X118341620Y-51187167D01*
X118317394Y-51170983D01*
X118228578Y-51134204D01*
X118187045Y-51117005D01*
X118187043Y-51117004D01*
X118187042Y-51117004D01*
X118093422Y-51098391D01*
X118048673Y-51089494D01*
X118048672Y-51089494D01*
X118048667Y-51089493D01*
X117978132Y-51089500D01*
X117809500Y-51089500D01*
X117742461Y-51069815D01*
X117696706Y-51017011D01*
X117685500Y-50965500D01*
X117685500Y-50168269D01*
X117685503Y-50168258D01*
X117685503Y-49991249D01*
X117685502Y-49991248D01*
X117683941Y-49977395D01*
X117657365Y-49741533D01*
X117620248Y-49578919D01*
X117601445Y-49496539D01*
X117601444Y-49496536D01*
X117591166Y-49467166D01*
X117518440Y-49259336D01*
X117409400Y-49032924D01*
X117369204Y-48968956D01*
X117359248Y-48953111D01*
X117340246Y-48885875D01*
X117341301Y-48870951D01*
X117355250Y-48765001D01*
X117355250Y-48765000D01*
X117348800Y-48716010D01*
X117336330Y-48621292D01*
X117280861Y-48487376D01*
X117192621Y-48372380D01*
X117077625Y-48284140D01*
X117077624Y-48284139D01*
X117077622Y-48284138D01*
X116943712Y-48228672D01*
X116943710Y-48228671D01*
X116943709Y-48228671D01*
X116868421Y-48218759D01*
X116800001Y-48209751D01*
X116799999Y-48209751D01*
X116656291Y-48228671D01*
X116656287Y-48228672D01*
X116522377Y-48284138D01*
X116407379Y-48372380D01*
X116319137Y-48487378D01*
X116263671Y-48621288D01*
X116263670Y-48621292D01*
X116244750Y-48765000D01*
X116244750Y-48765001D01*
X116263670Y-48908709D01*
X116263671Y-48908713D01*
X116319137Y-49042623D01*
X116319138Y-49042625D01*
X116319139Y-49042626D01*
X116407379Y-49157622D01*
X116522375Y-49245862D01*
X116522376Y-49245862D01*
X116522377Y-49245863D01*
X116567013Y-49264351D01*
X116656291Y-49301331D01*
X116755947Y-49314451D01*
X116819843Y-49342718D01*
X116850972Y-49382544D01*
X116874277Y-49429799D01*
X116906604Y-49495349D01*
X116910146Y-49502530D01*
X116916353Y-49517514D01*
X116930839Y-49560185D01*
X116977834Y-49698623D01*
X116982032Y-49714291D01*
X117019345Y-49901868D01*
X117021462Y-49917949D01*
X117034234Y-50112796D01*
X117034500Y-50120907D01*
X117034500Y-51455500D01*
X117014815Y-51522539D01*
X116962011Y-51568294D01*
X116910500Y-51579500D01*
X116809500Y-51579500D01*
X116742461Y-51559815D01*
X116696706Y-51507011D01*
X116685500Y-51455500D01*
X116685500Y-51197961D01*
X116685474Y-51197570D01*
X116685474Y-51170982D01*
X116685475Y-51125640D01*
X116657892Y-50880797D01*
X116603067Y-50640581D01*
X116521692Y-50408015D01*
X116414788Y-50186022D01*
X116283701Y-49977395D01*
X116130079Y-49784756D01*
X116130073Y-49784750D01*
X116130070Y-49784746D01*
X116101553Y-49756229D01*
X116101550Y-49756224D01*
X116086485Y-49741159D01*
X116086482Y-49741155D01*
X116081007Y-49735680D01*
X116080988Y-49735646D01*
X116042968Y-49697628D01*
X115947116Y-49601781D01*
X115947110Y-49601776D01*
X115947106Y-49601772D01*
X115737544Y-49429798D01*
X115512130Y-49279188D01*
X115512120Y-49279182D01*
X115273039Y-49151396D01*
X115273036Y-49151395D01*
X115273034Y-49151394D01*
X115273032Y-49151393D01*
X115192768Y-49118148D01*
X115022572Y-49047653D01*
X115022564Y-49047650D01*
X114763138Y-48968957D01*
X114630830Y-48942641D01*
X114497236Y-48916069D01*
X114497232Y-48916068D01*
X114497224Y-48916067D01*
X114299005Y-48896547D01*
X114227437Y-48889499D01*
X114227434Y-48889499D01*
X114217508Y-48889499D01*
X114150469Y-48869814D01*
X114104714Y-48817010D01*
X114094770Y-48747852D01*
X114123795Y-48684296D01*
X114148617Y-48662397D01*
X114268097Y-48582563D01*
X114372560Y-48478100D01*
X114372563Y-48478096D01*
X114454637Y-48355264D01*
X114454642Y-48355254D01*
X114511177Y-48218767D01*
X114511179Y-48218759D01*
X114539999Y-48073873D01*
X114540000Y-48073871D01*
X114540000Y-47750000D01*
X114090000Y-47750000D01*
X114090000Y-47450000D01*
X114540000Y-47450000D01*
X114540000Y-47126128D01*
X114539999Y-47126126D01*
X114511179Y-46981240D01*
X114511177Y-46981232D01*
X114454642Y-46844745D01*
X114454637Y-46844735D01*
X114372563Y-46721903D01*
X114372560Y-46721899D01*
X114268100Y-46617439D01*
X114268096Y-46617436D01*
X114145264Y-46535362D01*
X114145254Y-46535357D01*
X114008767Y-46478822D01*
X114008761Y-46478820D01*
X113940000Y-46465142D01*
X113940000Y-46940191D01*
X113905796Y-46920444D01*
X113829496Y-46900000D01*
X113750504Y-46900000D01*
X113674204Y-46920444D01*
X113640000Y-46940191D01*
X113640000Y-46465143D01*
X113639999Y-46465142D01*
X113571238Y-46478820D01*
X113571232Y-46478822D01*
X113434745Y-46535357D01*
X113434735Y-46535362D01*
X113311903Y-46617436D01*
X113311899Y-46617439D01*
X113207439Y-46721899D01*
X113207436Y-46721903D01*
X113125362Y-46844735D01*
X113125357Y-46844745D01*
X113068822Y-46981232D01*
X113068820Y-46981240D01*
X113040000Y-47126126D01*
X113040000Y-47450000D01*
X113490000Y-47450000D01*
X113490000Y-47750000D01*
X113040000Y-47750000D01*
X113040000Y-48073873D01*
X113068820Y-48218759D01*
X113068822Y-48218767D01*
X113125357Y-48355254D01*
X113125362Y-48355264D01*
X113207436Y-48478096D01*
X113207439Y-48478100D01*
X113311899Y-48582560D01*
X113311903Y-48582563D01*
X113431384Y-48662398D01*
X113476189Y-48716010D01*
X113484896Y-48785335D01*
X113454742Y-48848362D01*
X113395299Y-48885082D01*
X113362493Y-48889500D01*
X112593222Y-48889500D01*
X112526183Y-48869815D01*
X112480428Y-48817011D01*
X112476181Y-48806456D01*
X112466467Y-48778697D01*
X112452793Y-48739618D01*
X112372150Y-48630350D01*
X112262882Y-48549707D01*
X112262880Y-48549706D01*
X112134700Y-48504853D01*
X112104270Y-48502000D01*
X112104266Y-48502000D01*
X111095734Y-48502000D01*
X111095730Y-48502000D01*
X111065300Y-48504853D01*
X111065298Y-48504853D01*
X110937119Y-48549706D01*
X110937117Y-48549707D01*
X110827850Y-48630350D01*
X110747207Y-48739617D01*
X110747206Y-48739619D01*
X110702353Y-48867798D01*
X110702353Y-48867800D01*
X110699500Y-48898230D01*
X110150500Y-48898230D01*
X110150500Y-47700344D01*
X110650000Y-47700344D01*
X110656401Y-47759872D01*
X110656403Y-47759879D01*
X110706645Y-47894586D01*
X110706649Y-47894593D01*
X110792809Y-48009687D01*
X110792812Y-48009690D01*
X110907906Y-48095850D01*
X110907913Y-48095854D01*
X111042620Y-48146096D01*
X111042627Y-48146098D01*
X111102155Y-48152499D01*
X111102172Y-48152500D01*
X111450000Y-48152500D01*
X111750000Y-48152500D01*
X112097828Y-48152500D01*
X112097844Y-48152499D01*
X112157372Y-48146098D01*
X112157379Y-48146096D01*
X112292086Y-48095854D01*
X112292093Y-48095850D01*
X112407187Y-48009690D01*
X112407190Y-48009687D01*
X112493350Y-47894593D01*
X112493354Y-47894586D01*
X112543596Y-47759879D01*
X112543598Y-47759872D01*
X112549999Y-47700344D01*
X112550000Y-47700327D01*
X112550000Y-47540000D01*
X111750000Y-47540000D01*
X111750000Y-48152500D01*
X111450000Y-48152500D01*
X111450000Y-47540000D01*
X110650000Y-47540000D01*
X110650000Y-47700344D01*
X110150500Y-47700344D01*
X110150500Y-47079655D01*
X110650000Y-47079655D01*
X110650000Y-47240000D01*
X111450000Y-47240000D01*
X111750000Y-47240000D01*
X112550000Y-47240000D01*
X112550000Y-47079672D01*
X112549999Y-47079655D01*
X112543598Y-47020127D01*
X112543596Y-47020120D01*
X112493354Y-46885413D01*
X112493350Y-46885406D01*
X112407190Y-46770312D01*
X112407187Y-46770309D01*
X112292093Y-46684149D01*
X112292086Y-46684145D01*
X112157379Y-46633903D01*
X112157372Y-46633901D01*
X112097844Y-46627500D01*
X111750000Y-46627500D01*
X111750000Y-47240000D01*
X111450000Y-47240000D01*
X111450000Y-46627500D01*
X111102155Y-46627500D01*
X111042627Y-46633901D01*
X111042620Y-46633903D01*
X110907913Y-46684145D01*
X110907906Y-46684149D01*
X110792812Y-46770309D01*
X110792809Y-46770312D01*
X110706649Y-46885406D01*
X110706645Y-46885413D01*
X110656403Y-47020120D01*
X110656401Y-47020127D01*
X110650000Y-47079655D01*
X110150500Y-47079655D01*
X110150500Y-46506961D01*
X110151280Y-46493078D01*
X110153004Y-46477769D01*
X110163966Y-46380481D01*
X110170142Y-46353418D01*
X110205256Y-46253068D01*
X110217299Y-46228062D01*
X110273863Y-46138040D01*
X110291168Y-46116341D01*
X110366341Y-46041168D01*
X110388040Y-46023863D01*
X110478062Y-45967299D01*
X110503068Y-45955256D01*
X110603418Y-45920142D01*
X110630481Y-45913966D01*
X110727769Y-45903004D01*
X110743078Y-45901280D01*
X110756961Y-45900500D01*
X110807583Y-45900500D01*
X125442417Y-45900500D01*
X125493039Y-45900500D01*
X125506922Y-45901279D01*
G37*
%TD.AperFunction*%
%TD*%
M02*
