%TF.GenerationSoftware,KiCad,Pcbnew,8.0.3*%
%TF.CreationDate,2024-08-17T22:20:42+01:00*%
%TF.ProjectId,TSSOP_Board,5453534f-505f-4426-9f61-72642e6b6963,rev?*%
%TF.SameCoordinates,Original*%
%TF.FileFunction,Drillmap*%
%TF.FilePolarity,Positive*%
%FSLAX45Y45*%
G04 Gerber Fmt 4.5, Leading zero omitted, Abs format (unit mm)*
G04 Created by KiCad (PCBNEW 8.0.3) date 2024-08-17 22:20:42*
%MOMM*%
%LPD*%
G01*
G04 APERTURE LIST*
%ADD10C,0.050000*%
%ADD11C,0.200000*%
%ADD12C,0.100000*%
G04 APERTURE END LIST*
D10*
X12650000Y-8600000D02*
G75*
G02*
X12550000Y-8700000I-100000J0D01*
G01*
X10975000Y-8600000D02*
X10975000Y-4650000D01*
X11075000Y-4550000D02*
X12550000Y-4550000D01*
X12550000Y-4550000D02*
G75*
G02*
X12650000Y-4650000I0J-100000D01*
G01*
X10975000Y-4650000D02*
G75*
G02*
X11075000Y-4550000I100000J0D01*
G01*
X11075000Y-8700000D02*
G75*
G02*
X10975000Y-8600000I0J100000D01*
G01*
X12550000Y-8700000D02*
X11075000Y-8700000D01*
X12650000Y-4650000D02*
X12650000Y-8600000D01*
D11*
D12*
X11140000Y-4661500D02*
X11180000Y-4701500D01*
X11180000Y-4661500D02*
X11140000Y-4701500D01*
X11310000Y-7420000D02*
X11350000Y-7460000D01*
X11350000Y-7420000D02*
X11310000Y-7460000D01*
X11400000Y-7810000D02*
X11440000Y-7850000D01*
X11440000Y-7810000D02*
X11400000Y-7850000D01*
X11440000Y-5281500D02*
X11480000Y-5321500D01*
X11480000Y-5281500D02*
X11440000Y-5321500D01*
X11581000Y-6961000D02*
X11621000Y-7001000D01*
X11621000Y-6961000D02*
X11581000Y-7001000D01*
X11613200Y-7443500D02*
X11653200Y-7483500D01*
X11653200Y-7443500D02*
X11613200Y-7483500D01*
X11660000Y-4856500D02*
X11700000Y-4896500D01*
X11700000Y-4856500D02*
X11660000Y-4896500D01*
X11664000Y-8311200D02*
X11704000Y-8351200D01*
X11704000Y-8311200D02*
X11664000Y-8351200D01*
X11689400Y-5390200D02*
X11729400Y-5430200D01*
X11729400Y-5390200D02*
X11689400Y-5430200D01*
X11875000Y-7315000D02*
X11915000Y-7355000D01*
X11915000Y-7315000D02*
X11875000Y-7355000D01*
X11918000Y-7574600D02*
X11958000Y-7614600D01*
X11958000Y-7574600D02*
X11918000Y-7614600D01*
X11918000Y-8311200D02*
X11958000Y-8351200D01*
X11958000Y-8311200D02*
X11918000Y-8351200D01*
X11920000Y-4856500D02*
X11960000Y-4896500D01*
X11960000Y-4856500D02*
X11920000Y-4896500D01*
X11950000Y-7410000D02*
X11990000Y-7450000D01*
X11990000Y-7410000D02*
X11950000Y-7450000D01*
X11981000Y-5593400D02*
X12021000Y-5633400D01*
X12021000Y-5593400D02*
X11981000Y-5633400D01*
X12140000Y-5281500D02*
X12180000Y-5321500D01*
X12180000Y-5281500D02*
X12140000Y-5321500D01*
X12299000Y-5695000D02*
X12339000Y-5735000D01*
X12339000Y-5695000D02*
X12299000Y-5735000D01*
X12299000Y-6203000D02*
X12339000Y-6243000D01*
X12339000Y-6203000D02*
X12299000Y-6243000D01*
X12440000Y-4661500D02*
X12480000Y-4701500D01*
X12480000Y-4661500D02*
X12440000Y-4701500D01*
X11409000Y-4760000D02*
G75*
G02*
X11349000Y-4760000I-30000J0D01*
G01*
X11349000Y-4760000D02*
G75*
G02*
X11409000Y-4760000I30000J0D01*
G01*
X11409000Y-4800000D02*
X11409000Y-4720000D01*
X11349000Y-4720000D02*
G75*
G02*
X11409000Y-4720000I30000J0D01*
G01*
X11349000Y-4720000D02*
X11349000Y-4800000D01*
X11349000Y-4800000D02*
G75*
G03*
X11409000Y-4800000I30000J0D01*
G01*
X11409000Y-5180000D02*
G75*
G02*
X11349000Y-5180000I-30000J0D01*
G01*
X11349000Y-5180000D02*
G75*
G02*
X11409000Y-5180000I30000J0D01*
G01*
X11409000Y-5235000D02*
X11409000Y-5125000D01*
X11349000Y-5125000D02*
G75*
G02*
X11409000Y-5125000I30000J0D01*
G01*
X11349000Y-5125000D02*
X11349000Y-5235000D01*
X11349000Y-5235000D02*
G75*
G03*
X11409000Y-5235000I30000J0D01*
G01*
X12273000Y-4760000D02*
G75*
G02*
X12213000Y-4760000I-30000J0D01*
G01*
X12213000Y-4760000D02*
G75*
G02*
X12273000Y-4760000I30000J0D01*
G01*
X12273000Y-4800000D02*
X12273000Y-4720000D01*
X12213000Y-4720000D02*
G75*
G02*
X12273000Y-4720000I30000J0D01*
G01*
X12213000Y-4720000D02*
X12213000Y-4800000D01*
X12213000Y-4800000D02*
G75*
G03*
X12273000Y-4800000I30000J0D01*
G01*
X12273000Y-5180000D02*
G75*
G02*
X12213000Y-5180000I-30000J0D01*
G01*
X12213000Y-5180000D02*
G75*
G02*
X12273000Y-5180000I30000J0D01*
G01*
X12273000Y-5235000D02*
X12273000Y-5125000D01*
X12213000Y-5125000D02*
G75*
G02*
X12273000Y-5125000I30000J0D01*
G01*
X12213000Y-5125000D02*
X12213000Y-5235000D01*
X12213000Y-5235000D02*
G75*
G03*
X12273000Y-5235000I30000J0D01*
G01*
X11176000Y-5538000D02*
X11176000Y-5638000D01*
X11126000Y-5588000D02*
X11226000Y-5588000D01*
X11176000Y-5792000D02*
X11176000Y-5892000D01*
X11126000Y-5842000D02*
X11226000Y-5842000D01*
X11176000Y-6046000D02*
X11176000Y-6146000D01*
X11126000Y-6096000D02*
X11226000Y-6096000D01*
X11176000Y-6300000D02*
X11176000Y-6400000D01*
X11126000Y-6350000D02*
X11226000Y-6350000D01*
X11176000Y-6554000D02*
X11176000Y-6654000D01*
X11126000Y-6604000D02*
X11226000Y-6604000D01*
X11176000Y-6808000D02*
X11176000Y-6908000D01*
X11126000Y-6858000D02*
X11226000Y-6858000D01*
X11176000Y-7062000D02*
X11176000Y-7162000D01*
X11126000Y-7112000D02*
X11226000Y-7112000D01*
X11176000Y-7316000D02*
X11176000Y-7416000D01*
X11126000Y-7366000D02*
X11226000Y-7366000D01*
X11176000Y-7570000D02*
X11176000Y-7670000D01*
X11126000Y-7620000D02*
X11226000Y-7620000D01*
X11176000Y-7824000D02*
X11176000Y-7924000D01*
X11126000Y-7874000D02*
X11226000Y-7874000D01*
X11176000Y-8078000D02*
X11176000Y-8178000D01*
X11126000Y-8128000D02*
X11226000Y-8128000D01*
X11555500Y-8461500D02*
X11555500Y-8561500D01*
X11505500Y-8511500D02*
X11605500Y-8511500D01*
X11809500Y-8461500D02*
X11809500Y-8561500D01*
X11759500Y-8511500D02*
X11859500Y-8511500D01*
X12063500Y-8461500D02*
X12063500Y-8561500D01*
X12013500Y-8511500D02*
X12113500Y-8511500D01*
X12446000Y-5538000D02*
X12446000Y-5638000D01*
X12396000Y-5588000D02*
X12496000Y-5588000D01*
X12446000Y-5792000D02*
X12446000Y-5892000D01*
X12396000Y-5842000D02*
X12496000Y-5842000D01*
X12446000Y-6046000D02*
X12446000Y-6146000D01*
X12396000Y-6096000D02*
X12496000Y-6096000D01*
X12446000Y-6300000D02*
X12446000Y-6400000D01*
X12396000Y-6350000D02*
X12496000Y-6350000D01*
X12446000Y-6554000D02*
X12446000Y-6654000D01*
X12396000Y-6604000D02*
X12496000Y-6604000D01*
X12446000Y-6808000D02*
X12446000Y-6908000D01*
X12396000Y-6858000D02*
X12496000Y-6858000D01*
X12446000Y-7062000D02*
X12446000Y-7162000D01*
X12396000Y-7112000D02*
X12496000Y-7112000D01*
X12446000Y-7316000D02*
X12446000Y-7416000D01*
X12396000Y-7366000D02*
X12496000Y-7366000D01*
X12446000Y-7570000D02*
X12446000Y-7670000D01*
X12396000Y-7620000D02*
X12496000Y-7620000D01*
X12446000Y-7824000D02*
X12446000Y-7924000D01*
X12396000Y-7874000D02*
X12496000Y-7874000D01*
X12446000Y-8078000D02*
X12446000Y-8178000D01*
X12396000Y-8128000D02*
X12496000Y-8128000D01*
D11*
X11233277Y-9013984D02*
X11233277Y-8813984D01*
X11233277Y-8813984D02*
X11280896Y-8813984D01*
X11280896Y-8813984D02*
X11309467Y-8823508D01*
X11309467Y-8823508D02*
X11328515Y-8842555D01*
X11328515Y-8842555D02*
X11338039Y-8861603D01*
X11338039Y-8861603D02*
X11347562Y-8899698D01*
X11347562Y-8899698D02*
X11347562Y-8928270D01*
X11347562Y-8928270D02*
X11338039Y-8966365D01*
X11338039Y-8966365D02*
X11328515Y-8985412D01*
X11328515Y-8985412D02*
X11309467Y-9004460D01*
X11309467Y-9004460D02*
X11280896Y-9013984D01*
X11280896Y-9013984D02*
X11233277Y-9013984D01*
X11433277Y-9013984D02*
X11433277Y-8880650D01*
X11433277Y-8918746D02*
X11442801Y-8899698D01*
X11442801Y-8899698D02*
X11452324Y-8890174D01*
X11452324Y-8890174D02*
X11471372Y-8880650D01*
X11471372Y-8880650D02*
X11490420Y-8880650D01*
X11557086Y-9013984D02*
X11557086Y-8880650D01*
X11557086Y-8813984D02*
X11547562Y-8823508D01*
X11547562Y-8823508D02*
X11557086Y-8833031D01*
X11557086Y-8833031D02*
X11566610Y-8823508D01*
X11566610Y-8823508D02*
X11557086Y-8813984D01*
X11557086Y-8813984D02*
X11557086Y-8833031D01*
X11680896Y-9013984D02*
X11661848Y-9004460D01*
X11661848Y-9004460D02*
X11652324Y-8985412D01*
X11652324Y-8985412D02*
X11652324Y-8813984D01*
X11785658Y-9013984D02*
X11766610Y-9004460D01*
X11766610Y-9004460D02*
X11757086Y-8985412D01*
X11757086Y-8985412D02*
X11757086Y-8813984D01*
X12014229Y-9013984D02*
X12014229Y-8813984D01*
X12014229Y-8813984D02*
X12080896Y-8956841D01*
X12080896Y-8956841D02*
X12147562Y-8813984D01*
X12147562Y-8813984D02*
X12147562Y-9013984D01*
X12328515Y-9013984D02*
X12328515Y-8909222D01*
X12328515Y-8909222D02*
X12318991Y-8890174D01*
X12318991Y-8890174D02*
X12299943Y-8880650D01*
X12299943Y-8880650D02*
X12261848Y-8880650D01*
X12261848Y-8880650D02*
X12242801Y-8890174D01*
X12328515Y-9004460D02*
X12309467Y-9013984D01*
X12309467Y-9013984D02*
X12261848Y-9013984D01*
X12261848Y-9013984D02*
X12242801Y-9004460D01*
X12242801Y-9004460D02*
X12233277Y-8985412D01*
X12233277Y-8985412D02*
X12233277Y-8966365D01*
X12233277Y-8966365D02*
X12242801Y-8947317D01*
X12242801Y-8947317D02*
X12261848Y-8937793D01*
X12261848Y-8937793D02*
X12309467Y-8937793D01*
X12309467Y-8937793D02*
X12328515Y-8928270D01*
X12423753Y-8880650D02*
X12423753Y-9080650D01*
X12423753Y-8890174D02*
X12442801Y-8880650D01*
X12442801Y-8880650D02*
X12480896Y-8880650D01*
X12480896Y-8880650D02*
X12499943Y-8890174D01*
X12499943Y-8890174D02*
X12509467Y-8899698D01*
X12509467Y-8899698D02*
X12518991Y-8918746D01*
X12518991Y-8918746D02*
X12518991Y-8975889D01*
X12518991Y-8975889D02*
X12509467Y-8994936D01*
X12509467Y-8994936D02*
X12499943Y-9004460D01*
X12499943Y-9004460D02*
X12480896Y-9013984D01*
X12480896Y-9013984D02*
X12442801Y-9013984D01*
X12442801Y-9013984D02*
X12423753Y-9004460D01*
X12604705Y-8994936D02*
X12614229Y-9004460D01*
X12614229Y-9004460D02*
X12604705Y-9013984D01*
X12604705Y-9013984D02*
X12595182Y-9004460D01*
X12595182Y-9004460D02*
X12604705Y-8994936D01*
X12604705Y-8994936D02*
X12604705Y-9013984D01*
X12604705Y-8890174D02*
X12614229Y-8899698D01*
X12614229Y-8899698D02*
X12604705Y-8909222D01*
X12604705Y-8909222D02*
X12595182Y-8899698D01*
X12595182Y-8899698D02*
X12604705Y-8890174D01*
X12604705Y-8890174D02*
X12604705Y-8909222D01*
D12*
X10932500Y-9322500D02*
X10972500Y-9362500D01*
X10972500Y-9322500D02*
X10932500Y-9362500D01*
D11*
X11271372Y-9233984D02*
X11290420Y-9233984D01*
X11290420Y-9233984D02*
X11309467Y-9243508D01*
X11309467Y-9243508D02*
X11318991Y-9253031D01*
X11318991Y-9253031D02*
X11328515Y-9272079D01*
X11328515Y-9272079D02*
X11338039Y-9310174D01*
X11338039Y-9310174D02*
X11338039Y-9357793D01*
X11338039Y-9357793D02*
X11328515Y-9395889D01*
X11328515Y-9395889D02*
X11318991Y-9414936D01*
X11318991Y-9414936D02*
X11309467Y-9424460D01*
X11309467Y-9424460D02*
X11290420Y-9433984D01*
X11290420Y-9433984D02*
X11271372Y-9433984D01*
X11271372Y-9433984D02*
X11252324Y-9424460D01*
X11252324Y-9424460D02*
X11242801Y-9414936D01*
X11242801Y-9414936D02*
X11233277Y-9395889D01*
X11233277Y-9395889D02*
X11223753Y-9357793D01*
X11223753Y-9357793D02*
X11223753Y-9310174D01*
X11223753Y-9310174D02*
X11233277Y-9272079D01*
X11233277Y-9272079D02*
X11242801Y-9253031D01*
X11242801Y-9253031D02*
X11252324Y-9243508D01*
X11252324Y-9243508D02*
X11271372Y-9233984D01*
X11423753Y-9414936D02*
X11433277Y-9424460D01*
X11433277Y-9424460D02*
X11423753Y-9433984D01*
X11423753Y-9433984D02*
X11414229Y-9424460D01*
X11414229Y-9424460D02*
X11423753Y-9414936D01*
X11423753Y-9414936D02*
X11423753Y-9433984D01*
X11604705Y-9300650D02*
X11604705Y-9433984D01*
X11557086Y-9224460D02*
X11509467Y-9367317D01*
X11509467Y-9367317D02*
X11633277Y-9367317D01*
X11747562Y-9233984D02*
X11766610Y-9233984D01*
X11766610Y-9233984D02*
X11785658Y-9243508D01*
X11785658Y-9243508D02*
X11795182Y-9253031D01*
X11795182Y-9253031D02*
X11804705Y-9272079D01*
X11804705Y-9272079D02*
X11814229Y-9310174D01*
X11814229Y-9310174D02*
X11814229Y-9357793D01*
X11814229Y-9357793D02*
X11804705Y-9395889D01*
X11804705Y-9395889D02*
X11795182Y-9414936D01*
X11795182Y-9414936D02*
X11785658Y-9424460D01*
X11785658Y-9424460D02*
X11766610Y-9433984D01*
X11766610Y-9433984D02*
X11747562Y-9433984D01*
X11747562Y-9433984D02*
X11728515Y-9424460D01*
X11728515Y-9424460D02*
X11718991Y-9414936D01*
X11718991Y-9414936D02*
X11709467Y-9395889D01*
X11709467Y-9395889D02*
X11699943Y-9357793D01*
X11699943Y-9357793D02*
X11699943Y-9310174D01*
X11699943Y-9310174D02*
X11709467Y-9272079D01*
X11709467Y-9272079D02*
X11718991Y-9253031D01*
X11718991Y-9253031D02*
X11728515Y-9243508D01*
X11728515Y-9243508D02*
X11747562Y-9233984D01*
X11938039Y-9233984D02*
X11957086Y-9233984D01*
X11957086Y-9233984D02*
X11976134Y-9243508D01*
X11976134Y-9243508D02*
X11985658Y-9253031D01*
X11985658Y-9253031D02*
X11995182Y-9272079D01*
X11995182Y-9272079D02*
X12004705Y-9310174D01*
X12004705Y-9310174D02*
X12004705Y-9357793D01*
X12004705Y-9357793D02*
X11995182Y-9395889D01*
X11995182Y-9395889D02*
X11985658Y-9414936D01*
X11985658Y-9414936D02*
X11976134Y-9424460D01*
X11976134Y-9424460D02*
X11957086Y-9433984D01*
X11957086Y-9433984D02*
X11938039Y-9433984D01*
X11938039Y-9433984D02*
X11918991Y-9424460D01*
X11918991Y-9424460D02*
X11909467Y-9414936D01*
X11909467Y-9414936D02*
X11899943Y-9395889D01*
X11899943Y-9395889D02*
X11890420Y-9357793D01*
X11890420Y-9357793D02*
X11890420Y-9310174D01*
X11890420Y-9310174D02*
X11899943Y-9272079D01*
X11899943Y-9272079D02*
X11909467Y-9253031D01*
X11909467Y-9253031D02*
X11918991Y-9243508D01*
X11918991Y-9243508D02*
X11938039Y-9233984D01*
X12090420Y-9433984D02*
X12090420Y-9300650D01*
X12090420Y-9319698D02*
X12099943Y-9310174D01*
X12099943Y-9310174D02*
X12118991Y-9300650D01*
X12118991Y-9300650D02*
X12147563Y-9300650D01*
X12147563Y-9300650D02*
X12166610Y-9310174D01*
X12166610Y-9310174D02*
X12176134Y-9329222D01*
X12176134Y-9329222D02*
X12176134Y-9433984D01*
X12176134Y-9329222D02*
X12185658Y-9310174D01*
X12185658Y-9310174D02*
X12204705Y-9300650D01*
X12204705Y-9300650D02*
X12233277Y-9300650D01*
X12233277Y-9300650D02*
X12252324Y-9310174D01*
X12252324Y-9310174D02*
X12261848Y-9329222D01*
X12261848Y-9329222D02*
X12261848Y-9433984D01*
X12357086Y-9433984D02*
X12357086Y-9300650D01*
X12357086Y-9319698D02*
X12366610Y-9310174D01*
X12366610Y-9310174D02*
X12385658Y-9300650D01*
X12385658Y-9300650D02*
X12414229Y-9300650D01*
X12414229Y-9300650D02*
X12433277Y-9310174D01*
X12433277Y-9310174D02*
X12442801Y-9329222D01*
X12442801Y-9329222D02*
X12442801Y-9433984D01*
X12442801Y-9329222D02*
X12452324Y-9310174D01*
X12452324Y-9310174D02*
X12471372Y-9300650D01*
X12471372Y-9300650D02*
X12499943Y-9300650D01*
X12499943Y-9300650D02*
X12518991Y-9310174D01*
X12518991Y-9310174D02*
X12528515Y-9329222D01*
X12528515Y-9329222D02*
X12528515Y-9433984D01*
X12918991Y-9224460D02*
X12747563Y-9481603D01*
X13176134Y-9233984D02*
X13195182Y-9233984D01*
X13195182Y-9233984D02*
X13214229Y-9243508D01*
X13214229Y-9243508D02*
X13223753Y-9253031D01*
X13223753Y-9253031D02*
X13233277Y-9272079D01*
X13233277Y-9272079D02*
X13242801Y-9310174D01*
X13242801Y-9310174D02*
X13242801Y-9357793D01*
X13242801Y-9357793D02*
X13233277Y-9395889D01*
X13233277Y-9395889D02*
X13223753Y-9414936D01*
X13223753Y-9414936D02*
X13214229Y-9424460D01*
X13214229Y-9424460D02*
X13195182Y-9433984D01*
X13195182Y-9433984D02*
X13176134Y-9433984D01*
X13176134Y-9433984D02*
X13157086Y-9424460D01*
X13157086Y-9424460D02*
X13147563Y-9414936D01*
X13147563Y-9414936D02*
X13138039Y-9395889D01*
X13138039Y-9395889D02*
X13128515Y-9357793D01*
X13128515Y-9357793D02*
X13128515Y-9310174D01*
X13128515Y-9310174D02*
X13138039Y-9272079D01*
X13138039Y-9272079D02*
X13147563Y-9253031D01*
X13147563Y-9253031D02*
X13157086Y-9243508D01*
X13157086Y-9243508D02*
X13176134Y-9233984D01*
X13328515Y-9414936D02*
X13338039Y-9424460D01*
X13338039Y-9424460D02*
X13328515Y-9433984D01*
X13328515Y-9433984D02*
X13318991Y-9424460D01*
X13318991Y-9424460D02*
X13328515Y-9414936D01*
X13328515Y-9414936D02*
X13328515Y-9433984D01*
X13461848Y-9233984D02*
X13480896Y-9233984D01*
X13480896Y-9233984D02*
X13499944Y-9243508D01*
X13499944Y-9243508D02*
X13509467Y-9253031D01*
X13509467Y-9253031D02*
X13518991Y-9272079D01*
X13518991Y-9272079D02*
X13528515Y-9310174D01*
X13528515Y-9310174D02*
X13528515Y-9357793D01*
X13528515Y-9357793D02*
X13518991Y-9395889D01*
X13518991Y-9395889D02*
X13509467Y-9414936D01*
X13509467Y-9414936D02*
X13499944Y-9424460D01*
X13499944Y-9424460D02*
X13480896Y-9433984D01*
X13480896Y-9433984D02*
X13461848Y-9433984D01*
X13461848Y-9433984D02*
X13442801Y-9424460D01*
X13442801Y-9424460D02*
X13433277Y-9414936D01*
X13433277Y-9414936D02*
X13423753Y-9395889D01*
X13423753Y-9395889D02*
X13414229Y-9357793D01*
X13414229Y-9357793D02*
X13414229Y-9310174D01*
X13414229Y-9310174D02*
X13423753Y-9272079D01*
X13423753Y-9272079D02*
X13433277Y-9253031D01*
X13433277Y-9253031D02*
X13442801Y-9243508D01*
X13442801Y-9243508D02*
X13461848Y-9233984D01*
X13718991Y-9433984D02*
X13604706Y-9433984D01*
X13661848Y-9433984D02*
X13661848Y-9233984D01*
X13661848Y-9233984D02*
X13642801Y-9262555D01*
X13642801Y-9262555D02*
X13623753Y-9281603D01*
X13623753Y-9281603D02*
X13604706Y-9291127D01*
X13899944Y-9233984D02*
X13804706Y-9233984D01*
X13804706Y-9233984D02*
X13795182Y-9329222D01*
X13795182Y-9329222D02*
X13804706Y-9319698D01*
X13804706Y-9319698D02*
X13823753Y-9310174D01*
X13823753Y-9310174D02*
X13871372Y-9310174D01*
X13871372Y-9310174D02*
X13890420Y-9319698D01*
X13890420Y-9319698D02*
X13899944Y-9329222D01*
X13899944Y-9329222D02*
X13909467Y-9348270D01*
X13909467Y-9348270D02*
X13909467Y-9395889D01*
X13909467Y-9395889D02*
X13899944Y-9414936D01*
X13899944Y-9414936D02*
X13890420Y-9424460D01*
X13890420Y-9424460D02*
X13871372Y-9433984D01*
X13871372Y-9433984D02*
X13823753Y-9433984D01*
X13823753Y-9433984D02*
X13804706Y-9424460D01*
X13804706Y-9424460D02*
X13795182Y-9414936D01*
X13976134Y-9233984D02*
X14109467Y-9233984D01*
X14109467Y-9233984D02*
X14023753Y-9433984D01*
X14176134Y-9233984D02*
X14176134Y-9272079D01*
X14252325Y-9233984D02*
X14252325Y-9272079D01*
X14547563Y-9510174D02*
X14538039Y-9500650D01*
X14538039Y-9500650D02*
X14518991Y-9472079D01*
X14518991Y-9472079D02*
X14509468Y-9453031D01*
X14509468Y-9453031D02*
X14499944Y-9424460D01*
X14499944Y-9424460D02*
X14490420Y-9376841D01*
X14490420Y-9376841D02*
X14490420Y-9338746D01*
X14490420Y-9338746D02*
X14499944Y-9291127D01*
X14499944Y-9291127D02*
X14509468Y-9262555D01*
X14509468Y-9262555D02*
X14518991Y-9243508D01*
X14518991Y-9243508D02*
X14538039Y-9214936D01*
X14538039Y-9214936D02*
X14547563Y-9205412D01*
X14728515Y-9433984D02*
X14614229Y-9433984D01*
X14671372Y-9433984D02*
X14671372Y-9233984D01*
X14671372Y-9233984D02*
X14652325Y-9262555D01*
X14652325Y-9262555D02*
X14633277Y-9281603D01*
X14633277Y-9281603D02*
X14614229Y-9291127D01*
X14823753Y-9433984D02*
X14861848Y-9433984D01*
X14861848Y-9433984D02*
X14880896Y-9424460D01*
X14880896Y-9424460D02*
X14890420Y-9414936D01*
X14890420Y-9414936D02*
X14909468Y-9386365D01*
X14909468Y-9386365D02*
X14918991Y-9348270D01*
X14918991Y-9348270D02*
X14918991Y-9272079D01*
X14918991Y-9272079D02*
X14909468Y-9253031D01*
X14909468Y-9253031D02*
X14899944Y-9243508D01*
X14899944Y-9243508D02*
X14880896Y-9233984D01*
X14880896Y-9233984D02*
X14842801Y-9233984D01*
X14842801Y-9233984D02*
X14823753Y-9243508D01*
X14823753Y-9243508D02*
X14814229Y-9253031D01*
X14814229Y-9253031D02*
X14804706Y-9272079D01*
X14804706Y-9272079D02*
X14804706Y-9319698D01*
X14804706Y-9319698D02*
X14814229Y-9338746D01*
X14814229Y-9338746D02*
X14823753Y-9348270D01*
X14823753Y-9348270D02*
X14842801Y-9357793D01*
X14842801Y-9357793D02*
X14880896Y-9357793D01*
X14880896Y-9357793D02*
X14899944Y-9348270D01*
X14899944Y-9348270D02*
X14909468Y-9338746D01*
X14909468Y-9338746D02*
X14918991Y-9319698D01*
X15157087Y-9433984D02*
X15157087Y-9233984D01*
X15242801Y-9433984D02*
X15242801Y-9329222D01*
X15242801Y-9329222D02*
X15233277Y-9310174D01*
X15233277Y-9310174D02*
X15214230Y-9300650D01*
X15214230Y-9300650D02*
X15185658Y-9300650D01*
X15185658Y-9300650D02*
X15166610Y-9310174D01*
X15166610Y-9310174D02*
X15157087Y-9319698D01*
X15366610Y-9433984D02*
X15347563Y-9424460D01*
X15347563Y-9424460D02*
X15338039Y-9414936D01*
X15338039Y-9414936D02*
X15328515Y-9395889D01*
X15328515Y-9395889D02*
X15328515Y-9338746D01*
X15328515Y-9338746D02*
X15338039Y-9319698D01*
X15338039Y-9319698D02*
X15347563Y-9310174D01*
X15347563Y-9310174D02*
X15366610Y-9300650D01*
X15366610Y-9300650D02*
X15395182Y-9300650D01*
X15395182Y-9300650D02*
X15414230Y-9310174D01*
X15414230Y-9310174D02*
X15423753Y-9319698D01*
X15423753Y-9319698D02*
X15433277Y-9338746D01*
X15433277Y-9338746D02*
X15433277Y-9395889D01*
X15433277Y-9395889D02*
X15423753Y-9414936D01*
X15423753Y-9414936D02*
X15414230Y-9424460D01*
X15414230Y-9424460D02*
X15395182Y-9433984D01*
X15395182Y-9433984D02*
X15366610Y-9433984D01*
X15547563Y-9433984D02*
X15528515Y-9424460D01*
X15528515Y-9424460D02*
X15518991Y-9405412D01*
X15518991Y-9405412D02*
X15518991Y-9233984D01*
X15699944Y-9424460D02*
X15680896Y-9433984D01*
X15680896Y-9433984D02*
X15642801Y-9433984D01*
X15642801Y-9433984D02*
X15623753Y-9424460D01*
X15623753Y-9424460D02*
X15614230Y-9405412D01*
X15614230Y-9405412D02*
X15614230Y-9329222D01*
X15614230Y-9329222D02*
X15623753Y-9310174D01*
X15623753Y-9310174D02*
X15642801Y-9300650D01*
X15642801Y-9300650D02*
X15680896Y-9300650D01*
X15680896Y-9300650D02*
X15699944Y-9310174D01*
X15699944Y-9310174D02*
X15709468Y-9329222D01*
X15709468Y-9329222D02*
X15709468Y-9348270D01*
X15709468Y-9348270D02*
X15614230Y-9367317D01*
X15785658Y-9424460D02*
X15804706Y-9433984D01*
X15804706Y-9433984D02*
X15842801Y-9433984D01*
X15842801Y-9433984D02*
X15861849Y-9424460D01*
X15861849Y-9424460D02*
X15871372Y-9405412D01*
X15871372Y-9405412D02*
X15871372Y-9395889D01*
X15871372Y-9395889D02*
X15861849Y-9376841D01*
X15861849Y-9376841D02*
X15842801Y-9367317D01*
X15842801Y-9367317D02*
X15814230Y-9367317D01*
X15814230Y-9367317D02*
X15795182Y-9357793D01*
X15795182Y-9357793D02*
X15785658Y-9338746D01*
X15785658Y-9338746D02*
X15785658Y-9329222D01*
X15785658Y-9329222D02*
X15795182Y-9310174D01*
X15795182Y-9310174D02*
X15814230Y-9300650D01*
X15814230Y-9300650D02*
X15842801Y-9300650D01*
X15842801Y-9300650D02*
X15861849Y-9310174D01*
X15938039Y-9510174D02*
X15947563Y-9500650D01*
X15947563Y-9500650D02*
X15966611Y-9472079D01*
X15966611Y-9472079D02*
X15976134Y-9453031D01*
X15976134Y-9453031D02*
X15985658Y-9424460D01*
X15985658Y-9424460D02*
X15995182Y-9376841D01*
X15995182Y-9376841D02*
X15995182Y-9338746D01*
X15995182Y-9338746D02*
X15985658Y-9291127D01*
X15985658Y-9291127D02*
X15976134Y-9262555D01*
X15976134Y-9262555D02*
X15966611Y-9243508D01*
X15966611Y-9243508D02*
X15947563Y-9214936D01*
X15947563Y-9214936D02*
X15938039Y-9205412D01*
D12*
X10972500Y-9606500D02*
G75*
G02*
X10912500Y-9606500I-30000J0D01*
G01*
X10912500Y-9606500D02*
G75*
G02*
X10972500Y-9606500I30000J0D01*
G01*
D11*
X11271372Y-9497984D02*
X11290420Y-9497984D01*
X11290420Y-9497984D02*
X11309467Y-9507508D01*
X11309467Y-9507508D02*
X11318991Y-9517031D01*
X11318991Y-9517031D02*
X11328515Y-9536079D01*
X11328515Y-9536079D02*
X11338039Y-9574174D01*
X11338039Y-9574174D02*
X11338039Y-9621793D01*
X11338039Y-9621793D02*
X11328515Y-9659889D01*
X11328515Y-9659889D02*
X11318991Y-9678936D01*
X11318991Y-9678936D02*
X11309467Y-9688460D01*
X11309467Y-9688460D02*
X11290420Y-9697984D01*
X11290420Y-9697984D02*
X11271372Y-9697984D01*
X11271372Y-9697984D02*
X11252324Y-9688460D01*
X11252324Y-9688460D02*
X11242801Y-9678936D01*
X11242801Y-9678936D02*
X11233277Y-9659889D01*
X11233277Y-9659889D02*
X11223753Y-9621793D01*
X11223753Y-9621793D02*
X11223753Y-9574174D01*
X11223753Y-9574174D02*
X11233277Y-9536079D01*
X11233277Y-9536079D02*
X11242801Y-9517031D01*
X11242801Y-9517031D02*
X11252324Y-9507508D01*
X11252324Y-9507508D02*
X11271372Y-9497984D01*
X11423753Y-9678936D02*
X11433277Y-9688460D01*
X11433277Y-9688460D02*
X11423753Y-9697984D01*
X11423753Y-9697984D02*
X11414229Y-9688460D01*
X11414229Y-9688460D02*
X11423753Y-9678936D01*
X11423753Y-9678936D02*
X11423753Y-9697984D01*
X11604705Y-9497984D02*
X11566610Y-9497984D01*
X11566610Y-9497984D02*
X11547562Y-9507508D01*
X11547562Y-9507508D02*
X11538039Y-9517031D01*
X11538039Y-9517031D02*
X11518991Y-9545603D01*
X11518991Y-9545603D02*
X11509467Y-9583698D01*
X11509467Y-9583698D02*
X11509467Y-9659889D01*
X11509467Y-9659889D02*
X11518991Y-9678936D01*
X11518991Y-9678936D02*
X11528515Y-9688460D01*
X11528515Y-9688460D02*
X11547562Y-9697984D01*
X11547562Y-9697984D02*
X11585658Y-9697984D01*
X11585658Y-9697984D02*
X11604705Y-9688460D01*
X11604705Y-9688460D02*
X11614229Y-9678936D01*
X11614229Y-9678936D02*
X11623753Y-9659889D01*
X11623753Y-9659889D02*
X11623753Y-9612270D01*
X11623753Y-9612270D02*
X11614229Y-9593222D01*
X11614229Y-9593222D02*
X11604705Y-9583698D01*
X11604705Y-9583698D02*
X11585658Y-9574174D01*
X11585658Y-9574174D02*
X11547562Y-9574174D01*
X11547562Y-9574174D02*
X11528515Y-9583698D01*
X11528515Y-9583698D02*
X11518991Y-9593222D01*
X11518991Y-9593222D02*
X11509467Y-9612270D01*
X11747562Y-9497984D02*
X11766610Y-9497984D01*
X11766610Y-9497984D02*
X11785658Y-9507508D01*
X11785658Y-9507508D02*
X11795182Y-9517031D01*
X11795182Y-9517031D02*
X11804705Y-9536079D01*
X11804705Y-9536079D02*
X11814229Y-9574174D01*
X11814229Y-9574174D02*
X11814229Y-9621793D01*
X11814229Y-9621793D02*
X11804705Y-9659889D01*
X11804705Y-9659889D02*
X11795182Y-9678936D01*
X11795182Y-9678936D02*
X11785658Y-9688460D01*
X11785658Y-9688460D02*
X11766610Y-9697984D01*
X11766610Y-9697984D02*
X11747562Y-9697984D01*
X11747562Y-9697984D02*
X11728515Y-9688460D01*
X11728515Y-9688460D02*
X11718991Y-9678936D01*
X11718991Y-9678936D02*
X11709467Y-9659889D01*
X11709467Y-9659889D02*
X11699943Y-9621793D01*
X11699943Y-9621793D02*
X11699943Y-9574174D01*
X11699943Y-9574174D02*
X11709467Y-9536079D01*
X11709467Y-9536079D02*
X11718991Y-9517031D01*
X11718991Y-9517031D02*
X11728515Y-9507508D01*
X11728515Y-9507508D02*
X11747562Y-9497984D01*
X11938039Y-9497984D02*
X11957086Y-9497984D01*
X11957086Y-9497984D02*
X11976134Y-9507508D01*
X11976134Y-9507508D02*
X11985658Y-9517031D01*
X11985658Y-9517031D02*
X11995182Y-9536079D01*
X11995182Y-9536079D02*
X12004705Y-9574174D01*
X12004705Y-9574174D02*
X12004705Y-9621793D01*
X12004705Y-9621793D02*
X11995182Y-9659889D01*
X11995182Y-9659889D02*
X11985658Y-9678936D01*
X11985658Y-9678936D02*
X11976134Y-9688460D01*
X11976134Y-9688460D02*
X11957086Y-9697984D01*
X11957086Y-9697984D02*
X11938039Y-9697984D01*
X11938039Y-9697984D02*
X11918991Y-9688460D01*
X11918991Y-9688460D02*
X11909467Y-9678936D01*
X11909467Y-9678936D02*
X11899943Y-9659889D01*
X11899943Y-9659889D02*
X11890420Y-9621793D01*
X11890420Y-9621793D02*
X11890420Y-9574174D01*
X11890420Y-9574174D02*
X11899943Y-9536079D01*
X11899943Y-9536079D02*
X11909467Y-9517031D01*
X11909467Y-9517031D02*
X11918991Y-9507508D01*
X11918991Y-9507508D02*
X11938039Y-9497984D01*
X12090420Y-9697984D02*
X12090420Y-9564650D01*
X12090420Y-9583698D02*
X12099943Y-9574174D01*
X12099943Y-9574174D02*
X12118991Y-9564650D01*
X12118991Y-9564650D02*
X12147563Y-9564650D01*
X12147563Y-9564650D02*
X12166610Y-9574174D01*
X12166610Y-9574174D02*
X12176134Y-9593222D01*
X12176134Y-9593222D02*
X12176134Y-9697984D01*
X12176134Y-9593222D02*
X12185658Y-9574174D01*
X12185658Y-9574174D02*
X12204705Y-9564650D01*
X12204705Y-9564650D02*
X12233277Y-9564650D01*
X12233277Y-9564650D02*
X12252324Y-9574174D01*
X12252324Y-9574174D02*
X12261848Y-9593222D01*
X12261848Y-9593222D02*
X12261848Y-9697984D01*
X12357086Y-9697984D02*
X12357086Y-9564650D01*
X12357086Y-9583698D02*
X12366610Y-9574174D01*
X12366610Y-9574174D02*
X12385658Y-9564650D01*
X12385658Y-9564650D02*
X12414229Y-9564650D01*
X12414229Y-9564650D02*
X12433277Y-9574174D01*
X12433277Y-9574174D02*
X12442801Y-9593222D01*
X12442801Y-9593222D02*
X12442801Y-9697984D01*
X12442801Y-9593222D02*
X12452324Y-9574174D01*
X12452324Y-9574174D02*
X12471372Y-9564650D01*
X12471372Y-9564650D02*
X12499943Y-9564650D01*
X12499943Y-9564650D02*
X12518991Y-9574174D01*
X12518991Y-9574174D02*
X12528515Y-9593222D01*
X12528515Y-9593222D02*
X12528515Y-9697984D01*
X12918991Y-9488460D02*
X12747563Y-9745603D01*
X13176134Y-9497984D02*
X13195182Y-9497984D01*
X13195182Y-9497984D02*
X13214229Y-9507508D01*
X13214229Y-9507508D02*
X13223753Y-9517031D01*
X13223753Y-9517031D02*
X13233277Y-9536079D01*
X13233277Y-9536079D02*
X13242801Y-9574174D01*
X13242801Y-9574174D02*
X13242801Y-9621793D01*
X13242801Y-9621793D02*
X13233277Y-9659889D01*
X13233277Y-9659889D02*
X13223753Y-9678936D01*
X13223753Y-9678936D02*
X13214229Y-9688460D01*
X13214229Y-9688460D02*
X13195182Y-9697984D01*
X13195182Y-9697984D02*
X13176134Y-9697984D01*
X13176134Y-9697984D02*
X13157086Y-9688460D01*
X13157086Y-9688460D02*
X13147563Y-9678936D01*
X13147563Y-9678936D02*
X13138039Y-9659889D01*
X13138039Y-9659889D02*
X13128515Y-9621793D01*
X13128515Y-9621793D02*
X13128515Y-9574174D01*
X13128515Y-9574174D02*
X13138039Y-9536079D01*
X13138039Y-9536079D02*
X13147563Y-9517031D01*
X13147563Y-9517031D02*
X13157086Y-9507508D01*
X13157086Y-9507508D02*
X13176134Y-9497984D01*
X13328515Y-9678936D02*
X13338039Y-9688460D01*
X13338039Y-9688460D02*
X13328515Y-9697984D01*
X13328515Y-9697984D02*
X13318991Y-9688460D01*
X13318991Y-9688460D02*
X13328515Y-9678936D01*
X13328515Y-9678936D02*
X13328515Y-9697984D01*
X13461848Y-9497984D02*
X13480896Y-9497984D01*
X13480896Y-9497984D02*
X13499944Y-9507508D01*
X13499944Y-9507508D02*
X13509467Y-9517031D01*
X13509467Y-9517031D02*
X13518991Y-9536079D01*
X13518991Y-9536079D02*
X13528515Y-9574174D01*
X13528515Y-9574174D02*
X13528515Y-9621793D01*
X13528515Y-9621793D02*
X13518991Y-9659889D01*
X13518991Y-9659889D02*
X13509467Y-9678936D01*
X13509467Y-9678936D02*
X13499944Y-9688460D01*
X13499944Y-9688460D02*
X13480896Y-9697984D01*
X13480896Y-9697984D02*
X13461848Y-9697984D01*
X13461848Y-9697984D02*
X13442801Y-9688460D01*
X13442801Y-9688460D02*
X13433277Y-9678936D01*
X13433277Y-9678936D02*
X13423753Y-9659889D01*
X13423753Y-9659889D02*
X13414229Y-9621793D01*
X13414229Y-9621793D02*
X13414229Y-9574174D01*
X13414229Y-9574174D02*
X13423753Y-9536079D01*
X13423753Y-9536079D02*
X13433277Y-9517031D01*
X13433277Y-9517031D02*
X13442801Y-9507508D01*
X13442801Y-9507508D02*
X13461848Y-9497984D01*
X13604706Y-9517031D02*
X13614229Y-9507508D01*
X13614229Y-9507508D02*
X13633277Y-9497984D01*
X13633277Y-9497984D02*
X13680896Y-9497984D01*
X13680896Y-9497984D02*
X13699944Y-9507508D01*
X13699944Y-9507508D02*
X13709467Y-9517031D01*
X13709467Y-9517031D02*
X13718991Y-9536079D01*
X13718991Y-9536079D02*
X13718991Y-9555127D01*
X13718991Y-9555127D02*
X13709467Y-9583698D01*
X13709467Y-9583698D02*
X13595182Y-9697984D01*
X13595182Y-9697984D02*
X13718991Y-9697984D01*
X13785658Y-9497984D02*
X13909467Y-9497984D01*
X13909467Y-9497984D02*
X13842801Y-9574174D01*
X13842801Y-9574174D02*
X13871372Y-9574174D01*
X13871372Y-9574174D02*
X13890420Y-9583698D01*
X13890420Y-9583698D02*
X13899944Y-9593222D01*
X13899944Y-9593222D02*
X13909467Y-9612270D01*
X13909467Y-9612270D02*
X13909467Y-9659889D01*
X13909467Y-9659889D02*
X13899944Y-9678936D01*
X13899944Y-9678936D02*
X13890420Y-9688460D01*
X13890420Y-9688460D02*
X13871372Y-9697984D01*
X13871372Y-9697984D02*
X13814229Y-9697984D01*
X13814229Y-9697984D02*
X13795182Y-9688460D01*
X13795182Y-9688460D02*
X13785658Y-9678936D01*
X14080896Y-9497984D02*
X14042801Y-9497984D01*
X14042801Y-9497984D02*
X14023753Y-9507508D01*
X14023753Y-9507508D02*
X14014229Y-9517031D01*
X14014229Y-9517031D02*
X13995182Y-9545603D01*
X13995182Y-9545603D02*
X13985658Y-9583698D01*
X13985658Y-9583698D02*
X13985658Y-9659889D01*
X13985658Y-9659889D02*
X13995182Y-9678936D01*
X13995182Y-9678936D02*
X14004706Y-9688460D01*
X14004706Y-9688460D02*
X14023753Y-9697984D01*
X14023753Y-9697984D02*
X14061848Y-9697984D01*
X14061848Y-9697984D02*
X14080896Y-9688460D01*
X14080896Y-9688460D02*
X14090420Y-9678936D01*
X14090420Y-9678936D02*
X14099944Y-9659889D01*
X14099944Y-9659889D02*
X14099944Y-9612270D01*
X14099944Y-9612270D02*
X14090420Y-9593222D01*
X14090420Y-9593222D02*
X14080896Y-9583698D01*
X14080896Y-9583698D02*
X14061848Y-9574174D01*
X14061848Y-9574174D02*
X14023753Y-9574174D01*
X14023753Y-9574174D02*
X14004706Y-9583698D01*
X14004706Y-9583698D02*
X13995182Y-9593222D01*
X13995182Y-9593222D02*
X13985658Y-9612270D01*
X14176134Y-9497984D02*
X14176134Y-9536079D01*
X14252325Y-9497984D02*
X14252325Y-9536079D01*
X14547563Y-9774174D02*
X14538039Y-9764650D01*
X14538039Y-9764650D02*
X14518991Y-9736079D01*
X14518991Y-9736079D02*
X14509468Y-9717031D01*
X14509468Y-9717031D02*
X14499944Y-9688460D01*
X14499944Y-9688460D02*
X14490420Y-9640841D01*
X14490420Y-9640841D02*
X14490420Y-9602746D01*
X14490420Y-9602746D02*
X14499944Y-9555127D01*
X14499944Y-9555127D02*
X14509468Y-9526555D01*
X14509468Y-9526555D02*
X14518991Y-9507508D01*
X14518991Y-9507508D02*
X14538039Y-9478936D01*
X14538039Y-9478936D02*
X14547563Y-9469412D01*
X14661848Y-9497984D02*
X14680896Y-9497984D01*
X14680896Y-9497984D02*
X14699944Y-9507508D01*
X14699944Y-9507508D02*
X14709468Y-9517031D01*
X14709468Y-9517031D02*
X14718991Y-9536079D01*
X14718991Y-9536079D02*
X14728515Y-9574174D01*
X14728515Y-9574174D02*
X14728515Y-9621793D01*
X14728515Y-9621793D02*
X14718991Y-9659889D01*
X14718991Y-9659889D02*
X14709468Y-9678936D01*
X14709468Y-9678936D02*
X14699944Y-9688460D01*
X14699944Y-9688460D02*
X14680896Y-9697984D01*
X14680896Y-9697984D02*
X14661848Y-9697984D01*
X14661848Y-9697984D02*
X14642801Y-9688460D01*
X14642801Y-9688460D02*
X14633277Y-9678936D01*
X14633277Y-9678936D02*
X14623753Y-9659889D01*
X14623753Y-9659889D02*
X14614229Y-9621793D01*
X14614229Y-9621793D02*
X14614229Y-9574174D01*
X14614229Y-9574174D02*
X14623753Y-9536079D01*
X14623753Y-9536079D02*
X14633277Y-9517031D01*
X14633277Y-9517031D02*
X14642801Y-9507508D01*
X14642801Y-9507508D02*
X14661848Y-9497984D01*
X14966610Y-9697984D02*
X14966610Y-9497984D01*
X15052325Y-9697984D02*
X15052325Y-9593222D01*
X15052325Y-9593222D02*
X15042801Y-9574174D01*
X15042801Y-9574174D02*
X15023753Y-9564650D01*
X15023753Y-9564650D02*
X14995182Y-9564650D01*
X14995182Y-9564650D02*
X14976134Y-9574174D01*
X14976134Y-9574174D02*
X14966610Y-9583698D01*
X15176134Y-9697984D02*
X15157087Y-9688460D01*
X15157087Y-9688460D02*
X15147563Y-9678936D01*
X15147563Y-9678936D02*
X15138039Y-9659889D01*
X15138039Y-9659889D02*
X15138039Y-9602746D01*
X15138039Y-9602746D02*
X15147563Y-9583698D01*
X15147563Y-9583698D02*
X15157087Y-9574174D01*
X15157087Y-9574174D02*
X15176134Y-9564650D01*
X15176134Y-9564650D02*
X15204706Y-9564650D01*
X15204706Y-9564650D02*
X15223753Y-9574174D01*
X15223753Y-9574174D02*
X15233277Y-9583698D01*
X15233277Y-9583698D02*
X15242801Y-9602746D01*
X15242801Y-9602746D02*
X15242801Y-9659889D01*
X15242801Y-9659889D02*
X15233277Y-9678936D01*
X15233277Y-9678936D02*
X15223753Y-9688460D01*
X15223753Y-9688460D02*
X15204706Y-9697984D01*
X15204706Y-9697984D02*
X15176134Y-9697984D01*
X15357087Y-9697984D02*
X15338039Y-9688460D01*
X15338039Y-9688460D02*
X15328515Y-9669412D01*
X15328515Y-9669412D02*
X15328515Y-9497984D01*
X15509468Y-9688460D02*
X15490420Y-9697984D01*
X15490420Y-9697984D02*
X15452325Y-9697984D01*
X15452325Y-9697984D02*
X15433277Y-9688460D01*
X15433277Y-9688460D02*
X15423753Y-9669412D01*
X15423753Y-9669412D02*
X15423753Y-9593222D01*
X15423753Y-9593222D02*
X15433277Y-9574174D01*
X15433277Y-9574174D02*
X15452325Y-9564650D01*
X15452325Y-9564650D02*
X15490420Y-9564650D01*
X15490420Y-9564650D02*
X15509468Y-9574174D01*
X15509468Y-9574174D02*
X15518991Y-9593222D01*
X15518991Y-9593222D02*
X15518991Y-9612270D01*
X15518991Y-9612270D02*
X15423753Y-9631317D01*
X15595182Y-9688460D02*
X15614230Y-9697984D01*
X15614230Y-9697984D02*
X15652325Y-9697984D01*
X15652325Y-9697984D02*
X15671372Y-9688460D01*
X15671372Y-9688460D02*
X15680896Y-9669412D01*
X15680896Y-9669412D02*
X15680896Y-9659889D01*
X15680896Y-9659889D02*
X15671372Y-9640841D01*
X15671372Y-9640841D02*
X15652325Y-9631317D01*
X15652325Y-9631317D02*
X15623753Y-9631317D01*
X15623753Y-9631317D02*
X15604706Y-9621793D01*
X15604706Y-9621793D02*
X15595182Y-9602746D01*
X15595182Y-9602746D02*
X15595182Y-9593222D01*
X15595182Y-9593222D02*
X15604706Y-9574174D01*
X15604706Y-9574174D02*
X15623753Y-9564650D01*
X15623753Y-9564650D02*
X15652325Y-9564650D01*
X15652325Y-9564650D02*
X15671372Y-9574174D01*
X15918992Y-9621793D02*
X16071373Y-9621793D01*
X15995182Y-9697984D02*
X15995182Y-9545603D01*
X16404706Y-9564650D02*
X16404706Y-9697984D01*
X16357087Y-9488460D02*
X16309468Y-9631317D01*
X16309468Y-9631317D02*
X16433277Y-9631317D01*
X16652325Y-9688460D02*
X16671373Y-9697984D01*
X16671373Y-9697984D02*
X16709468Y-9697984D01*
X16709468Y-9697984D02*
X16728515Y-9688460D01*
X16728515Y-9688460D02*
X16738039Y-9669412D01*
X16738039Y-9669412D02*
X16738039Y-9659889D01*
X16738039Y-9659889D02*
X16728515Y-9640841D01*
X16728515Y-9640841D02*
X16709468Y-9631317D01*
X16709468Y-9631317D02*
X16680896Y-9631317D01*
X16680896Y-9631317D02*
X16661849Y-9621793D01*
X16661849Y-9621793D02*
X16652325Y-9602746D01*
X16652325Y-9602746D02*
X16652325Y-9593222D01*
X16652325Y-9593222D02*
X16661849Y-9574174D01*
X16661849Y-9574174D02*
X16680896Y-9564650D01*
X16680896Y-9564650D02*
X16709468Y-9564650D01*
X16709468Y-9564650D02*
X16728515Y-9574174D01*
X16852325Y-9697984D02*
X16833277Y-9688460D01*
X16833277Y-9688460D02*
X16823754Y-9669412D01*
X16823754Y-9669412D02*
X16823754Y-9497984D01*
X16957087Y-9697984D02*
X16938039Y-9688460D01*
X16938039Y-9688460D02*
X16928516Y-9678936D01*
X16928516Y-9678936D02*
X16918992Y-9659889D01*
X16918992Y-9659889D02*
X16918992Y-9602746D01*
X16918992Y-9602746D02*
X16928516Y-9583698D01*
X16928516Y-9583698D02*
X16938039Y-9574174D01*
X16938039Y-9574174D02*
X16957087Y-9564650D01*
X16957087Y-9564650D02*
X16985658Y-9564650D01*
X16985658Y-9564650D02*
X17004706Y-9574174D01*
X17004706Y-9574174D02*
X17014230Y-9583698D01*
X17014230Y-9583698D02*
X17023754Y-9602746D01*
X17023754Y-9602746D02*
X17023754Y-9659889D01*
X17023754Y-9659889D02*
X17014230Y-9678936D01*
X17014230Y-9678936D02*
X17004706Y-9688460D01*
X17004706Y-9688460D02*
X16985658Y-9697984D01*
X16985658Y-9697984D02*
X16957087Y-9697984D01*
X17080897Y-9564650D02*
X17157087Y-9564650D01*
X17109468Y-9497984D02*
X17109468Y-9669412D01*
X17109468Y-9669412D02*
X17118992Y-9688460D01*
X17118992Y-9688460D02*
X17138039Y-9697984D01*
X17138039Y-9697984D02*
X17157087Y-9697984D01*
X17214230Y-9688460D02*
X17233277Y-9697984D01*
X17233277Y-9697984D02*
X17271373Y-9697984D01*
X17271373Y-9697984D02*
X17290420Y-9688460D01*
X17290420Y-9688460D02*
X17299944Y-9669412D01*
X17299944Y-9669412D02*
X17299944Y-9659889D01*
X17299944Y-9659889D02*
X17290420Y-9640841D01*
X17290420Y-9640841D02*
X17271373Y-9631317D01*
X17271373Y-9631317D02*
X17242801Y-9631317D01*
X17242801Y-9631317D02*
X17223754Y-9621793D01*
X17223754Y-9621793D02*
X17214230Y-9602746D01*
X17214230Y-9602746D02*
X17214230Y-9593222D01*
X17214230Y-9593222D02*
X17223754Y-9574174D01*
X17223754Y-9574174D02*
X17242801Y-9564650D01*
X17242801Y-9564650D02*
X17271373Y-9564650D01*
X17271373Y-9564650D02*
X17290420Y-9574174D01*
X17366611Y-9774174D02*
X17376135Y-9764650D01*
X17376135Y-9764650D02*
X17395182Y-9736079D01*
X17395182Y-9736079D02*
X17404706Y-9717031D01*
X17404706Y-9717031D02*
X17414230Y-9688460D01*
X17414230Y-9688460D02*
X17423754Y-9640841D01*
X17423754Y-9640841D02*
X17423754Y-9602746D01*
X17423754Y-9602746D02*
X17414230Y-9555127D01*
X17414230Y-9555127D02*
X17404706Y-9526555D01*
X17404706Y-9526555D02*
X17395182Y-9507508D01*
X17395182Y-9507508D02*
X17376135Y-9478936D01*
X17376135Y-9478936D02*
X17366611Y-9469412D01*
D12*
X10922500Y-9820500D02*
X10922500Y-9920500D01*
X10872500Y-9870500D02*
X10972500Y-9870500D01*
D11*
X11338039Y-9961984D02*
X11223753Y-9961984D01*
X11280896Y-9961984D02*
X11280896Y-9761984D01*
X11280896Y-9761984D02*
X11261848Y-9790555D01*
X11261848Y-9790555D02*
X11242801Y-9809603D01*
X11242801Y-9809603D02*
X11223753Y-9819127D01*
X11423753Y-9942936D02*
X11433277Y-9952460D01*
X11433277Y-9952460D02*
X11423753Y-9961984D01*
X11423753Y-9961984D02*
X11414229Y-9952460D01*
X11414229Y-9952460D02*
X11423753Y-9942936D01*
X11423753Y-9942936D02*
X11423753Y-9961984D01*
X11557086Y-9761984D02*
X11576134Y-9761984D01*
X11576134Y-9761984D02*
X11595182Y-9771508D01*
X11595182Y-9771508D02*
X11604705Y-9781031D01*
X11604705Y-9781031D02*
X11614229Y-9800079D01*
X11614229Y-9800079D02*
X11623753Y-9838174D01*
X11623753Y-9838174D02*
X11623753Y-9885793D01*
X11623753Y-9885793D02*
X11614229Y-9923889D01*
X11614229Y-9923889D02*
X11604705Y-9942936D01*
X11604705Y-9942936D02*
X11595182Y-9952460D01*
X11595182Y-9952460D02*
X11576134Y-9961984D01*
X11576134Y-9961984D02*
X11557086Y-9961984D01*
X11557086Y-9961984D02*
X11538039Y-9952460D01*
X11538039Y-9952460D02*
X11528515Y-9942936D01*
X11528515Y-9942936D02*
X11518991Y-9923889D01*
X11518991Y-9923889D02*
X11509467Y-9885793D01*
X11509467Y-9885793D02*
X11509467Y-9838174D01*
X11509467Y-9838174D02*
X11518991Y-9800079D01*
X11518991Y-9800079D02*
X11528515Y-9781031D01*
X11528515Y-9781031D02*
X11538039Y-9771508D01*
X11538039Y-9771508D02*
X11557086Y-9761984D01*
X11747562Y-9761984D02*
X11766610Y-9761984D01*
X11766610Y-9761984D02*
X11785658Y-9771508D01*
X11785658Y-9771508D02*
X11795182Y-9781031D01*
X11795182Y-9781031D02*
X11804705Y-9800079D01*
X11804705Y-9800079D02*
X11814229Y-9838174D01*
X11814229Y-9838174D02*
X11814229Y-9885793D01*
X11814229Y-9885793D02*
X11804705Y-9923889D01*
X11804705Y-9923889D02*
X11795182Y-9942936D01*
X11795182Y-9942936D02*
X11785658Y-9952460D01*
X11785658Y-9952460D02*
X11766610Y-9961984D01*
X11766610Y-9961984D02*
X11747562Y-9961984D01*
X11747562Y-9961984D02*
X11728515Y-9952460D01*
X11728515Y-9952460D02*
X11718991Y-9942936D01*
X11718991Y-9942936D02*
X11709467Y-9923889D01*
X11709467Y-9923889D02*
X11699943Y-9885793D01*
X11699943Y-9885793D02*
X11699943Y-9838174D01*
X11699943Y-9838174D02*
X11709467Y-9800079D01*
X11709467Y-9800079D02*
X11718991Y-9781031D01*
X11718991Y-9781031D02*
X11728515Y-9771508D01*
X11728515Y-9771508D02*
X11747562Y-9761984D01*
X11938039Y-9761984D02*
X11957086Y-9761984D01*
X11957086Y-9761984D02*
X11976134Y-9771508D01*
X11976134Y-9771508D02*
X11985658Y-9781031D01*
X11985658Y-9781031D02*
X11995182Y-9800079D01*
X11995182Y-9800079D02*
X12004705Y-9838174D01*
X12004705Y-9838174D02*
X12004705Y-9885793D01*
X12004705Y-9885793D02*
X11995182Y-9923889D01*
X11995182Y-9923889D02*
X11985658Y-9942936D01*
X11985658Y-9942936D02*
X11976134Y-9952460D01*
X11976134Y-9952460D02*
X11957086Y-9961984D01*
X11957086Y-9961984D02*
X11938039Y-9961984D01*
X11938039Y-9961984D02*
X11918991Y-9952460D01*
X11918991Y-9952460D02*
X11909467Y-9942936D01*
X11909467Y-9942936D02*
X11899943Y-9923889D01*
X11899943Y-9923889D02*
X11890420Y-9885793D01*
X11890420Y-9885793D02*
X11890420Y-9838174D01*
X11890420Y-9838174D02*
X11899943Y-9800079D01*
X11899943Y-9800079D02*
X11909467Y-9781031D01*
X11909467Y-9781031D02*
X11918991Y-9771508D01*
X11918991Y-9771508D02*
X11938039Y-9761984D01*
X12090420Y-9961984D02*
X12090420Y-9828650D01*
X12090420Y-9847698D02*
X12099943Y-9838174D01*
X12099943Y-9838174D02*
X12118991Y-9828650D01*
X12118991Y-9828650D02*
X12147563Y-9828650D01*
X12147563Y-9828650D02*
X12166610Y-9838174D01*
X12166610Y-9838174D02*
X12176134Y-9857222D01*
X12176134Y-9857222D02*
X12176134Y-9961984D01*
X12176134Y-9857222D02*
X12185658Y-9838174D01*
X12185658Y-9838174D02*
X12204705Y-9828650D01*
X12204705Y-9828650D02*
X12233277Y-9828650D01*
X12233277Y-9828650D02*
X12252324Y-9838174D01*
X12252324Y-9838174D02*
X12261848Y-9857222D01*
X12261848Y-9857222D02*
X12261848Y-9961984D01*
X12357086Y-9961984D02*
X12357086Y-9828650D01*
X12357086Y-9847698D02*
X12366610Y-9838174D01*
X12366610Y-9838174D02*
X12385658Y-9828650D01*
X12385658Y-9828650D02*
X12414229Y-9828650D01*
X12414229Y-9828650D02*
X12433277Y-9838174D01*
X12433277Y-9838174D02*
X12442801Y-9857222D01*
X12442801Y-9857222D02*
X12442801Y-9961984D01*
X12442801Y-9857222D02*
X12452324Y-9838174D01*
X12452324Y-9838174D02*
X12471372Y-9828650D01*
X12471372Y-9828650D02*
X12499943Y-9828650D01*
X12499943Y-9828650D02*
X12518991Y-9838174D01*
X12518991Y-9838174D02*
X12528515Y-9857222D01*
X12528515Y-9857222D02*
X12528515Y-9961984D01*
X12918991Y-9752460D02*
X12747563Y-10009603D01*
X13176134Y-9761984D02*
X13195182Y-9761984D01*
X13195182Y-9761984D02*
X13214229Y-9771508D01*
X13214229Y-9771508D02*
X13223753Y-9781031D01*
X13223753Y-9781031D02*
X13233277Y-9800079D01*
X13233277Y-9800079D02*
X13242801Y-9838174D01*
X13242801Y-9838174D02*
X13242801Y-9885793D01*
X13242801Y-9885793D02*
X13233277Y-9923889D01*
X13233277Y-9923889D02*
X13223753Y-9942936D01*
X13223753Y-9942936D02*
X13214229Y-9952460D01*
X13214229Y-9952460D02*
X13195182Y-9961984D01*
X13195182Y-9961984D02*
X13176134Y-9961984D01*
X13176134Y-9961984D02*
X13157086Y-9952460D01*
X13157086Y-9952460D02*
X13147563Y-9942936D01*
X13147563Y-9942936D02*
X13138039Y-9923889D01*
X13138039Y-9923889D02*
X13128515Y-9885793D01*
X13128515Y-9885793D02*
X13128515Y-9838174D01*
X13128515Y-9838174D02*
X13138039Y-9800079D01*
X13138039Y-9800079D02*
X13147563Y-9781031D01*
X13147563Y-9781031D02*
X13157086Y-9771508D01*
X13157086Y-9771508D02*
X13176134Y-9761984D01*
X13328515Y-9942936D02*
X13338039Y-9952460D01*
X13338039Y-9952460D02*
X13328515Y-9961984D01*
X13328515Y-9961984D02*
X13318991Y-9952460D01*
X13318991Y-9952460D02*
X13328515Y-9942936D01*
X13328515Y-9942936D02*
X13328515Y-9961984D01*
X13461848Y-9761984D02*
X13480896Y-9761984D01*
X13480896Y-9761984D02*
X13499944Y-9771508D01*
X13499944Y-9771508D02*
X13509467Y-9781031D01*
X13509467Y-9781031D02*
X13518991Y-9800079D01*
X13518991Y-9800079D02*
X13528515Y-9838174D01*
X13528515Y-9838174D02*
X13528515Y-9885793D01*
X13528515Y-9885793D02*
X13518991Y-9923889D01*
X13518991Y-9923889D02*
X13509467Y-9942936D01*
X13509467Y-9942936D02*
X13499944Y-9952460D01*
X13499944Y-9952460D02*
X13480896Y-9961984D01*
X13480896Y-9961984D02*
X13461848Y-9961984D01*
X13461848Y-9961984D02*
X13442801Y-9952460D01*
X13442801Y-9952460D02*
X13433277Y-9942936D01*
X13433277Y-9942936D02*
X13423753Y-9923889D01*
X13423753Y-9923889D02*
X13414229Y-9885793D01*
X13414229Y-9885793D02*
X13414229Y-9838174D01*
X13414229Y-9838174D02*
X13423753Y-9800079D01*
X13423753Y-9800079D02*
X13433277Y-9781031D01*
X13433277Y-9781031D02*
X13442801Y-9771508D01*
X13442801Y-9771508D02*
X13461848Y-9761984D01*
X13595182Y-9761984D02*
X13718991Y-9761984D01*
X13718991Y-9761984D02*
X13652325Y-9838174D01*
X13652325Y-9838174D02*
X13680896Y-9838174D01*
X13680896Y-9838174D02*
X13699944Y-9847698D01*
X13699944Y-9847698D02*
X13709467Y-9857222D01*
X13709467Y-9857222D02*
X13718991Y-9876270D01*
X13718991Y-9876270D02*
X13718991Y-9923889D01*
X13718991Y-9923889D02*
X13709467Y-9942936D01*
X13709467Y-9942936D02*
X13699944Y-9952460D01*
X13699944Y-9952460D02*
X13680896Y-9961984D01*
X13680896Y-9961984D02*
X13623753Y-9961984D01*
X13623753Y-9961984D02*
X13604706Y-9952460D01*
X13604706Y-9952460D02*
X13595182Y-9942936D01*
X13814229Y-9961984D02*
X13852325Y-9961984D01*
X13852325Y-9961984D02*
X13871372Y-9952460D01*
X13871372Y-9952460D02*
X13880896Y-9942936D01*
X13880896Y-9942936D02*
X13899944Y-9914365D01*
X13899944Y-9914365D02*
X13909467Y-9876270D01*
X13909467Y-9876270D02*
X13909467Y-9800079D01*
X13909467Y-9800079D02*
X13899944Y-9781031D01*
X13899944Y-9781031D02*
X13890420Y-9771508D01*
X13890420Y-9771508D02*
X13871372Y-9761984D01*
X13871372Y-9761984D02*
X13833277Y-9761984D01*
X13833277Y-9761984D02*
X13814229Y-9771508D01*
X13814229Y-9771508D02*
X13804706Y-9781031D01*
X13804706Y-9781031D02*
X13795182Y-9800079D01*
X13795182Y-9800079D02*
X13795182Y-9847698D01*
X13795182Y-9847698D02*
X13804706Y-9866746D01*
X13804706Y-9866746D02*
X13814229Y-9876270D01*
X13814229Y-9876270D02*
X13833277Y-9885793D01*
X13833277Y-9885793D02*
X13871372Y-9885793D01*
X13871372Y-9885793D02*
X13890420Y-9876270D01*
X13890420Y-9876270D02*
X13899944Y-9866746D01*
X13899944Y-9866746D02*
X13909467Y-9847698D01*
X14080896Y-9828650D02*
X14080896Y-9961984D01*
X14033277Y-9752460D02*
X13985658Y-9895317D01*
X13985658Y-9895317D02*
X14109467Y-9895317D01*
X14176134Y-9761984D02*
X14176134Y-9800079D01*
X14252325Y-9761984D02*
X14252325Y-9800079D01*
X14547563Y-10038174D02*
X14538039Y-10028650D01*
X14538039Y-10028650D02*
X14518991Y-10000079D01*
X14518991Y-10000079D02*
X14509468Y-9981031D01*
X14509468Y-9981031D02*
X14499944Y-9952460D01*
X14499944Y-9952460D02*
X14490420Y-9904841D01*
X14490420Y-9904841D02*
X14490420Y-9866746D01*
X14490420Y-9866746D02*
X14499944Y-9819127D01*
X14499944Y-9819127D02*
X14509468Y-9790555D01*
X14509468Y-9790555D02*
X14518991Y-9771508D01*
X14518991Y-9771508D02*
X14538039Y-9742936D01*
X14538039Y-9742936D02*
X14547563Y-9733412D01*
X14614229Y-9781031D02*
X14623753Y-9771508D01*
X14623753Y-9771508D02*
X14642801Y-9761984D01*
X14642801Y-9761984D02*
X14690420Y-9761984D01*
X14690420Y-9761984D02*
X14709468Y-9771508D01*
X14709468Y-9771508D02*
X14718991Y-9781031D01*
X14718991Y-9781031D02*
X14728515Y-9800079D01*
X14728515Y-9800079D02*
X14728515Y-9819127D01*
X14728515Y-9819127D02*
X14718991Y-9847698D01*
X14718991Y-9847698D02*
X14604706Y-9961984D01*
X14604706Y-9961984D02*
X14728515Y-9961984D01*
X14909468Y-9761984D02*
X14814229Y-9761984D01*
X14814229Y-9761984D02*
X14804706Y-9857222D01*
X14804706Y-9857222D02*
X14814229Y-9847698D01*
X14814229Y-9847698D02*
X14833277Y-9838174D01*
X14833277Y-9838174D02*
X14880896Y-9838174D01*
X14880896Y-9838174D02*
X14899944Y-9847698D01*
X14899944Y-9847698D02*
X14909468Y-9857222D01*
X14909468Y-9857222D02*
X14918991Y-9876270D01*
X14918991Y-9876270D02*
X14918991Y-9923889D01*
X14918991Y-9923889D02*
X14909468Y-9942936D01*
X14909468Y-9942936D02*
X14899944Y-9952460D01*
X14899944Y-9952460D02*
X14880896Y-9961984D01*
X14880896Y-9961984D02*
X14833277Y-9961984D01*
X14833277Y-9961984D02*
X14814229Y-9952460D01*
X14814229Y-9952460D02*
X14804706Y-9942936D01*
X15157087Y-9961984D02*
X15157087Y-9761984D01*
X15242801Y-9961984D02*
X15242801Y-9857222D01*
X15242801Y-9857222D02*
X15233277Y-9838174D01*
X15233277Y-9838174D02*
X15214230Y-9828650D01*
X15214230Y-9828650D02*
X15185658Y-9828650D01*
X15185658Y-9828650D02*
X15166610Y-9838174D01*
X15166610Y-9838174D02*
X15157087Y-9847698D01*
X15366610Y-9961984D02*
X15347563Y-9952460D01*
X15347563Y-9952460D02*
X15338039Y-9942936D01*
X15338039Y-9942936D02*
X15328515Y-9923889D01*
X15328515Y-9923889D02*
X15328515Y-9866746D01*
X15328515Y-9866746D02*
X15338039Y-9847698D01*
X15338039Y-9847698D02*
X15347563Y-9838174D01*
X15347563Y-9838174D02*
X15366610Y-9828650D01*
X15366610Y-9828650D02*
X15395182Y-9828650D01*
X15395182Y-9828650D02*
X15414230Y-9838174D01*
X15414230Y-9838174D02*
X15423753Y-9847698D01*
X15423753Y-9847698D02*
X15433277Y-9866746D01*
X15433277Y-9866746D02*
X15433277Y-9923889D01*
X15433277Y-9923889D02*
X15423753Y-9942936D01*
X15423753Y-9942936D02*
X15414230Y-9952460D01*
X15414230Y-9952460D02*
X15395182Y-9961984D01*
X15395182Y-9961984D02*
X15366610Y-9961984D01*
X15547563Y-9961984D02*
X15528515Y-9952460D01*
X15528515Y-9952460D02*
X15518991Y-9933412D01*
X15518991Y-9933412D02*
X15518991Y-9761984D01*
X15699944Y-9952460D02*
X15680896Y-9961984D01*
X15680896Y-9961984D02*
X15642801Y-9961984D01*
X15642801Y-9961984D02*
X15623753Y-9952460D01*
X15623753Y-9952460D02*
X15614230Y-9933412D01*
X15614230Y-9933412D02*
X15614230Y-9857222D01*
X15614230Y-9857222D02*
X15623753Y-9838174D01*
X15623753Y-9838174D02*
X15642801Y-9828650D01*
X15642801Y-9828650D02*
X15680896Y-9828650D01*
X15680896Y-9828650D02*
X15699944Y-9838174D01*
X15699944Y-9838174D02*
X15709468Y-9857222D01*
X15709468Y-9857222D02*
X15709468Y-9876270D01*
X15709468Y-9876270D02*
X15614230Y-9895317D01*
X15785658Y-9952460D02*
X15804706Y-9961984D01*
X15804706Y-9961984D02*
X15842801Y-9961984D01*
X15842801Y-9961984D02*
X15861849Y-9952460D01*
X15861849Y-9952460D02*
X15871372Y-9933412D01*
X15871372Y-9933412D02*
X15871372Y-9923889D01*
X15871372Y-9923889D02*
X15861849Y-9904841D01*
X15861849Y-9904841D02*
X15842801Y-9895317D01*
X15842801Y-9895317D02*
X15814230Y-9895317D01*
X15814230Y-9895317D02*
X15795182Y-9885793D01*
X15795182Y-9885793D02*
X15785658Y-9866746D01*
X15785658Y-9866746D02*
X15785658Y-9857222D01*
X15785658Y-9857222D02*
X15795182Y-9838174D01*
X15795182Y-9838174D02*
X15814230Y-9828650D01*
X15814230Y-9828650D02*
X15842801Y-9828650D01*
X15842801Y-9828650D02*
X15861849Y-9838174D01*
X15938039Y-10038174D02*
X15947563Y-10028650D01*
X15947563Y-10028650D02*
X15966611Y-10000079D01*
X15966611Y-10000079D02*
X15976134Y-9981031D01*
X15976134Y-9981031D02*
X15985658Y-9952460D01*
X15985658Y-9952460D02*
X15995182Y-9904841D01*
X15995182Y-9904841D02*
X15995182Y-9866746D01*
X15995182Y-9866746D02*
X15985658Y-9819127D01*
X15985658Y-9819127D02*
X15976134Y-9790555D01*
X15976134Y-9790555D02*
X15966611Y-9771508D01*
X15966611Y-9771508D02*
X15947563Y-9742936D01*
X15947563Y-9742936D02*
X15938039Y-9733412D01*
M02*
