M48
; DRILL file {KiCad 8.0.3} date 2024-08-17T22:20:42+0100
; FORMAT={-:-/ absolute / inch / decimal}
; #@! TF.CreationDate,2024-08-17T22:20:42+01:00
; #@! TF.GenerationSoftware,Kicad,Pcbnew,8.0.3
; #@! TF.FileFunction,Plated,1,2,PTH
FMAT,2
INCH
; #@! TA.AperFunction,Plated,PTH,ViaDrill
T1C0.0157
; #@! TA.AperFunction,Plated,PTH,ComponentDrill
T2C0.0236
; #@! TA.AperFunction,Plated,PTH,ComponentDrill
T3C0.0394
%
G90
G05
T1
X4.3937Y-1.8431
X4.4606Y-2.9291
X4.4961Y-3.0827
X4.5118Y-2.0872
X4.5673Y-2.7484
X4.58Y-2.9384
X4.5984Y-1.9199
X4.6Y-3.28
X4.61Y-2.13
X4.6831Y-2.8878
X4.7Y-2.99
X4.7Y-3.28
X4.7008Y-1.9199
X4.7126Y-2.9252
X4.7248Y-2.21
X4.7874Y-2.0872
X4.85Y-2.25
X4.85Y-2.45
X4.9055Y-1.8431
T3
X4.4Y-2.2
X4.4Y-2.3
X4.4Y-2.4
X4.4Y-2.5
X4.4Y-2.6
X4.4Y-2.7
X4.4Y-2.8
X4.4Y-2.9
X4.4Y-3.0
X4.4Y-3.1
X4.4Y-3.2
X4.5494Y-3.351
X4.6494Y-3.351
X4.7494Y-3.351
X4.9Y-2.2
X4.9Y-2.3
X4.9Y-2.4
X4.9Y-2.5
X4.9Y-2.6
X4.9Y-2.7
X4.9Y-2.8
X4.9Y-2.9
X4.9Y-3.0
X4.9Y-3.1
X4.9Y-3.2
T2
G00X4.4799Y-1.8898
M15
G01X4.4799Y-1.8583
M16
G05
G00X4.4799Y-2.061
M15
G01X4.4799Y-2.0177
M16
G05
G00X4.8201Y-1.8898
M15
G01X4.8201Y-1.8583
M16
G05
G00X4.8201Y-2.061
M15
G01X4.8201Y-2.0177
M16
G05
M30
